<?xml version="1.0" encoding="UTF-8"?>
<svg xmlns="http://www.w3.org/2000/svg" height="16px" viewBox="0 0 16 16" width="16px"><g fill="#2e3436"><path d="m 7 1.007812 c -0.296875 -0.003906 -0.578125 0.125 -0.765625 0.351563 l -3.234375 3.640625 h -1 c -1.09375 0 -2 0.84375 -2 2 v 2 c 0 1.089844 0.910156 2 2 2 h 1 l 3.234375 3.640625 c 0.207031 0.253906 0.488281 0.363281 0.765625 0.359375 z m 3.039062 2.984376 c -0.222656 -0.011719 -0.453124 0.054687 -0.644531 0.199218 c -0.261719 0.199219 -0.394531 0.5 -0.394531 0.804688 v 0.066406 c 0.011719 0.1875 0.078125 0.371094 0.199219 0.53125 c 1.074219 1.425781 1.074219 3.386719 0 4.816406 c -0.121094 0.15625 -0.1875 0.34375 -0.199219 0.527344 v 0.066406 c 0 0.304688 0.132812 0.609375 0.394531 0.804688 c 0.441407 0.332031 1.066407 0.242187 1.402344 -0.195313 c 0.800781 -1.070312 1.207031 -2.339843 1.207031 -3.613281 s -0.40625 -2.542969 -1.207031 -3.609375 c -0.1875 -0.25 -0.46875 -0.386719 -0.757813 -0.398437 z m 0 0"/><path d="m 13.460938 1.96875 c -0.191407 0 -0.386719 0.054688 -0.558594 0.171875 c -0.457032 0.308594 -0.578125 0.929687 -0.269532 1.386719 c 1.824219 2.707031 1.824219 6.238281 0 8.945312 c -0.308593 0.457032 -0.1875 1.078125 0.269532 1.390625 c 0.457031 0.308594 1.078125 0.1875 1.390625 -0.269531 c 1.136719 -1.691406 1.707031 -3.640625 1.707031 -5.59375 s -0.570312 -3.902344 -1.707031 -5.589844 c -0.195313 -0.289062 -0.511719 -0.441406 -0.832031 -0.441406 z m 0 0" fill-opacity="0.34902"/></g></svg>
