<?xml version="1.0" encoding="UTF-8"?>
<svg xmlns="http://www.w3.org/2000/svg" xmlns:xlink="http://www.w3.org/1999/xlink" height="16px" viewBox="0 0 16 16" width="16px"><filter id="a" height="100%" width="100%" x="0%" y="0%"><feColorMatrix color-interpolation-filters="sRGB" values="0 0 0 0 1 0 0 0 0 1 0 0 0 0 1 0 0 0 1 0"/></filter><mask id="b"><g filter="url(#a)"><path d="m -1.6 -1.6 h 19.2 v 19.2 h -19.2 z" fill-opacity="0.5"/></g></mask><clipPath id="c"><path d="m 0 0 h 1600 v 1200 h -1600 z"/></clipPath><mask id="d"><g filter="url(#a)"><path d="m -1.6 -1.6 h 19.2 v 19.2 h -19.2 z" fill-opacity="0.7"/></g></mask><clipPath id="e"><path d="m 0 0 h 1600 v 1200 h -1600 z"/></clipPath><mask id="f"><g filter="url(#a)"><path d="m -1.6 -1.6 h 19.2 v 19.2 h -19.2 z" fill-opacity="0.35"/></g></mask><clipPath id="g"><path d="m 0 0 h 1600 v 1200 h -1600 z"/></clipPath><path d="m 8 0 c -1.382812 0 -2.761719 0.359375 -4 1.074219 c -2.472656 1.425781 -4 4.070312 -4 6.925781 h 2 c 0 -2.144531 1.140625 -4.121094 3 -5.195312 c 1.859375 -1.074219 4.140625 -1.074219 6 0 c 1.859375 1.074218 3 3.050781 3 5.195312 h 2 c 0 -2.855469 -1.527344 -5.5 -4 -6.925781 c -1.238281 -0.714844 -2.617188 -1.074219 -4 -1.074219 z m 2.992188 4.917969 c -0.269532 0.003906 -0.527344 0.109375 -0.714844 0.304687 l -1.777344 1.777344 c -0.691406 -0.183594 -1.425781 0.011719 -1.929688 0.515625 c -0.78125 0.78125 -0.78125 2.046875 0 2.828125 c 0.777344 0.78125 2.046876 0.78125 2.824219 0 c 0.503907 -0.503906 0.703125 -1.242188 0.519531 -1.929688 l 1.773438 -1.777343 c 0.644531 -0.625 0.203125 -1.714844 -0.695312 -1.71875 z m -8.992188 7.082031 v 4 l 4 -2 z m 7 0 v 4 l 3 -2 z m 3 2 v 2 l 3 -2 l -3 -2 z m 0 0" fill="#222222"/><g mask="url(#b)"><g clip-path="url(#c)" transform="matrix(1 0 0 1 -540 -380)"><path d="m 550 182 c -0.351562 0.003906 -0.695312 0.101562 -1 0.28125 v 3.4375 c 0.304688 0.179688 0.648438 0.277344 1 0.28125 c 1.105469 0 2 -0.894531 2 -2 s -0.894531 -2 -2 -2 z m 0 5 c -0.339844 0 -0.679688 0.058594 -1 0.175781 v 6.824219 h 4 v -4 c 0 -1.65625 -1.34375 -3 -3 -3 z m 0 0"/></g></g><g mask="url(#d)"><g clip-path="url(#e)" transform="matrix(1 0 0 1 -540 -380)"><path d="m 569 182 v 4 c 1.105469 0 2 -0.894531 2 -2 s -0.894531 -2 -2 -2 z m 0 5 v 7 h 3 v -4 c 0 -1.65625 -1.34375 -3 -3 -3 z m 0 0"/></g></g><g mask="url(#f)"><g clip-path="url(#g)" transform="matrix(1 0 0 1 -540 -380)"><path d="m 573 182.269531 v 3.449219 c 0.613281 -0.355469 0.996094 -1.007812 1 -1.71875 c 0 -0.714844 -0.382812 -1.375 -1 -1.730469 z m 0 4.90625 v 6.824219 h 2 v -4 c 0 -1.269531 -0.800781 -2.402344 -2 -2.824219 z m 0 0"/></g></g></svg>
