<?xml version="1.0" encoding="UTF-8"?>
<svg xmlns="http://www.w3.org/2000/svg" height="16px" viewBox="0 0 16 16" width="16px"><path d="m 7 1.007812 c -0.296875 -0.003906 -0.578125 0.125 -0.765625 0.351563 l -3.234375 3.640625 h -1 c -1.09375 0 -2 0.84375 -2 2 v 2 c 0 1.089844 0.910156 2 2 2 h 1 l 3.234375 3.640625 c 0.207031 0.253906 0.488281 0.363281 0.765625 0.359375 z m 2.957031 2.984376 c -0.199219 0.007812 -0.394531 0.074218 -0.5625 0.199218 c -0.441406 0.332032 -0.53125 0.960938 -0.195312 1.402344 c 1.074219 1.425781 1.074219 3.386719 0 4.816406 c -0.335938 0.441406 -0.246094 1.066406 0.195312 1.398438 c 0.441407 0.332031 1.066407 0.246094 1.402344 -0.195313 c 0.800781 -1.070312 1.207031 -2.339843 1.207031 -3.613281 s -0.40625 -2.542969 -1.207031 -3.609375 c -0.1875 -0.25 -0.46875 -0.386719 -0.757813 -0.398437 c -0.027343 -0.003907 -0.054687 -0.003907 -0.082031 0 z m 0 0" fill="#2e3436"/></svg>
