<?xml version="1.0" encoding="UTF-8" standalone="no"?>
<svg
   height="16px"
   viewBox="0 0 16 16"
   width="16px"
   version="1.1"
   id="svg2"
   sodipodi:docname="listen-book-symbolic.svg"
   inkscape:version="1.4 (e7c3feb100, 2024-10-09)"
   xmlns:inkscape="http://www.inkscape.org/namespaces/inkscape"
   xmlns:sodipodi="http://sodipodi.sourceforge.net/DTD/sodipodi-0.dtd"
   xmlns="http://www.w3.org/2000/svg"
   xmlns:svg="http://www.w3.org/2000/svg">
  <defs
     id="defs2" />
  <sodipodi:namedview
     id="namedview2"
     pagecolor="#ffffff"
     bordercolor="#000000"
     borderopacity="0.25"
     inkscape:showpageshadow="2"
     inkscape:pageopacity="0.0"
     inkscape:pagecheckerboard="0"
     inkscape:deskcolor="#d1d1d1"
     inkscape:zoom="36.28125"
     inkscape:cx="4.4375538"
     inkscape:cy="10.790698"
     inkscape:window-width="2524"
     inkscape:window-height="1412"
     inkscape:window-x="0"
     inkscape:window-y="0"
     inkscape:window-maximized="1"
     inkscape:current-layer="g2" />
  <g
     fill="#222222"
     id="g2">
    <path
       id="path1"
       d="M 15.648,0.09 3.3534917,0.08237844 C 2.2616615,0.08736873 0.34220044,1.2489899 0.34223502,3.3030271 L 0.3424146,13.962397 c 1.85e-5,1.091831 0.9023808,1.99421 1.9942098,1.99421 H 14.38165 c 1.435832,0.03989 1.191541,-1.261338 1.191541,-1.261338 l -13.119256,0.03578 c -1.4245902,-0.01486 -1.4245902,-1.929301 -0.00987,-1.91444 l 13.173817,-0.0111 z M 6.7461408,0.90000439 H 6.9530402 C 8.6546381,0.94701039 10.143287,2.0618047 10.669748,3.6819269 11.271419,5.5590121 10.421079,7.5973386 8.663075,8.490465 L 8.630669,8.507915 8.603249,8.520384 C 8.1739314,8.6927327 8.0862465,8.8523498 7.9326956,9.2158588 7.7791447,9.5762345 7.6687402,10.136055 7.2895631,10.731458 6.6659571,11.699773 5.5867747,12.114723 4.6372641,11.932969 3.6846201,11.751215 2.8424755,10.868823 2.8424755,9.7218891 V 8.91922 8.91423 c 0,-0.4449837 0.3576838,-0.8026694 0.8026693,-0.8026694 0.4418511,0 0.8026695,0.3576857 0.8026695,0.8026694 v 0.00499 0.8026691 c 0,0.4606539 0.1839721,0.5736229 0.4910741,0.6331629 0.3071028,0.05954 0.7112973,-0.04046 0.9995975,-0.4885819 C 6.1171065,9.5907047 6.2194611,9.1448389 6.4544877,8.5901754 6.6832475,8.0417774 7.1472775,7.3943564 7.9526378,7.0496486 9.0024267,6.5137875 9.5076869,5.2948644 9.1441781,4.173001 8.7838025,3.0417364 7.650778,2.3447419 6.4819082,2.5327637 5.3099057,2.7113842 4.4446836,3.7188426 4.4478143,4.9033805 c -0.00313,0.4418509 -0.3639517,0.795191 -0.8026695,0.795191 -0.4418512,0 -0.7995296,-0.3533401 -0.8026693,-0.795191 0,-0.028204 -6.469e-4,-0.0547 0.00249,-0.079768 0.053274,-2.1497164 1.776527,-3.86406751 3.9011743,-3.92360791 z M 13.277178,3.1210555 h 0.04736 c 0.08148,0.00941 0.164163,0.043304 0.226841,0.099711 0.166083,0.1472839 0.184677,0.3997736 0.0374,0.5658569 -0.752087,0.8523657 -1.106788,1.752216 -1.106788,2.6672554 0,0.9150405 0.355911,1.857481 1.114265,2.7819226 0.137888,0.1723532 0.114383,0.4279745 -0.05484,0.5658557 -0.172354,0.141017 -0.42548,0.114378 -0.563364,-0.05484 -0.852372,-1.0403868 -1.298735,-2.1679405 -1.298735,-3.2929377 0,-1.124998 0.447575,-2.2274087 1.306206,-3.1957211 0.07207,-0.084611 0.178843,-0.1371018 0.291654,-0.1371018 z m 1.206497,0.9771628 c 0.08461,0 0.166021,0.031481 0.231826,0.084753 0.175491,0.1316149 0.209533,0.3853844 0.07477,0.5608715 -0.470054,0.6142055 -0.694213,1.1933315 -0.700466,1.7573973 -0.0063,0.5671992 0.20285,1.1462548 0.697973,1.769861 0.134752,0.1723534 0.10754,0.4254812 -0.06481,0.5633644 -0.175483,0.1347514 -0.42797,0.1075421 -0.565854,-0.064811 C 13.57738,8.0363684 13.280888,7.268427 13.287141,6.4912698 c 0.0095,-0.7740229 0.319084,-1.524659 0.867481,-2.2360077 0.07834,-0.1034134 0.200562,-0.1570439 0.329045,-0.1570439 z"
       sodipodi:nodetypes="ccsssccccccsccccccccscssscssccccccscccscccscccscssccccccccsscc"
       style="stroke-width:1" />
    <path
       d="m 1.33,12.801748 h 13.530536 c -1.018079,0.419622 -0.998489,1.49719 0,1.914441 H 1.33 Z"
       fill-opacity="0.34902"
       id="path2"
       style="stroke-width:1"
       sodipodi:nodetypes="ccccc" />
  </g>
</svg>
