<?xml version="1.0" encoding="UTF-8"?>
<svg height="16px" viewBox="0 0 16 16" width="16px" xmlns="http://www.w3.org/2000/svg" xmlns:xlink="http://www.w3.org/1999/xlink">
    <filter id="a" height="100%" width="100%" x="0%" y="0%">
        <feColorMatrix in="SourceGraphic" type="matrix" values="0 0 0 0 1 0 0 0 0 1 0 0 0 0 1 0 0 0 1 0"/>
    </filter>
    <mask id="b">
        <g filter="url(#a)">
            <path d="m 0 0 h 16 v 16 h -16 z" fill-opacity="0.3"/>
        </g>
    </mask>
    <clipPath id="c">
        <path d="m 0 0 h 1024 v 800 h -1024 z"/>
    </clipPath>
    <mask id="d">
        <g filter="url(#a)">
            <path d="m 0 0 h 16 v 16 h -16 z" fill-opacity="0.05"/>
        </g>
    </mask>
    <clipPath id="e">
        <path d="m 0 0 h 1024 v 800 h -1024 z"/>
    </clipPath>
    <mask id="f">
        <g filter="url(#a)">
            <path d="m 0 0 h 16 v 16 h -16 z" fill-opacity="0.05"/>
        </g>
    </mask>
    <clipPath id="g">
        <path d="m 0 0 h 1024 v 800 h -1024 z"/>
    </clipPath>
    <mask id="h">
        <g filter="url(#a)">
            <path d="m 0 0 h 16 v 16 h -16 z" fill-opacity="0.05"/>
        </g>
    </mask>
    <clipPath id="i">
        <path d="m 0 0 h 1024 v 800 h -1024 z"/>
    </clipPath>
    <mask id="j">
        <g filter="url(#a)">
            <path d="m 0 0 h 16 v 16 h -16 z" fill-opacity="0.05"/>
        </g>
    </mask>
    <clipPath id="k">
        <path d="m 0 0 h 1024 v 800 h -1024 z"/>
    </clipPath>
    <mask id="l">
        <g filter="url(#a)">
            <path d="m 0 0 h 16 v 16 h -16 z" fill-opacity="0.05"/>
        </g>
    </mask>
    <clipPath id="m">
        <path d="m 0 0 h 1024 v 800 h -1024 z"/>
    </clipPath>
    <mask id="n">
        <g filter="url(#a)">
            <path d="m 0 0 h 16 v 16 h -16 z" fill-opacity="0.05"/>
        </g>
    </mask>
    <clipPath id="o">
        <path d="m 0 0 h 1024 v 800 h -1024 z"/>
    </clipPath>
    <mask id="p">
        <g filter="url(#a)">
            <path d="m 0 0 h 16 v 16 h -16 z" fill-opacity="0.3"/>
        </g>
    </mask>
    <clipPath id="q">
        <path d="m 0 0 h 1024 v 800 h -1024 z"/>
    </clipPath>
    <mask id="r">
        <g filter="url(#a)">
            <path d="m 0 0 h 16 v 16 h -16 z" fill-opacity="0.5"/>
        </g>
    </mask>
    <clipPath id="s">
        <path d="m 0 0 h 1024 v 800 h -1024 z"/>
    </clipPath>
    <mask id="t">
        <g filter="url(#a)">
            <path d="m 0 0 h 16 v 16 h -16 z" fill-opacity="0.35"/>
        </g>
    </mask>
    <clipPath id="u">
        <path d="m 0 0 h 1024 v 800 h -1024 z"/>
    </clipPath>
    <g clip-path="url(#c)" mask="url(#b)" transform="matrix(1 0 0 1 -660 -60)">
        <path d="m 562.460938 212.058594 h 10.449218 c -1.183594 0.492187 -1.296875 2.460937 0 3 h -10.449218 z m 0 0" fill="#2e3436"/>
    </g>
    <path d="m 0 4 v 10 h 2 v -2 h 6 l -3 -3 h -3 v -3 z m 5 0 c -0.527344 0 -1.035156 0.210938 -1.40625 0.582031 l 2.824219 2.824219 c 0.371093 -0.371094 0.582031 -0.878906 0.582031 -1.40625 c 0 -1.105469 -0.894531 -2 -2 -2 z m 3 1 v 3.988281 l 3.011719 3.011719 h 2.988281 v 2 h 2 v -7 c 0 -1.109375 -0.890625 -2 -2 -2 z m 0 0" fill="#2e3436"/>
    <path d="m 1.089844 0.957031 l -1.0625002 1.058594 l 14.0000002 14 l 1.0625 -1.0625 z m 0 0" fill="#2e3436"/>
    <g clip-path="url(#e)" mask="url(#d)" transform="matrix(1 0 0 1 -660 -60)">
        <path d="m 16 632 h 1 v 1 h -1 z m 0 0" fill="#2e3436" fill-rule="evenodd"/>
    </g>
    <g clip-path="url(#g)" mask="url(#f)" transform="matrix(1 0 0 1 -660 -60)">
        <path d="m 17 631 h 1 v 1 h -1 z m 0 0" fill="#2e3436" fill-rule="evenodd"/>
    </g>
    <g clip-path="url(#i)" mask="url(#h)" transform="matrix(1 0 0 1 -660 -60)">
        <path d="m 18 634 h 1 v 1 h -1 z m 0 0" fill="#2e3436" fill-rule="evenodd"/>
    </g>
    <g clip-path="url(#k)" mask="url(#j)" transform="matrix(1 0 0 1 -660 -60)">
        <path d="m 16 634 h 1 v 1 h -1 z m 0 0" fill="#2e3436" fill-rule="evenodd"/>
    </g>
    <g clip-path="url(#m)" mask="url(#l)" transform="matrix(1 0 0 1 -660 -60)">
        <path d="m 17 635 h 1 v 1 h -1 z m 0 0" fill="#2e3436" fill-rule="evenodd"/>
    </g>
    <g clip-path="url(#o)" mask="url(#n)" transform="matrix(1 0 0 1 -660 -60)">
        <path d="m 19 635 h 1 v 1 h -1 z m 0 0" fill="#2e3436" fill-rule="evenodd"/>
    </g>
    <g clip-path="url(#q)" mask="url(#p)" transform="matrix(1 0 0 1 -660 -60)">
        <path d="m 136 660 v 7 h 7 v -7 z m 0 0" fill="#2e3436"/>
    </g>
    <g clip-path="url(#s)" mask="url(#r)" transform="matrix(1 0 0 1 -660 -60)">
        <path d="m 219 642 h 3 v 12 h -3 z m 0 0" fill="#2e3436"/>
    </g>
    <g clip-path="url(#u)" mask="url(#t)" transform="matrix(1 0 0 1 -660 -60)">
        <path d="m 226 396 v 4.585938 l -1.292969 -1.292969 c -0.1875 -0.1875 -0.441406 -0.292969 -0.707031 -0.292969 h -1 v 1 c 0 0.265625 0.105469 0.519531 0.292969 0.707031 l 2.707031 2.707031 v 1.171876 l -2.707031 2.707031 c -0.1875 0.1875 -0.292969 0.441406 -0.292969 0.707031 v 1 h 0.96875 h 0.03125 c 0.265625 0 0.519531 -0.105469 0.707031 -0.292969 l 1.292969 -1.292969 v 4.585938 h 1 c 0.265625 0 0.519531 -0.105469 0.707031 -0.292969 l 2.566407 -2.566406 c -0.167969 -0.183594 -0.261719 -0.421875 -0.261719 -0.671875 v -1.46875 c 0 -0.546875 0.441406 -0.988281 0.988281 -0.988281 h 0.425781 l -2.011719 -2.011719 l 2.292969 -2.292969 c 0.390625 -0.390625 0.390625 -1.023437 0 -1.414062 l -4 -4 c -0.179687 -0.179688 -0.421875 -0.285157 -0.675781 -0.292969 c -0.011719 0 -0.019531 0 -0.03125 0 z m 2 3.414062 l 1.585938 1.585938 l -1.585938 1.585938 z m 0 6 l 1.585938 1.585938 l -1.585938 1.585938 z m 0 0" fill="#2e3436"/>
    </g>
</svg>
