<?xml version="1.0" encoding="utf-8"?>
<!-- Generator: Adobe Illustrator 16.0.0, SVG Export Plug-In . SVG Version: 6.00 Build 0)  -->
<!DOCTYPE svg PUBLIC "-//W3C//DTD SVG 1.1//EN" "http://www.w3.org/Graphics/SVG/1.1/DTD/svg11.dtd">
<svg version="1.1" id="Layer_2" xmlns="http://www.w3.org/2000/svg" xmlns:xlink="http://www.w3.org/1999/xlink" x="0px" y="0px"
	 width="16px" height="16px" viewBox="0 0 16 16" enable-background="new 0 0 16 16" xml:space="preserve">
<g id="Layer_3">
</g>
<g id="Drop_Shadow_7_" transform="matrix(1.052632,0,0,1.285713,-1.263158,-13.42854)" opacity="0.4">
	
		<radialGradient id="rect2801_5_" cx="43.8901" cy="378.5585" r="0.2716" gradientTransform="matrix(5.9947 0 0 1.0551 -250.2066 -378.0888)" gradientUnits="userSpaceOnUse">
		<stop  offset="0" style="stop-color:#181818"/>
		<stop  offset="1" style="stop-color:#181818;stop-opacity:0"/>
	</radialGradient>
	<rect id="rect2801_7_" x="12.9" y="21.1" fill="url(#rect2801_5_)" width="1.5" height="0.4"/>
	
		<radialGradient id="rect2_5_" cx="-108.8789" cy="-363.6785" r="0.2714" gradientTransform="matrix(-5.9947 0 0 -1.0551 -647.9968 -362.3895)" gradientUnits="userSpaceOnUse">
		<stop  offset="0" style="stop-color:#181818"/>
		<stop  offset="1" style="stop-color:#181818;stop-opacity:0"/>
	</radialGradient>
	<rect id="rect2_7_" x="3.2" y="21.1" fill="url(#rect2_5_)" width="1.5" height="0.4"/>
	
		<linearGradient id="rect1_5_" gradientUnits="userSpaceOnUse" x1="143.2477" y1="527.0444" x2="143.2477" y2="526.2812" gradientTransform="matrix(2.9917 0 0 0.9184 -419.7516 -462.511)">
		<stop  offset="0" style="stop-color:#181818;stop-opacity:0"/>
		<stop  offset="0.5" style="stop-color:#181818"/>
		<stop  offset="1" style="stop-color:#181818;stop-opacity:0"/>
	</linearGradient>
	<rect id="rect1_7_" x="4.7" y="21.1" fill="url(#rect1_5_)" width="8.2" height="0.4"/>
</g>
<path id="Icon_Border_7_" opacity="0.6" fill="#381F18" stroke="#3F3022" stroke-miterlimit="10" enable-background="new    " d="
	M14.1,12.7c0,0.7-0.6,1.3-1.3,1.3H3.2c-0.7,0-1.3-0.6-1.3-1.3V3.1c0-0.7,0.6-1.3,1.3-1.3h9.6c0.7,0,1.3,0.6,1.3,1.3V12.7z"/>
<linearGradient id="Background_5_" gradientUnits="userSpaceOnUse" x1="250.0029" y1="-316.396" x2="250.0029" y2="-327.397" gradientTransform="matrix(1 0 0 -1 -242 -314)">
	<stop  offset="0" style="stop-color:#F39200"/>
	<stop  offset="0.1354" style="stop-color:#F18905"/>
	<stop  offset="0.3558" style="stop-color:#EC7114"/>
	<stop  offset="0.6339" style="stop-color:#E3492C"/>
	<stop  offset="0.9557" style="stop-color:#D8134D"/>
	<stop  offset="1" style="stop-color:#D60B52"/>
</linearGradient>
<linearGradient id="Background_6_" gradientUnits="userSpaceOnUse" x1="250.0029" y1="-315.896" x2="250.0029" y2="-327.897" gradientTransform="matrix(1 0 0 -1 -242 -314)">
	<stop  offset="0" style="stop-color:#E94E1B"/>
	<stop  offset="7.124600e-003" style="stop-color:#EA531C"/>
	<stop  offset="5.917540e-002" style="stop-color:#EF7524"/>
	<stop  offset="0.1123" style="stop-color:#F4902B"/>
	<stop  offset="0.1663" style="stop-color:#F7A32F"/>
	<stop  offset="0.2218" style="stop-color:#F8AE32"/>
	<stop  offset="0.2809" style="stop-color:#F9B233"/>
	<stop  offset="0.5897" style="stop-color:#E94E1B"/>
	<stop  offset="0.8088" style="stop-color:#E94E1B"/>
	<stop  offset="0.8493" style="stop-color:#E24822"/>
	<stop  offset="0.9094" style="stop-color:#CE3934"/>
	<stop  offset="0.9814" style="stop-color:#AD2052"/>
	<stop  offset="1" style="stop-color:#A3195B"/>
</linearGradient>
<path id="Background_7_" fill="url(#Background_5_)" stroke="url(#Background_6_)" stroke-miterlimit="10" d="M13.5,12.2
	c0,0.7-0.5,1.2-1.2,1.2H3.7c-0.7,0-1.2-0.5-1.2-1.2V3.6c0-0.7,0.5-1.2,1.2-1.2h8.6c0.7,0,1.2,0.5,1.2,1.2V12.2z"/>
<g id="Shadow_Headphones_7_" opacity="0.2">
	<path id="rect5540_17_" fill="none" stroke="#000000" stroke-width="2" stroke-linecap="round" stroke-linejoin="round" d="
		M11.5,8.3"/>
	<path id="rect5540_11_" fill="none" stroke="#000000" stroke-width="2" stroke-linecap="round" stroke-linejoin="round" d="
		M11.5,7.7"/>
	<path id="rect5540_12_" fill="none" stroke="#000000" stroke-width="2" stroke-linecap="round" stroke-linejoin="round" d="M8,3.8"
		/>
	<path id="rect5540_16_" fill="none" stroke="#000000" stroke-width="2" stroke-linecap="round" stroke-linejoin="round" d="
		M4.5,7.7"/>
	<path id="rect5540_13_" fill="none" stroke="#000000" stroke-width="2" stroke-linecap="round" stroke-linejoin="round" d="
		M4.5,8.3"/>
</g>
<g id="Headphones_5_">
	<path id="rect5540_15_" fill="none" stroke="#FFFFFF" stroke-linecap="round" stroke-linejoin="round" d="M4,10V9.1
		C4,6.3,5.8,4,8,4h0c2.2,0,4,2.3,4,5.1V10"/>
	<path id="rect5413-5_15_" fill="#FFFFFF" d="M3.9,8.4h0.6v2.3H3.9c-0.2,0-0.4-0.3-0.4-0.6l0-1.1C3.5,8.7,3.7,8.4,3.9,8.4z"/>
	<path id="rect5413_15_" fill="#FFFFFF" d="M4.8,8h0.3v3H4.8c-0.2,0-0.4-0.1-0.4-0.2V8.2C4.4,8.1,4.6,8,4.8,8z"/>
	<path id="rect5413-5-2_15_" fill="#FFFFFF" d="M12.1,8.4h-0.6v2.3h0.6c0.2,0,0.4-0.3,0.4-0.6l0-1.1C12.5,8.7,12.3,8.4,12.1,8.4z"/>
	<path id="rect5413-3_15_" fill="#FFFFFF" d="M11.2,8h-0.3v3h0.3c0.2,0,0.4-0.1,0.4-0.2V8.2C11.6,8.1,11.4,8,11.2,8z"/>
	<path id="path5647_11_" display="none" fill-opacity="0.388" d="M3.8,9.8L4,10.1l0.2,0.2c0.2,0.1,0.2,0.1,0.3,0.1v0.1v0H4.1h0
		C3.8,10.4,3.8,9.9,3.8,9.8z"/>
	<path id="path5647-9_11_" display="none" fill-opacity="0.39" d="M12.4,9.9l-0.2,0.2l-0.2,0.2c-0.2,0.1-0.2,0.1-0.3,0.1v0.1v0h0.4
		h0C12.5,10.4,12.4,10,12.4,9.9L12.4,9.9z"/>
	<path id="path5647-1_11_" display="none" fill-opacity="0.3" d="M4.7,10.2l0.1,0.3l0.1,0.2c0.1,0.1,0.1,0.1,0.2,0.1v0.1v0l-0.2,0
		l-0.1,0l0,0c0,0,0,0,0-0.1C4.7,10.6,4.7,10.2,4.7,10.2z"/>
	<path id="path5647-1-2_11_" display="none" fill="#1D1D1B" fill-opacity="0.3" d="M11.5,10l-0.1,0.3l-0.1,0.3
		c-0.1,0.1-0.1,0.1-0.2,0.2v0.2v0l0.3,0l0.1,0l0,0c0,0,0-0.1,0-0.1C11.5,10.5,11.5,10.1,11.5,10L11.5,10z"/>
</g>
<rect x="6" y="6" fill="#FFFFFF" width="4" height="7"/>
</svg>
