<?xml version="1.0" encoding="UTF-8" standalone="no"?>
<svg
   xmlns:dc="http://purl.org/dc/elements/1.1/"
   xmlns:cc="http://creativecommons.org/ns#"
   xmlns:rdf="http://www.w3.org/1999/02/22-rdf-syntax-ns#"
   xmlns:svg="http://www.w3.org/2000/svg"
   xmlns="http://www.w3.org/2000/svg"
   xmlns:xlink="http://www.w3.org/1999/xlink"
   xmlns:sodipodi="http://sodipodi.sourceforge.net/DTD/sodipodi-0.dtd"
   xmlns:inkscape="http://www.inkscape.org/namespaces/inkscape"
   width="64"
   height="64"
   id="svg2"
   version="1.1"
   sodipodi:docname="com.github.geigi.cozy.svg"
   inkscape:version="0.92.4 5da689c313, 2019-01-14">
  <sodipodi:namedview
     pagecolor="#ffffff"
     bordercolor="#666666"
     borderopacity="1"
     objecttolerance="10"
     gridtolerance="10"
     guidetolerance="10"
     inkscape:pageopacity="0"
     inkscape:pageshadow="2"
     inkscape:window-width="2560"
     inkscape:window-height="1386"
     id="namedview54"
     showgrid="false"
     inkscape:zoom="41.7193"
     inkscape:cx="47.104854"
     inkscape:cy="53.012248"
     inkscape:window-x="0"
     inkscape:window-y="28"
     inkscape:window-maximized="1"
     inkscape:current-layer="layer2"
     inkscape:snap-page="true"
     inkscape:snap-grids="false" />
  <defs
     id="defs4">
    <linearGradient
       id="linearGradient1174">
      <stop
         id="stop1166"
         style="stop-color:#ffffff;stop-opacity:1"
         offset="0" />
      <stop
         id="stop1168"
         style="stop-color:#ffffff;stop-opacity:0.23529412"
         offset="0.04604129" />
      <stop
         id="stop1170"
         style="stop-color:#ffffff;stop-opacity:0.15686275"
         offset="0.95056331" />
      <stop
         id="stop1172"
         style="stop-color:#ffffff;stop-opacity:0.39215687"
         offset="1" />
    </linearGradient>
    <linearGradient
       id="linearGradient899">
      <stop
         offset="0"
         style="stop-color:#f282f1;stop-opacity:1"
         id="stop1192" />
      <stop
         offset="1"
         style="stop-color:#a56de2;stop-opacity:1"
         id="stop1194" />
    </linearGradient>
    <linearGradient
       id="linearGradient6420">
      <stop
         style="stop-color:#000000;stop-opacity:1;"
         offset="0"
         id="stop6422" />
      <stop
         style="stop-color:#000000;stop-opacity:0;"
         offset="1"
         id="stop6424" />
    </linearGradient>
    <linearGradient
       id="linearGradient3688-166-749-654">
      <stop
         id="stop3088"
         style="stop-color:#181818;stop-opacity:1"
         offset="0" />
      <stop
         id="stop3090"
         style="stop-color:#181818;stop-opacity:0"
         offset="1" />
    </linearGradient>
    <linearGradient
       id="linearGradient3702-501-757-795">
      <stop
         id="stop3100"
         style="stop-color:#181818;stop-opacity:0"
         offset="0" />
      <stop
         id="stop3102"
         style="stop-color:#181818;stop-opacity:1"
         offset="0.5" />
      <stop
         id="stop3104"
         style="stop-color:#181818;stop-opacity:0"
         offset="1" />
    </linearGradient>
    <radialGradient
       r="2.5"
       fy="43.5"
       fx="4.9929786"
       cy="43.5"
       cx="4.9929786"
       gradientTransform="matrix(1.9740983,0,0,1.4,26.451271,-17.402531)"
       gradientUnits="userSpaceOnUse"
       id="radialGradient3946"
       xlink:href="#linearGradient3688-166-749-654" />
    <radialGradient
       r="2.5"
       fy="43.5"
       fx="4.9929786"
       cy="43.5"
       cx="4.9929786"
       gradientTransform="matrix(1.9740983,0,0,1.4,-21.548734,-104.39747)"
       gradientUnits="userSpaceOnUse"
       id="radialGradient3948"
       xlink:href="#linearGradient3688-166-749-654" />
    <linearGradient
       gradientTransform="matrix(0.87962965,0,0,1,2.8888916,-0.00253193)"
       y2="39.999443"
       x2="25.058096"
       y1="47.027729"
       x1="25.058096"
       gradientUnits="userSpaceOnUse"
       id="linearGradient3950"
       xlink:href="#linearGradient3702-501-757-795" />
    <radialGradient
       r="35.338131"
       fy="93.467628"
       fx="-4.0287771"
       cy="93.467628"
       cx="-4.0287771"
       gradientTransform="matrix(0.7074511,0,0,0.08489414,34.85016,115.06571)"
       gradientUnits="userSpaceOnUse"
       id="radialGradient3976"
       xlink:href="#linearGradient6420" />
    <linearGradient
       y2="48.534767"
       x2="23.99999"
       y1="6.0395865"
       x1="23.99999"
       gradientTransform="matrix(1.3648649,0,0,1.3648649,-7.256753,56.743256)"
       gradientUnits="userSpaceOnUse"
       id="linearGradient3965"
       xlink:href="#linearGradient3924" />
    <linearGradient
       id="linearGradient3924">
      <stop
         offset="0"
         style="stop-color:#ffffff;stop-opacity:1"
         id="stop3926" />
      <stop
         offset="0.06316455"
         style="stop-color:#ffffff;stop-opacity:0.23529412"
         id="stop3928" />
      <stop
         offset="0.95056331"
         style="stop-color:#ffffff;stop-opacity:0.15686275"
         id="stop3930" />
      <stop
         offset="1"
         style="stop-color:#ffffff;stop-opacity:0.39215687"
         id="stop3932" />
    </linearGradient>
    <linearGradient
       y2="124.11175"
       x2="200.66388"
       y1="6.0270019"
       x1="201.47743"
       gradientTransform="matrix(0.5,0,0,0.5,-68.738715,61.736499)"
       gradientUnits="userSpaceOnUse"
       id="linearGradient910"
       xlink:href="#linearGradient899-4" />
    <linearGradient
       id="linearGradient899-4">
      <stop
         id="stop895"
         style="stop-color:#f37329;stop-opacity:1"
         offset="0" />
      <stop
         id="stop897"
         style="stop-color:#cc3b02;stop-opacity:1"
         offset="1" />
    </linearGradient>
    <linearGradient
       gradientUnits="userSpaceOnUse"
       y2="119"
       x2="32"
       y1="1"
       x1="32"
       id="linearGradient904"
       xlink:href="#linearGradient902"
       gradientTransform="translate(-7)" />
    <linearGradient
       id="linearGradient902">
      <stop
         id="stop898"
         offset="0"
         style="stop-color:#770087;stop-opacity:1;" />
      <stop
         id="stop900"
         offset="1"
         style="stop-color:#452981;stop-opacity:1" />
    </linearGradient>
    <linearGradient
       gradientTransform="matrix(1.832495,0,0,1.8439152,-232.1758,-3.442198)"
       gradientUnits="userSpaceOnUse"
       xlink:href="#linearGradient5803"
       id="linearGradient5228-5"
       y2="55.014568"
       x2="167.98311"
       y1="10.001652"
       x1="167.98311" />
    <linearGradient
       id="linearGradient5803">
      <stop
         offset="0"
         style="stop-color:#ffffff;stop-opacity:1"
         id="stop5805" />
      <stop
         offset="1"
         style="stop-color:#fafafa;stop-opacity:1"
         id="stop5807" />
    </linearGradient>
    <linearGradient
       inkscape:collect="always"
       xlink:href="#linearGradient1174"
       id="linearGradient1154"
       x1="32.066757"
       y1="63.410389"
       x2="31.75"
       y2="122.7458"
       gradientUnits="userSpaceOnUse" />
    <linearGradient
       inkscape:collect="always"
       xlink:href="#linearGradient899-4"
       id="linearGradient1164"
       gradientUnits="userSpaceOnUse"
       gradientTransform="matrix(0.5,0,0,0.5,-68.738715,61.736499)"
       x1="201.47743"
       y1="6.0270019"
       x2="200.66388"
       y2="124.11175" />
    <mask
       maskUnits="userSpaceOnUse"
       id="mask1160">
      <rect
         style="opacity:1;vector-effect:none;fill:url(#linearGradient1164);fill-opacity:1;stroke:none;stroke-width:1;stroke-linecap:butt;stroke-linejoin:miter;stroke-miterlimit:4;stroke-dasharray:none;stroke-dashoffset:0;stroke-opacity:1"
         id="rect1162"
         y="64.750031"
         x="8.75"
         ry="2.5"
         rx="2.5"
         height="58.5"
         width="46.5" />
    </mask>
  </defs>
  <metadata
     id="metadata7">
    <rdf:RDF>
      <cc:Work
         rdf:about="">
        <dc:format>image/svg+xml</dc:format>
        <dc:type
           rdf:resource="http://purl.org/dc/dcmitype/StillImage" />
        <dc:title />
      </cc:Work>
    </rdf:RDF>
  </metadata>
  <flowRoot
     style="font-style:normal;font-weight:normal;font-size:40px;line-height:1.25;font-family:sans-serif;letter-spacing:0px;word-spacing:0px;fill:#000000;fill-opacity:1;stroke:none"
     id="flowRoot81"
     xml:space="preserve"
     transform="translate(0,-64)"><flowRegion
       id="flowRegion83"><rect
         y="-10.609092"
         x="-189.29451"
         height="581.07208"
         width="281.61438"
         id="rect85" /></flowRegion><flowPara
       id="flowPara87" /></flowRoot>  <g
     id="Layer_3"
     transform="translate(152.73099,-79.353728)" />
  <g
     inkscape:groupmode="layer"
     id="layer1"
     inkscape:label="Layer 1"
     style="display:none"
     transform="translate(0,-64)">
    <rect
       style="opacity:0.35400008;fill:#cc3b02;fill-opacity:0.35294118;fill-rule:evenodd;stroke:none;stroke-width:1.99899995;stroke-linecap:round;stroke-linejoin:round;stroke-miterlimit:4;stroke-dasharray:none;stroke-dashoffset:0;stroke-opacity:1;paint-order:markers fill stroke"
       id="rect996"
       width="64"
       height="64"
       x="0"
       y="64"
       rx="0.117952"
       ry="0.1296155" />
  </g>
  <g
     inkscape:groupmode="layer"
     id="layer2"
     inkscape:label="Layer 2"
     transform="translate(0,-64)">
    <path
       d="m 57,123.00057 a 25,3 0 0 1 -50,0 25,3 0 1 1 50,0 z"
       id="path3041"
       style="color:#000000;display:inline;overflow:visible;visibility:visible;opacity:0.2;fill:url(#radialGradient3976);fill-opacity:1;fill-rule:nonzero;stroke:none;stroke-width:0.99999994;marker:none;enable-background:accumulate"
       inkscape:connector-curvature="0" />
    <g
       transform="matrix(1.3499995,0,0,0.27777804,-0.4000045,111.44528)"
       id="g2036"
       style="display:inline;stroke-width:2">
      <g
         transform="matrix(1.052632,0,0,1.285713,-1.263158,-13.42854)"
         id="g3712"
         style="opacity:0.4;stroke-width:2">
        <rect
           width="4.9259257"
           height="7"
           x="36.314819"
           y="39.997467"
           id="rect2801-3"
           style="fill:url(#radialGradient3946);fill-opacity:1;stroke:none;stroke-width:2" />
        <rect
           width="4.9259257"
           height="7"
           x="-11.685188"
           y="-46.997467"
           transform="scale(-1)"
           id="rect3696-6"
           style="fill:url(#radialGradient3948);fill-opacity:1;stroke:none;stroke-width:2" />
        <rect
           width="24.629629"
           height="7.0000005"
           x="11.685188"
           y="39.997467"
           id="rect3700-7"
           style="fill:url(#linearGradient3950);fill-opacity:1;stroke:none;stroke-width:2" />
      </g>
    </g>
    <rect
       width="46.5"
       height="58.5"
       rx="2.5"
       ry="2.5"
       x="8.75"
       y="64.750031"
       id="rect4897"
       style="opacity:1;vector-effect:none;fill:url(#linearGradient910);fill-opacity:1;stroke:none;stroke-width:1;stroke-linecap:butt;stroke-linejoin:miter;stroke-miterlimit:4;stroke-dasharray:none;stroke-dashoffset:0;stroke-opacity:1" />
    <rect
       style="opacity:0.5;vector-effect:none;fill:none;fill-opacity:1;stroke:#ee6c24;stroke-width:0.80125982;stroke-linecap:butt;stroke-linejoin:miter;stroke-miterlimit:4;stroke-dasharray:none;stroke-dashoffset:0;stroke-opacity:1"
       id="rect3993"
       y="64.75"
       x="8.75"
       ry="2.5"
       rx="2.5"
       height="58.5"
       width="46.5" />
    <rect
       style="opacity:1;vector-effect:none;fill:none;fill-opacity:1;stroke:url(#linearGradient1154);stroke-width:1;stroke-linecap:butt;stroke-linejoin:miter;stroke-miterlimit:4;stroke-dasharray:none;stroke-dashoffset:0;stroke-opacity:1"
       id="rect1146"
       y="64.750031"
       x="8.75"
       ry="2.5"
       rx="2.5"
       height="58.5"
       width="46.5"
       mask="url(#mask1160)" />
  </g>
  <g
     inkscape:groupmode="layer"
     id="layer3"
     inkscape:label="Layer 3"
     transform="translate(0,-64)">
    <path
       d="m 15,75.25 h 3.113837 z m 3.570532,0 h 2.906247 z m 3.362943,0 h 2.574106 z m 2.989285,0 h 1.120981 z m 1.577677,0 h 2.491069 z m 2.989283,0 h 6.559816 z m 6.974994,0 h 5.023657 z m 5.438836,0 h 1.536159 z M 15,78.25 h 4.857585 z m 5.397316,0 h 2.324998 z m 2.740176,0 h 1.1625 z m 1.619196,0 h 2.117408 z m 2.574104,0 h 2.158927 z m 2.574106,0 h 3.445979 z m 3.902675,0 h 4.483925 z m 4.899104,0 h 2.989283 z m 3.404461,0 H 42.85846 Z M 15,81.229312 h 4.110264 z m 4.525442,0 h 6.725887 z m 7.141066,0 h 3.279907 z m 3.695086,0 h 3.072319 z m 3.487497,0 h 2.615623 z m 3.030801,0 4.110265,0.04138 z m 4.483925,0.04138 h 6.684369 z M 15,84.25 h 5.687941 z m 6.144637,0 h 6.144638 z m 6.559816,0 h 2.449552 z m 2.86473,0 h 5.770978 z m 6.144638,0 h 3.944193 z m 4.400889,0 h 1.577678 z m 1.992855,0 h 0.871875 z m 1.328571,0 h 2.449552 z M 15,87.25 h 2.117409 z m 2.781694,0 h 7.846868 z M 15,92.25 h 3.113837 z m 3.570532,0 h 2.86473 z m 3.362943,0 h 2.574106 z m 2.989285,0 h 1.120981 z m 1.577677,0 h 2.491069 z m 2.989283,0 h 6.518297 z m 6.974994,0 h 4.982139 z m 5.397317,0 h 1.577678 z m 1.992856,0 h 3.736604 z M 15,95.25 h 5.231244 z m 5.646423,0 h 5.604906 z m 6.020085,0 h 2.158926 z m 2.574105,0 h 5.272764 z m 5.687941,0 h 6.642852 z m 7.099548,0 h 2.449552 z M 15,98.25 h 5.687941 z m 6.144637,0 h 6.144638 z m 6.559816,0 h 2.449552 z m 2.86473,0 h 5.770978 z m 6.144638,0 h 3.944193 z m 4.400889,0 h 1.577678 z m 1.992855,0 h 0.871875 z m 1.328571,0 h 2.449552 z M 15,101.25 h 4.857585 z m 5.397316,0 h 2.324998 z m 2.740176,0 h 1.1625 z m 1.619196,0 h 2.117408 z m 2.574104,0 h 2.158927 z m 2.574106,0 h 3.445979 z m 3.902675,0 h 4.483925 z m 4.899104,0 h 2.989283 z m 3.404461,0 H 42.85846 Z M 15,106.22932 h 4.110264 z m 4.525442,0 h 6.725887 z m 7.141066,0 h 3.279907 z m 3.695086,0 h 3.072319 z m 3.487497,0 h 2.615623 z m 3.030801,0 4.110265,0.0414 z m 4.483925,0.0414 h 6.684369 z M 15,109.25 h 4.857585 z m 5.397316,0 h 2.324998 z m 2.740176,0 h 1.1625 z m 1.619196,0 h 2.117408 z m 2.574104,0 h 2.158927 z m 2.574106,0 h 3.445979 z m 3.902675,0 h 4.483925 z m 4.899104,0 h 2.989283 z m 3.404461,0 H 42.85846 Z M 15,112.25 h 5.148209 z m 5.604905,0 h 1.619196 z m 2.034374,0 h 3.695086 z m 4.110264,0 h 5.438835 z m 5.895531,0 h 3.695087 z m 4.068747,0 h 0.788838 z m 1.204017,0 h 4.691514 z m 5.189727,0 h 2.449552 z M 15,115.25 h 5.148209 z m 5.604905,0 h 2.324999 z m 2.740176,0 h 3.653569 z m 4.068747,0 h 3.944193 z m 4.400889,0 h 1.577678 z m 1.992856,0 h 0.871874 z m 1.328571,0 h 2.449551 z"
       id="path3475"
       style="opacity:0.7;fill:none;stroke:#fafafa;stroke-width:1px;stroke-linecap:butt;stroke-linejoin:miter;stroke-opacity:0.49710987"
       inkscape:connector-curvature="0" />
    <path
       style="fill:#fafafa;stroke-width:7.99999952"
       d="m 32.473722,76.629711 c -9.03994,-0.26693 -16.513669,6.987313 -16.516237,16.031193 v 3.341804 0 h -0.668222 c -0.737618,0.002 -1.335061,0.599515 -1.337133,1.337134 v 12.700368 c 0.002,0.73761 0.599515,1.33506 1.337133,1.33713 h 4.708449 v -1.33713 h 2.005356 c 0.737618,-0.002 1.33506,-0.59952 1.337133,-1.33714 V 98.676289 c -0.0024,-0.73735 -0.599781,-1.334377 -1.337133,-1.336447 h -2.005356 v -1.337134 h -0.02951 v -3.341804 c 0.0071,-10.715222 12.958657,-16.080813 20.541359,-8.509904 0.556354,0.557248 1.055762,1.16858 1.490811,1.824923 1.328091,1.976185 2.035702,4.30399 2.032115,6.684981 v 3.341805 h -0.0302 v 1.337133 h -2.005356 c -0.737085,0.0024 -1.334002,0.599363 -1.336448,1.336447 v 10.026781 c 0.0021,0.73736 0.599097,1.33469 1.336448,1.33714 h 2.005356 v 1.33713 H 48.7121 c 0.737352,-0.002 1.33438,-0.59978 1.33645,-1.33713 V 97.339842 c -0.002,-0.737353 -0.599098,-1.334687 -1.33645,-1.337133 h -0.668906 v 0 -3.341805 c -0.0025,-8.6741 -6.899147,-15.775306 -15.569472,-16.031193 z"
       id="path1462"
       inkscape:connector-curvature="0"
       sodipodi:nodetypes="cccccccccccccccccccccccccccccccccccccc" />
  </g>
</svg>
