<?xml version="1.0" encoding="UTF-8" standalone="no"?>
<svg
   xmlns:dc="http://purl.org/dc/elements/1.1/"
   xmlns:cc="http://creativecommons.org/ns#"
   xmlns:rdf="http://www.w3.org/1999/02/22-rdf-syntax-ns#"
   xmlns:svg="http://www.w3.org/2000/svg"
   xmlns="http://www.w3.org/2000/svg"
   xmlns:xlink="http://www.w3.org/1999/xlink"
   xmlns:sodipodi="http://sodipodi.sourceforge.net/DTD/sodipodi-0.dtd"
   xmlns:inkscape="http://www.inkscape.org/namespaces/inkscape"
   width="64"
   height="64"
   id="svg2"
   version="1.1"
   sodipodi:docname="com.github.geigi.cozy2.svg"
   inkscape:version="0.92.4 5da689c313, 2019-01-14">
  <sodipodi:namedview
     pagecolor="#ffffff"
     bordercolor="#666666"
     borderopacity="1"
     objecttolerance="10"
     gridtolerance="10"
     guidetolerance="10"
     inkscape:pageopacity="0"
     inkscape:pageshadow="2"
     inkscape:window-width="2560"
     inkscape:window-height="1386"
     id="namedview54"
     showgrid="false"
     inkscape:zoom="10.429825"
     inkscape:cx="23.016756"
     inkscape:cy="24.184031"
     inkscape:window-x="0"
     inkscape:window-y="28"
     inkscape:window-maximized="1"
     inkscape:current-layer="layer2"
     inkscape:snap-page="true"
     inkscape:snap-grids="false" />
  <defs
     id="defs4">
    <linearGradient
       id="linearGradient1174">
      <stop
         id="stop1166"
         style="stop-color:#ffffff;stop-opacity:1"
         offset="0" />
      <stop
         id="stop1168"
         style="stop-color:#ffffff;stop-opacity:0.23529412"
         offset="0.04604129" />
      <stop
         id="stop1170"
         style="stop-color:#ffffff;stop-opacity:0.15686275"
         offset="0.95056331" />
      <stop
         id="stop1172"
         style="stop-color:#ffffff;stop-opacity:0.39215687"
         offset="1" />
    </linearGradient>
    <linearGradient
       id="linearGradient899">
      <stop
         offset="0"
         style="stop-color:#f282f1;stop-opacity:1"
         id="stop1192" />
      <stop
         offset="1"
         style="stop-color:#a56de2;stop-opacity:1"
         id="stop1194" />
    </linearGradient>
    <linearGradient
       id="linearGradient6420">
      <stop
         style="stop-color:#000000;stop-opacity:1;"
         offset="0"
         id="stop6422" />
      <stop
         style="stop-color:#000000;stop-opacity:0;"
         offset="1"
         id="stop6424" />
    </linearGradient>
    <linearGradient
       id="linearGradient3688-166-749-654">
      <stop
         id="stop3088"
         style="stop-color:#181818;stop-opacity:1"
         offset="0" />
      <stop
         id="stop3090"
         style="stop-color:#181818;stop-opacity:0"
         offset="1" />
    </linearGradient>
    <linearGradient
       id="linearGradient3702-501-757-795">
      <stop
         id="stop3100"
         style="stop-color:#181818;stop-opacity:0"
         offset="0" />
      <stop
         id="stop3102"
         style="stop-color:#181818;stop-opacity:1"
         offset="0.5" />
      <stop
         id="stop3104"
         style="stop-color:#181818;stop-opacity:0"
         offset="1" />
    </linearGradient>
    <radialGradient
       r="2.5"
       fy="43.5"
       fx="4.9929786"
       cy="43.5"
       cx="4.9929786"
       gradientTransform="matrix(1.9740983,0,0,1.4,26.451271,-17.402531)"
       gradientUnits="userSpaceOnUse"
       id="radialGradient3946"
       xlink:href="#linearGradient3688-166-749-654" />
    <radialGradient
       r="2.5"
       fy="43.5"
       fx="4.9929786"
       cy="43.5"
       cx="4.9929786"
       gradientTransform="matrix(1.9740983,0,0,1.4,-21.548734,-104.39747)"
       gradientUnits="userSpaceOnUse"
       id="radialGradient3948"
       xlink:href="#linearGradient3688-166-749-654" />
    <linearGradient
       gradientTransform="matrix(0.87962965,0,0,1,2.8888916,-0.00253193)"
       y2="39.999443"
       x2="25.058096"
       y1="47.027729"
       x1="25.058096"
       gradientUnits="userSpaceOnUse"
       id="linearGradient3950"
       xlink:href="#linearGradient3702-501-757-795" />
    <radialGradient
       r="35.338131"
       fy="93.467628"
       fx="-4.0287771"
       cy="93.467628"
       cx="-4.0287771"
       gradientTransform="matrix(0.7074511,0,0,0.08489414,34.85016,115.06571)"
       gradientUnits="userSpaceOnUse"
       id="radialGradient3976"
       xlink:href="#linearGradient6420" />
    <linearGradient
       y2="48.534767"
       x2="23.99999"
       y1="6.0395865"
       x1="23.99999"
       gradientTransform="matrix(1.3648649,0,0,1.3648649,-7.256753,56.743256)"
       gradientUnits="userSpaceOnUse"
       id="linearGradient3965"
       xlink:href="#linearGradient3924" />
    <linearGradient
       id="linearGradient3924">
      <stop
         offset="0"
         style="stop-color:#ffffff;stop-opacity:1"
         id="stop3926" />
      <stop
         offset="0.06316455"
         style="stop-color:#ffffff;stop-opacity:0.23529412"
         id="stop3928" />
      <stop
         offset="0.95056331"
         style="stop-color:#ffffff;stop-opacity:0.15686275"
         id="stop3930" />
      <stop
         offset="1"
         style="stop-color:#ffffff;stop-opacity:0.39215687"
         id="stop3932" />
    </linearGradient>
    <linearGradient
       y2="124.11175"
       x2="200.66388"
       y1="6.0270019"
       x1="201.47743"
       gradientTransform="matrix(0.5,0,0,0.5,-68.738715,61.736499)"
       gradientUnits="userSpaceOnUse"
       id="linearGradient910"
       xlink:href="#linearGradient899-4" />
    <linearGradient
       id="linearGradient899-4">
      <stop
         id="stop895"
         style="stop-color:#f37329;stop-opacity:1"
         offset="0" />
      <stop
         id="stop897"
         style="stop-color:#cc3b02;stop-opacity:1"
         offset="1" />
    </linearGradient>
    <linearGradient
       gradientUnits="userSpaceOnUse"
       y2="119"
       x2="32"
       y1="1"
       x1="32"
       id="linearGradient904"
       xlink:href="#linearGradient902"
       gradientTransform="translate(-7)" />
    <linearGradient
       id="linearGradient902">
      <stop
         id="stop898"
         offset="0"
         style="stop-color:#770087;stop-opacity:1;" />
      <stop
         id="stop900"
         offset="1"
         style="stop-color:#452981;stop-opacity:1" />
    </linearGradient>
    <linearGradient
       gradientTransform="matrix(1.832495,0,0,1.8439152,-232.1758,-3.442198)"
       gradientUnits="userSpaceOnUse"
       xlink:href="#linearGradient5803"
       id="linearGradient5228-5"
       y2="55.014568"
       x2="167.98311"
       y1="10.001652"
       x1="167.98311" />
    <linearGradient
       id="linearGradient5803">
      <stop
         offset="0"
         style="stop-color:#ffffff;stop-opacity:1"
         id="stop5805" />
      <stop
         offset="1"
         style="stop-color:#fafafa;stop-opacity:1"
         id="stop5807" />
    </linearGradient>
    <linearGradient
       inkscape:collect="always"
       xlink:href="#linearGradient1174"
       id="linearGradient1154"
       x1="32.066757"
       y1="63.410389"
       x2="31.75"
       y2="122.7458"
       gradientUnits="userSpaceOnUse" />
    <linearGradient
       inkscape:collect="always"
       xlink:href="#linearGradient899-4"
       id="linearGradient1164"
       gradientUnits="userSpaceOnUse"
       gradientTransform="matrix(0.5,0,0,0.5,-68.738715,61.736499)"
       x1="201.47743"
       y1="6.0270019"
       x2="200.66388"
       y2="124.11175" />
    <mask
       maskUnits="userSpaceOnUse"
       id="mask1160">
      <rect
         style="opacity:1;vector-effect:none;fill:url(#linearGradient1164);fill-opacity:1;stroke:none;stroke-width:1;stroke-linecap:butt;stroke-linejoin:miter;stroke-miterlimit:4;stroke-dasharray:none;stroke-dashoffset:0;stroke-opacity:1"
         id="rect1162"
         y="64.750031"
         x="8.75"
         ry="2.5"
         rx="2.5"
         height="58.5"
         width="46.5" />
    </mask>
  </defs>
  <metadata
     id="metadata7">
    <rdf:RDF>
      <cc:Work
         rdf:about="">
        <dc:format>image/svg+xml</dc:format>
        <dc:type
           rdf:resource="http://purl.org/dc/dcmitype/StillImage" />
        <dc:title></dc:title>
      </cc:Work>
    </rdf:RDF>
  </metadata>
  <g
     id="Layer_3"
     transform="translate(152.73099,-79.353728)" />
  <g
     inkscape:groupmode="layer"
     id="layer1"
     inkscape:label="Layer 1"
     style="display:none"
     transform="translate(0,-64)">
    <rect
       style="opacity:0.35400008;fill:#cc3b02;fill-opacity:0.35294118;fill-rule:evenodd;stroke:none;stroke-width:1.99899995;stroke-linecap:round;stroke-linejoin:round;stroke-miterlimit:4;stroke-dasharray:none;stroke-dashoffset:0;stroke-opacity:1;paint-order:markers fill stroke"
       id="rect996"
       width="64"
       height="64"
       x="0"
       y="64"
       rx="0.117952"
       ry="0.1296155" />
  </g>
  <g
     inkscape:groupmode="layer"
     id="layer2"
     inkscape:label="Layer 2"
     transform="translate(0,-64)">
    <path
       d="m 57,123.00057 a 25,3 0 0 1 -50,0 25,3 0 1 1 50,0 z"
       id="path3041"
       style="color:#000000;display:inline;overflow:visible;visibility:visible;opacity:0.2;fill:url(#radialGradient3976);fill-opacity:1;fill-rule:nonzero;stroke:none;stroke-width:0.99999994;marker:none;enable-background:accumulate"
       inkscape:connector-curvature="0" />
    <g
       transform="matrix(1.3499995,0,0,0.27777804,-0.4000045,111.44528)"
       id="g2036"
       style="display:inline;stroke-width:2">
      <g
         transform="matrix(1.052632,0,0,1.285713,-1.263158,-13.42854)"
         id="g3712"
         style="opacity:0.4;stroke-width:2">
        <rect
           width="4.9259257"
           height="7"
           x="36.314819"
           y="39.997467"
           id="rect2801-3"
           style="fill:url(#radialGradient3946);fill-opacity:1;stroke:none;stroke-width:2" />
        <rect
           width="4.9259257"
           height="7"
           x="-11.685188"
           y="-46.997467"
           transform="scale(-1)"
           id="rect3696-6"
           style="fill:url(#radialGradient3948);fill-opacity:1;stroke:none;stroke-width:2" />
        <rect
           width="24.629629"
           height="7.0000005"
           x="11.685188"
           y="39.997467"
           id="rect3700-7"
           style="fill:url(#linearGradient3950);fill-opacity:1;stroke:none;stroke-width:2" />
      </g>
    </g>
    <rect
       width="46.5"
       height="58.5"
       rx="2.5"
       ry="2.5"
       x="8.75"
       y="64.750031"
       id="rect4897"
       style="opacity:1;vector-effect:none;fill:url(#linearGradient910);fill-opacity:1;stroke:none;stroke-width:1;stroke-linecap:butt;stroke-linejoin:miter;stroke-miterlimit:4;stroke-dasharray:none;stroke-dashoffset:0;stroke-opacity:1" />
    <rect
       style="opacity:0.5;vector-effect:none;fill:none;fill-opacity:1;stroke:#ee6c24;stroke-width:0.80125982;stroke-linecap:butt;stroke-linejoin:miter;stroke-miterlimit:4;stroke-dasharray:none;stroke-dashoffset:0;stroke-opacity:1"
       id="rect3993"
       y="64.75"
       x="8.75"
       ry="2.5"
       rx="2.5"
       height="58.5"
       width="46.5" />
    <path
       inkscape:connector-curvature="0"
       style="fill:none;stroke-width:1;fill-opacity:1;opacity:0.07;stroke:#000000;stroke-opacity:1;stroke-miterlimit:4;stroke-dasharray:none"
       d="m 32.000591,76.534892 c -0.157779,0 -0.314874,-0.0027 -0.473639,0.002 -8.670416,0.255891 -15.56705,7.357228 -15.5695,16.03142 v 3.341837 4.540081 h -0.777351 c -0.554007,0 -1.000011,0.44601 -1.000011,1.00002 v 8.83408 c 0,0.554 0.446004,1 1.000011,1 h 0.777351 0.494147 1.451187 v 1.18166 c 0,0.554 0.446003,1.00001 1.00001,1.00001 h 3.524452 c 0.554005,0 1.00001,-0.44601 1.00001,-1.00001 V 99.268576 c 0,-0.553998 -0.446005,-1.000004 -1.00001,-1.000004 h -2.428737 v -1.021495 -1.336928 h -0.03027 v -3.341837 c -0.0036,-2.381014 0.704145,-4.709406 2.03225,-6.685614 0.435054,-0.656349 0.93389,-1.266988 1.490251,-1.824236 2.476616,-2.472764 5.525756,-3.558089 8.509855,-3.535199 2.984098,-0.0229 6.033239,1.062435 8.509855,3.535199 0.55636,0.557248 1.055197,1.167887 1.49025,1.824236 1.328105,1.976208 2.035836,4.3046 2.032249,6.685614 v 3.341837 h -0.03028 v 1.336928 1.021495 h -2.428737 c -0.554005,0 -1.00001,0.446006 -1.00001,1.000004 v 13.197414 c 0,0.554 0.446005,1.00001 1.00001,1.00001 h 3.524452 c 0.554007,0 1.00001,-0.44601 1.00001,-1.00001 v -1.18165 h 1.451187 0.494147 0.777351 c 0.554007,0 1.000011,-0.44601 1.000011,-1.00001 v -8.83408 c 0,-0.55401 -0.446004,-1.00002 -1.000011,-1.00002 h -0.77735 v -4.540081 -3.341837 c -0.0025,-8.674192 -6.899084,-15.775526 -15.5695,-16.031416 -0.158765,-0.0047 -0.315859,-0.0019 -0.473638,-0.0019 z"
       id="path902" />
    <rect
       style="opacity:1;vector-effect:none;fill:none;fill-opacity:1;stroke:url(#linearGradient1154);stroke-width:1;stroke-linecap:butt;stroke-linejoin:miter;stroke-miterlimit:4;stroke-dasharray:none;stroke-dashoffset:0;stroke-opacity:1"
       id="rect1146"
       y="64.750031"
       x="8.75"
       ry="2.5"
       rx="2.5"
       height="58.5"
       width="46.5"
       mask="url(#mask1160)" />
    <path
       id="path900"
       d="m 32.000591,76.534892 c -0.157779,0 -0.314874,-0.0027 -0.473639,0.002 -8.670416,0.255891 -15.56705,7.357228 -15.5695,16.03142 v 3.341837 4.540081 h -0.777351 c -0.554007,0 -1.000011,0.44601 -1.000011,1.00002 v 8.83408 c 0,0.554 0.446004,1 1.000011,1 h 0.777351 0.494147 1.451187 v 1.18166 c 0,0.554 0.446003,1.00001 1.00001,1.00001 h 3.524452 c 0.554005,0 1.00001,-0.44601 1.00001,-1.00001 V 99.268576 c 0,-0.553998 -0.446005,-1.000004 -1.00001,-1.000004 h -2.428737 v -1.021495 -1.336928 h -0.03027 v -3.341837 c -0.0036,-2.381014 0.704145,-4.709406 2.03225,-6.685614 0.435054,-0.656349 0.93389,-1.266988 1.490251,-1.824236 2.476616,-2.472764 5.525756,-3.558089 8.509855,-3.535199 2.984098,-0.0229 6.033239,1.062435 8.509855,3.535199 0.55636,0.557248 1.055197,1.167887 1.49025,1.824236 1.328105,1.976208 2.035836,4.3046 2.032249,6.685614 v 3.341837 h -0.03028 v 1.336928 1.021495 h -2.428737 c -0.554005,0 -1.00001,0.446006 -1.00001,1.000004 v 13.197414 c 0,0.554 0.446005,1.00001 1.00001,1.00001 h 3.524452 c 0.554007,0 1.00001,-0.44601 1.00001,-1.00001 v -1.18165 h 1.451187 0.494147 0.777351 c 0.554007,0 1.000011,-0.44601 1.000011,-1.00001 v -8.83408 c 0,-0.55401 -0.446004,-1.00002 -1.000011,-1.00002 h -0.77735 v -4.540081 -3.341837 c -0.0025,-8.674192 -6.899084,-15.775526 -15.5695,-16.031416 -0.158765,-0.0047 -0.315859,-0.0019 -0.473638,-0.0019 z"
       style="fill:#1b1b1b;stroke-width:4.00004196;fill-opacity:1;opacity:0.15"
       inkscape:connector-curvature="0" />
    <path
       inkscape:connector-curvature="0"
       style="fill:#fafafa;stroke-width:3.99998593"
       d="m 32.000341,75.53505 c -0.157777,0 -0.31487,-0.0027 -0.473632,0.002 -8.670295,0.255887 -15.566832,7.357125 -15.569282,16.031195 v 3.34179 4.54002 h -0.77734 c -0.553999,0 -0.999997,0.446 -0.999997,1.000005 v 8.83395 c 0,0.554 0.445998,0.99999 0.999997,0.99999 h 0.77734 0.49414 1.451167 v 1.18164 c 0,0.554 0.445997,1 0.999996,1 h 3.524402 c 0.553998,0 0.999996,-0.446 0.999996,-1 V 98.268415 c 0,-0.55399 -0.445998,-0.99999 -0.999996,-0.99999 h -2.428703 v -1.02148 -1.33691 h -0.03027 v -3.34179 c -0.0036,-2.38098 0.704135,-4.70934 2.032221,-6.68552 0.435048,-0.65634 0.933877,-1.26697 1.49023,-1.82421 2.476582,-2.47273 5.525679,-3.55804 8.509736,-3.53515 2.984056,-0.0229 6.033154,1.06242 8.509736,3.53515 0.556352,0.55724 1.055182,1.16787 1.490229,1.82421 1.328086,1.97618 2.035807,4.30454 2.03222,6.68552 v 3.34179 h -0.03028 v 1.33691 1.02148 h -2.428703 c -0.553998,0 -0.999996,0.446 -0.999996,0.99999 v 13.197225 c 0,0.554 0.445998,1 0.999996,1 h 3.524402 c 0.553999,0 0.999996,-0.446 0.999996,-1 v -1.18163 h 1.451167 0.49414 0.77734 c 0.553999,0 0.999997,-0.446 0.999997,-1 v -8.83395 c 0,-0.554005 -0.445998,-1.000005 -0.999997,-1.000005 h -0.777339 v -4.54002 -3.34179 c -0.0025,-8.67407 -6.898987,-15.775305 -15.569282,-16.031191 -0.158762,-0.0047 -0.315854,-0.0019 -0.473631,-0.0019 z"
       id="path1462-8" />
  </g>
  <g
     inkscape:groupmode="layer"
     id="layer3"
     inkscape:label="Layer 3"
     transform="translate(0,-64)">
    <path
       d="m 15,75.25 h 3.113837 z m 3.570532,0 h 2.906247 z m 3.362943,0 h 2.574106 z m 2.989285,0 h 1.120981 z m 1.577677,0 h 2.491069 z m 2.989283,0 h 6.559816 z m 6.974994,0 h 5.023657 z m 5.438836,0 h 1.536159 z M 15,78.25 h 4.857585 z m 5.397316,0 h 2.324998 z m 2.740176,0 h 1.1625 z m 1.619196,0 h 2.117408 z m 2.574104,0 h 2.158927 z m 2.574106,0 h 3.445979 z m 3.902675,0 h 4.483925 z m 4.899104,0 h 2.989283 z m 3.404461,0 H 42.85846 Z M 15,81.229312 h 4.110264 z m 4.525442,0 h 6.725887 z m 7.141066,0 h 3.279907 z m 3.695086,0 h 3.072319 z m 3.487497,0 h 2.615623 z m 3.030801,0 4.110265,0.04138 z m 4.483925,0.04138 h 6.684369 z M 15,84.25 h 5.687941 z m 6.144637,0 h 6.144638 z m 6.559816,0 h 2.449552 z m 2.86473,0 h 5.770978 z m 6.144638,0 h 3.944193 z m 4.400889,0 h 1.577678 z m 1.992855,0 h 0.871875 z m 1.328571,0 h 2.449552 z M 15,87.25 h 2.117409 z m 2.781694,0 h 7.846868 z M 15,92.25 h 3.113837 z m 3.570532,0 h 2.86473 z m 3.362943,0 h 2.574106 z m 2.989285,0 h 1.120981 z m 1.577677,0 h 2.491069 z m 2.989283,0 h 6.518297 z m 6.974994,0 h 4.982139 z m 5.397317,0 h 1.577678 z m 1.992856,0 h 3.736604 z M 15,95.25 h 5.231244 z m 5.646423,0 h 5.604906 z m 6.020085,0 h 2.158926 z m 2.574105,0 h 5.272764 z m 5.687941,0 h 6.642852 z m 7.099548,0 h 2.449552 z M 15,98.25 h 5.687941 z m 6.144637,0 h 6.144638 z m 6.559816,0 h 2.449552 z m 2.86473,0 h 5.770978 z m 6.144638,0 h 3.944193 z m 4.400889,0 h 1.577678 z m 1.992855,0 h 0.871875 z m 1.328571,0 h 2.449552 z M 15,101.25 h 4.857585 z m 5.397316,0 h 2.324998 z m 2.740176,0 h 1.1625 z m 1.619196,0 h 2.117408 z m 2.574104,0 h 2.158927 z m 2.574106,0 h 3.445979 z m 3.902675,0 h 4.483925 z m 4.899104,0 h 2.989283 z m 3.404461,0 H 42.85846 Z M 15,106.22932 h 4.110264 z m 4.525442,0 h 6.725887 z m 7.141066,0 h 3.279907 z m 3.695086,0 h 3.072319 z m 3.487497,0 h 2.615623 z m 3.030801,0 4.110265,0.0414 z m 4.483925,0.0414 h 6.684369 z M 15,109.25 h 4.857585 z m 5.397316,0 h 2.324998 z m 2.740176,0 h 1.1625 z m 1.619196,0 h 2.117408 z m 2.574104,0 h 2.158927 z m 2.574106,0 h 3.445979 z m 3.902675,0 h 4.483925 z m 4.899104,0 h 2.989283 z m 3.404461,0 H 42.85846 Z M 15,112.25 h 5.148209 z m 5.604905,0 h 1.619196 z m 2.034374,0 h 3.695086 z m 4.110264,0 h 5.438835 z m 5.895531,0 h 3.695087 z m 4.068747,0 h 0.788838 z m 1.204017,0 h 4.691514 z m 5.189727,0 h 2.449552 z M 15,115.25 h 5.148209 z m 5.604905,0 h 2.324999 z m 2.740176,0 h 3.653569 z m 4.068747,0 h 3.944193 z m 4.400889,0 h 1.577678 z m 1.992856,0 h 0.871874 z m 1.328571,0 h 2.449551 z"
       id="path3475"
       style="opacity:0.7;fill:none;stroke:#fafafa;stroke-width:1px;stroke-linecap:butt;stroke-linejoin:miter;stroke-opacity:0.49710987"
       inkscape:connector-curvature="0" />
  </g>
</svg>
