<?xml version="1.0" encoding="utf-8"?>
<!-- Generator: Adobe Illustrator 16.0.0, SVG Export Plug-In . SVG Version: 6.00 Build 0)  -->
<!DOCTYPE svg PUBLIC "-//W3C//DTD SVG 1.1//EN" "http://www.w3.org/Graphics/SVG/1.1/DTD/svg11.dtd">
<svg version="1.1"
	 id="svg8" xmlns:dc="http://purl.org/dc/elements/1.1/" xmlns:cc="http://creativecommons.org/ns#" xmlns:rdf="http://www.w3.org/1999/02/22-rdf-syntax-ns#" xmlns:svg="http://www.w3.org/2000/svg"
	 xmlns="http://www.w3.org/2000/svg" xmlns:xlink="http://www.w3.org/1999/xlink" x="0px" y="0px" width="64px" height="64px"
	 viewBox="0 0 64 64" enable-background="new 0 0 64 64" xml:space="preserve">
<g id="layer1" transform="translate(0,-280.06666)">
	<circle id="path4504" fill="#383838" fill-opacity="0.82" cx="32" cy="312.067" r="32"/>
</g>
<path fill="#FFFFFF" stroke="#FFFFFF" stroke-width="1.3229" stroke-linejoin="round" stroke-miterlimit="31.1" d="M27,48.941
	C27,49.527,25.992,50,24.75,50h-4.5C19.008,50,18,49.527,18,48.941V15.058C18,14.474,19.008,14,20.25,14h4.5
	c1.242,0,2.25,0.474,2.25,1.058V48.941z"/>
<path fill="#FFFFFF" stroke="#FFFFFF" stroke-width="1.3229" stroke-linejoin="round" stroke-miterlimit="31.1" d="M46,48.941
	C46,49.527,44.991,50,43.75,50h-4.5C38.009,50,37,49.527,37,48.941V15.058C37,14.474,38.009,14,39.25,14h4.5
	c1.241,0,2.25,0.474,2.25,1.058V48.941z"/>
</svg>
