<?xml version="1.0" encoding="UTF-8" standalone="no"?>
<svg
   xmlns:dc="http://purl.org/dc/elements/1.1/"
   xmlns:cc="http://creativecommons.org/ns#"
   xmlns:rdf="http://www.w3.org/1999/02/22-rdf-syntax-ns#"
   xmlns:svg="http://www.w3.org/2000/svg"
   xmlns="http://www.w3.org/2000/svg"
   xmlns:xlink="http://www.w3.org/1999/xlink"
   xmlns:sodipodi="http://sodipodi.sourceforge.net/DTD/sodipodi-0.dtd"
   xmlns:inkscape="http://www.inkscape.org/namespaces/inkscape"
   width="128"
   height="128"
   id="svg2"
   version="1.1"
   sodipodi:docname="com.github.geigi.cozy.svg"
   inkscape:version="0.92.4 5da689c313, 2019-01-14">
  <sodipodi:namedview
     pagecolor="#ffffff"
     bordercolor="#666666"
     borderopacity="1"
     objecttolerance="10"
     gridtolerance="10"
     guidetolerance="10"
     inkscape:pageopacity="0"
     inkscape:pageshadow="2"
     inkscape:window-width="2560"
     inkscape:window-height="1386"
     id="namedview54"
     showgrid="false"
     inkscape:zoom="3.6875"
     inkscape:cx="21.732471"
     inkscape:cy="69.307735"
     inkscape:window-x="0"
     inkscape:window-y="28"
     inkscape:window-maximized="1"
     inkscape:current-layer="layer2" />
  <defs
     id="defs4">
    <linearGradient
       id="linearGradient899">
      <stop
         offset="0"
         style="stop-color:#f282f1;stop-opacity:1"
         id="stop1192" />
      <stop
         offset="1"
         style="stop-color:#a56de2;stop-opacity:1"
         id="stop1194" />
    </linearGradient>
    <linearGradient
       id="linearGradient6420">
      <stop
         style="stop-color:#000000;stop-opacity:1;"
         offset="0"
         id="stop6422" />
      <stop
         style="stop-color:#000000;stop-opacity:0;"
         offset="1"
         id="stop6424" />
    </linearGradient>
    <linearGradient
       id="linearGradient3688-166-749-654">
      <stop
         id="stop3088"
         style="stop-color:#181818;stop-opacity:1"
         offset="0" />
      <stop
         id="stop3090"
         style="stop-color:#181818;stop-opacity:0"
         offset="1" />
    </linearGradient>
    <linearGradient
       id="linearGradient3702-501-757-795">
      <stop
         id="stop3100"
         style="stop-color:#181818;stop-opacity:0"
         offset="0" />
      <stop
         id="stop3102"
         style="stop-color:#181818;stop-opacity:1"
         offset="0.5" />
      <stop
         id="stop3104"
         style="stop-color:#181818;stop-opacity:0"
         offset="1" />
    </linearGradient>
    <radialGradient
       r="2.5"
       fy="43.5"
       fx="4.9929786"
       cy="43.5"
       cx="4.9929786"
       gradientTransform="matrix(1.9740983,0,0,1.4,26.451271,-17.402531)"
       gradientUnits="userSpaceOnUse"
       id="radialGradient3946"
       xlink:href="#linearGradient3688-166-749-654" />
    <radialGradient
       r="2.5"
       fy="43.5"
       fx="4.9929786"
       cy="43.5"
       cx="4.9929786"
       gradientTransform="matrix(1.9740983,0,0,1.4,-21.548734,-104.39747)"
       gradientUnits="userSpaceOnUse"
       id="radialGradient3948"
       xlink:href="#linearGradient3688-166-749-654" />
    <linearGradient
       gradientTransform="matrix(0.87962965,0,0,1,2.8888916,-0.00253193)"
       y2="39.999443"
       x2="25.058096"
       y1="47.027729"
       x1="25.058096"
       gradientUnits="userSpaceOnUse"
       id="linearGradient3950"
       xlink:href="#linearGradient3702-501-757-795" />
    <radialGradient
       r="35.338131"
       fy="93.467628"
       fx="-4.0287771"
       cy="93.467628"
       cx="-4.0287771"
       gradientTransform="matrix(1.4149022,0,0,0.16978827,69.700321,102.13143)"
       gradientUnits="userSpaceOnUse"
       id="radialGradient3976"
       xlink:href="#linearGradient6420" />
    <linearGradient
       y2="48.534767"
       x2="23.99999"
       y1="6.0395865"
       x1="23.99999"
       gradientTransform="matrix(2.7297298,0,0,2.7297298,-14.513506,-14.513489)"
       gradientUnits="userSpaceOnUse"
       id="linearGradient3965"
       xlink:href="#linearGradient3924" />
    <linearGradient
       id="linearGradient3924">
      <stop
         offset="0"
         style="stop-color:#ffffff;stop-opacity:1"
         id="stop3926" />
      <stop
         offset="0.06316455"
         style="stop-color:#ffffff;stop-opacity:0.23529412"
         id="stop3928" />
      <stop
         offset="0.95056331"
         style="stop-color:#ffffff;stop-opacity:0.15686275"
         id="stop3930" />
      <stop
         offset="1"
         style="stop-color:#ffffff;stop-opacity:0.39215687"
         id="stop3932" />
    </linearGradient>
    <linearGradient
       y2="124.11175"
       x2="200.66388"
       y1="6.0270019"
       x1="201.47743"
       gradientTransform="translate(-137.47743,-4.527002)"
       gradientUnits="userSpaceOnUse"
       id="linearGradient910"
       xlink:href="#linearGradient899-4" />
    <linearGradient
       id="linearGradient899-4">
      <stop
         id="stop895"
         style="stop-color:#f37329;stop-opacity:1"
         offset="0" />
      <stop
         id="stop897"
         style="stop-color:#cc3b02;stop-opacity:1"
         offset="1" />
    </linearGradient>
    <linearGradient
       gradientUnits="userSpaceOnUse"
       y2="119"
       x2="32"
       y1="1"
       x1="32"
       id="linearGradient904"
       xlink:href="#linearGradient902"
       gradientTransform="translate(-7)" />
    <linearGradient
       id="linearGradient902">
      <stop
         id="stop898"
         offset="0"
         style="stop-color:#770087;stop-opacity:1;" />
      <stop
         id="stop900"
         offset="1"
         style="stop-color:#452981;stop-opacity:1" />
    </linearGradient>
    <linearGradient
       gradientTransform="matrix(1.832495,0,0,1.8439152,-232.1758,-3.442198)"
       gradientUnits="userSpaceOnUse"
       xlink:href="#linearGradient5803"
       id="linearGradient5228-5"
       y2="55.014568"
       x2="167.98311"
       y1="10.001652"
       x1="167.98311" />
    <linearGradient
       id="linearGradient5803">
      <stop
         offset="0"
         style="stop-color:#ffffff;stop-opacity:1"
         id="stop5805" />
      <stop
         offset="1"
         style="stop-color:#fafafa;stop-opacity:1"
         id="stop5807" />
    </linearGradient>
  </defs>
  <metadata
     id="metadata7">
    <rdf:RDF>
      <cc:Work
         rdf:about="">
        <dc:format>image/svg+xml</dc:format>
        <dc:type
           rdf:resource="http://purl.org/dc/dcmitype/StillImage" />
        <dc:title />
      </cc:Work>
    </rdf:RDF>
  </metadata>
  <flowRoot
     style="font-style:normal;font-weight:normal;font-size:40px;line-height:1.25;font-family:sans-serif;letter-spacing:0px;word-spacing:0px;fill:#000000;fill-opacity:1;stroke:none"
     id="flowRoot81"
     xml:space="preserve"><flowRegion
       id="flowRegion83"><rect
         y="-10.609092"
         x="-189.29451"
         height="581.07208"
         width="281.61438"
         id="rect85" /></flowRegion><flowPara
       id="flowPara87" /></flowRoot>  <g
     id="Layer_3"
     transform="translate(152.73099,-15.353728)" />
  <g
     inkscape:groupmode="layer"
     id="layer1"
     inkscape:label="Layer 1" />
  <g
     inkscape:groupmode="layer"
     id="layer2"
     inkscape:label="Layer 2">
    <path
       d="m 114,118.00114 a 50,6 0 0 1 -100,0 50,6 0 1 1 100,0 z"
       id="path3041"
       style="color:#000000;display:inline;overflow:visible;visibility:visible;opacity:0.2;fill:url(#radialGradient3976);fill-opacity:1;fill-rule:nonzero;stroke:none;stroke-width:0.99999994;marker:none;enable-background:accumulate"
       inkscape:connector-curvature="0" />
    <g
       transform="matrix(2.6999989,0,0,0.55555607,-0.800009,94.890552)"
       id="g2036"
       style="display:inline">
      <g
         transform="matrix(1.052632,0,0,1.285713,-1.263158,-13.42854)"
         id="g3712"
         style="opacity:0.4">
        <rect
           width="4.9259257"
           height="7"
           x="36.314819"
           y="39.997467"
           id="rect2801-3"
           style="fill:url(#radialGradient3946);fill-opacity:1;stroke:none;stroke-width:1" />
        <rect
           width="4.9259257"
           height="7"
           x="-11.685188"
           y="-46.997467"
           transform="scale(-1)"
           id="rect3696-6"
           style="fill:url(#radialGradient3948);fill-opacity:1;stroke:none;stroke-width:1" />
        <rect
           width="24.629629"
           height="7.0000005"
           x="11.685188"
           y="39.997467"
           id="rect3700-7"
           style="fill:url(#linearGradient3950);fill-opacity:1;stroke:none;stroke-width:1" />
      </g>
    </g>
    <rect
       width="93"
       height="117"
       rx="5"
       ry="5"
       x="17.5"
       y="1.5000637"
       id="rect4897"
       style="opacity:1;vector-effect:none;fill:url(#linearGradient910);fill-opacity:1;stroke:none;stroke-width:1;stroke-linecap:butt;stroke-linejoin:miter;stroke-miterlimit:4;stroke-dasharray:none;stroke-dashoffset:0;stroke-opacity:1" />
    <rect
       style="opacity:0.5;vector-effect:none;fill:none;fill-opacity:1;stroke:#ee6c24;stroke-width:1;stroke-linecap:butt;stroke-linejoin:miter;stroke-miterlimit:4;stroke-dasharray:none;stroke-dashoffset:0;stroke-opacity:1"
       id="rect3993"
       y="1.5000026"
       x="17.5"
       ry="5"
       rx="5"
       height="117"
       width="93" />
    <rect
       style="opacity:0.5;vector-effect:none;fill:none;fill-opacity:1;stroke:url(#linearGradient3965);stroke-width:0.99999994;stroke-linecap:round;stroke-linejoin:round;stroke-miterlimit:4;stroke-dasharray:none;stroke-dashoffset:0;stroke-opacity:1"
       id="rect6741-5-0-2-3"
       y="2.5000026"
       x="18.5"
       ry="4"
       rx="4"
       height="115"
       width="91" />
  </g>
  <g
     inkscape:groupmode="layer"
     id="layer3"
     inkscape:label="Layer 3">
    <path
       d="m 30,22.5 h 6.227673 z m 7.141065,0 h 5.812494 z m 6.725886,0 h 5.148211 z m 5.978568,0 h 2.241962 z m 3.155354,0 h 4.982139 z m 5.978566,0 h 13.119633 z m 13.949988,0 h 10.047314 z m 10.877672,0 h 3.072319 z M 30,28.5 h 9.715169 z m 10.794632,0 h 4.649996 z m 5.480353,0 h 2.324999 z m 3.238391,0 h 4.234817 z m 5.148209,0 h 4.317854 z m 5.148211,0 h 6.891958 z m 7.80535,0 h 8.96785 z m 9.798207,0 h 5.978566 z m 6.808923,0 h 1.494643 z M 30,34.458625 h 8.220527 z m 9.050885,0 h 13.451773 z m 14.28213,0 h 6.559816 z m 7.390173,0 h 6.144638 z m 6.974993,0 h 5.231246 z m 6.061603,0 8.22053,0.08275 z m 8.96785,0.08275 H 96.096373 Z M 30,40.5 h 11.375882 z m 12.289274,0 H 54.57855 Z m 13.119633,0 h 4.899104 z m 5.729459,0 h 11.541956 z m 12.289276,0 h 7.888387 z m 8.801778,0 h 3.155356 z m 3.985711,0 h 1.743749 z m 2.657142,0 h 4.899103 z M 30,46.5 h 4.234818 z m 5.563388,0 H 51.257124 Z M 30,56.5 h 6.227673 z m 7.141065,0 h 5.729459 z m 6.725886,0 h 5.148211 z m 5.978568,0 h 2.241962 z m 3.155354,0 h 4.982139 z m 5.978566,0 h 13.036596 z m 13.949988,0 h 9.964279 z m 10.794634,0 h 3.155357 z m 3.985712,0 h 7.473208 z M 30,62.5 h 10.462489 z m 11.292847,0 h 11.209811 z m 12.040168,0 h 4.317854 z m 5.148211,0 h 10.545527 z m 11.375882,0 h 13.285704 z m 14.199096,0 h 4.899104 z M 30,68.5 h 11.375882 z m 12.289274,0 H 54.57855 Z m 13.119633,0 h 4.899104 z m 5.729459,0 h 11.541956 z m 12.289276,0 h 7.888387 z m 8.801778,0 h 3.155356 z m 3.985711,0 h 1.743749 z m 2.657142,0 h 4.899103 z M 30,74.5 h 9.715169 z m 10.794632,0 h 4.649996 z m 5.480353,0 h 2.324999 z m 3.238391,0 h 4.234817 z m 5.148209,0 h 4.317854 z m 5.148211,0 h 6.891958 z m 7.80535,0 h 8.96785 z m 9.798207,0 h 5.978566 z m 6.808923,0 h 1.494643 z M 30,84.458635 h 8.220527 z m 9.050885,0 h 13.451773 z m 14.28213,0 h 6.559816 z m 7.390173,0 h 6.144638 z m 6.974993,0 h 5.231246 z m 6.061603,0 8.22053,0.08273 z m 8.96785,0.08273 H 96.096373 Z M 30,90.5 h 9.715169 z m 10.794632,0 h 4.649996 z m 5.480353,0 h 2.324999 z m 3.238391,0 h 4.234817 z m 5.148209,0 h 4.317854 z m 5.148211,0 h 6.891958 z m 7.80535,0 h 8.96785 z m 9.798207,0 h 5.978566 z m 6.808923,0 h 1.494643 z M 30,96.5 h 10.296419 z m 11.209811,0 h 3.23839 z m 4.068747,0 h 7.390172 z m 8.220528,0 h 10.877671 z m 11.791063,0 h 7.390173 z m 8.137493,0 h 1.577677 z m 2.408034,0 h 9.383028 z m 10.379455,0 h 4.899104 z M 30,102.5 h 10.296419 z m 11.209811,0 h 4.649997 z m 5.480352,0 H 53.9973 Z m 8.137494,0 h 7.888386 z m 8.801778,0 h 3.155354 z m 3.985711,0 h 1.743749 z m 2.657142,0 h 4.899103 z"
       id="path3475"
       style="fill:none;stroke:#fafafa;stroke-width:1px;stroke-linecap:butt;stroke-linejoin:miter;stroke-opacity:0.49710983;opacity:0.7" />
    <path
       style="fill:#fafafa;stroke-width:7.99999952"
       d="M 64.947445,25.259423 C 46.867565,24.725562 31.920105,39.234048 31.914969,57.321808 v 6.683609 0 h -1.336444 c -1.475236,0.0041 -2.670121,1.19903 -2.674266,2.674266 v 25.40073 c 0.0041,1.475236 1.19903,2.670121 2.674266,2.674266 l 9.416899,0 v -2.674266 h 4.010712 c 1.475236,-0.0041 2.670121,-1.199029 2.674266,-2.674265 v -20.05357 c -0.0049,-1.474701 -1.199563,-2.668754 -2.674266,-2.672895 h -4.010712 v -2.674266 l -0.05903,0 V 57.321808 C 39.950591,35.891364 65.853708,25.160182 81.019112,40.302 c 1.112709,1.114496 2.111523,2.337159 2.981621,3.649847 2.656182,3.952369 4.071405,8.607979 4.06423,13.369961 v 6.683609 h -0.0604 v 2.674266 h -4.010712 c -1.474168,0.0049 -2.668003,1.198727 -2.672896,2.672895 v 20.05357 c 0.0041,1.474703 1.198195,2.669369 2.672896,2.674265 h 4.010712 v 2.674266 h 9.419637 c 1.474703,-0.0049 2.668756,-1.199561 2.672896,-2.674266 v -25.40073 c -0.004,-1.474705 -1.198193,-2.669372 -2.672896,-2.674266 h -1.337812 v 0 -6.683609 C 96.081458,39.973608 82.288095,25.771197 64.947445,25.259423 Z"
       id="path1462"
       inkscape:connector-curvature="0"
       sodipodi:nodetypes="cccccccccccccccccccccccccccccccccccccc" />
  </g>
</svg>
