<?xml version="1.0" encoding="UTF-8" standalone="no"?>
<svg
   xmlns:dc="http://purl.org/dc/elements/1.1/"
   xmlns:cc="http://creativecommons.org/ns#"
   xmlns:rdf="http://www.w3.org/1999/02/22-rdf-syntax-ns#"
   xmlns:svg="http://www.w3.org/2000/svg"
   xmlns="http://www.w3.org/2000/svg"
   xmlns:xlink="http://www.w3.org/1999/xlink"
   xmlns:sodipodi="http://sodipodi.sourceforge.net/DTD/sodipodi-0.dtd"
   xmlns:inkscape="http://www.inkscape.org/namespaces/inkscape"
   width="128"
   height="128"
   id="svg2"
   version="1.1"
   sodipodi:docname="com.github.geigi.cozy.svg"
   inkscape:version="0.92.4 5da689c313, 2019-01-14">
  <sodipodi:namedview
     pagecolor="#ffffff"
     bordercolor="#666666"
     borderopacity="1"
     objecttolerance="10"
     gridtolerance="10"
     guidetolerance="10"
     inkscape:pageopacity="0"
     inkscape:pageshadow="2"
     inkscape:window-width="2560"
     inkscape:window-height="1386"
     id="namedview54"
     showgrid="false"
     inkscape:zoom="20.85965"
     inkscape:cx="72.615189"
     inkscape:cy="15.885564"
     inkscape:window-x="0"
     inkscape:window-y="28"
     inkscape:window-maximized="1"
     inkscape:current-layer="layer3" />
  <defs
     id="defs4">
    <linearGradient
       id="linearGradient899">
      <stop
         offset="0"
         style="stop-color:#f282f1;stop-opacity:1"
         id="stop1192" />
      <stop
         offset="1"
         style="stop-color:#a56de2;stop-opacity:1"
         id="stop1194" />
    </linearGradient>
    <linearGradient
       id="linearGradient6420">
      <stop
         style="stop-color:#000000;stop-opacity:1;"
         offset="0"
         id="stop6422" />
      <stop
         style="stop-color:#000000;stop-opacity:0;"
         offset="1"
         id="stop6424" />
    </linearGradient>
    <linearGradient
       id="linearGradient3688-166-749-654">
      <stop
         id="stop3088"
         style="stop-color:#181818;stop-opacity:1"
         offset="0" />
      <stop
         id="stop3090"
         style="stop-color:#181818;stop-opacity:0"
         offset="1" />
    </linearGradient>
    <linearGradient
       id="linearGradient3702-501-757-795">
      <stop
         id="stop3100"
         style="stop-color:#181818;stop-opacity:0"
         offset="0" />
      <stop
         id="stop3102"
         style="stop-color:#181818;stop-opacity:1"
         offset="0.5" />
      <stop
         id="stop3104"
         style="stop-color:#181818;stop-opacity:0"
         offset="1" />
    </linearGradient>
    <radialGradient
       r="2.5"
       fy="43.5"
       fx="4.9929786"
       cy="43.5"
       cx="4.9929786"
       gradientTransform="matrix(1.9740983,0,0,1.4,26.451271,-17.402531)"
       gradientUnits="userSpaceOnUse"
       id="radialGradient3946"
       xlink:href="#linearGradient3688-166-749-654" />
    <radialGradient
       r="2.5"
       fy="43.5"
       fx="4.9929786"
       cy="43.5"
       cx="4.9929786"
       gradientTransform="matrix(1.9740983,0,0,1.4,-21.548734,-104.39747)"
       gradientUnits="userSpaceOnUse"
       id="radialGradient3948"
       xlink:href="#linearGradient3688-166-749-654" />
    <linearGradient
       gradientTransform="matrix(0.87962965,0,0,1,2.8888916,-0.00253193)"
       y2="39.999443"
       x2="25.058096"
       y1="47.027729"
       x1="25.058096"
       gradientUnits="userSpaceOnUse"
       id="linearGradient3950"
       xlink:href="#linearGradient3702-501-757-795" />
    <radialGradient
       r="35.338131"
       fy="93.467628"
       fx="-4.0287771"
       cy="93.467628"
       cx="-4.0287771"
       gradientTransform="matrix(1.4149022,0,0,0.16978827,69.700321,102.13143)"
       gradientUnits="userSpaceOnUse"
       id="radialGradient3976"
       xlink:href="#linearGradient6420" />
    <linearGradient
       y2="48.534767"
       x2="23.99999"
       y1="6.0395865"
       x1="23.99999"
       gradientTransform="matrix(2.7297298,0,0,2.7297298,-14.513506,-14.513489)"
       gradientUnits="userSpaceOnUse"
       id="linearGradient3965"
       xlink:href="#linearGradient3924" />
    <linearGradient
       id="linearGradient3924">
      <stop
         offset="0"
         style="stop-color:#ffffff;stop-opacity:1"
         id="stop3926" />
      <stop
         offset="0.06316455"
         style="stop-color:#ffffff;stop-opacity:0.23529412"
         id="stop3928" />
      <stop
         offset="0.95056331"
         style="stop-color:#ffffff;stop-opacity:0.15686275"
         id="stop3930" />
      <stop
         offset="1"
         style="stop-color:#ffffff;stop-opacity:0.39215687"
         id="stop3932" />
    </linearGradient>
    <linearGradient
       y2="124.11175"
       x2="200.66388"
       y1="6.0270019"
       x1="201.47743"
       gradientTransform="translate(-137.47743,-4.527002)"
       gradientUnits="userSpaceOnUse"
       id="linearGradient910"
       xlink:href="#linearGradient899-4" />
    <linearGradient
       id="linearGradient899-4">
      <stop
         id="stop895"
         style="stop-color:#f37329;stop-opacity:1"
         offset="0" />
      <stop
         id="stop897"
         style="stop-color:#cc3b02;stop-opacity:1"
         offset="1" />
    </linearGradient>
    <linearGradient
       gradientUnits="userSpaceOnUse"
       y2="119"
       x2="32"
       y1="1"
       x1="32"
       id="linearGradient904"
       xlink:href="#linearGradient902"
       gradientTransform="translate(-7)" />
    <linearGradient
       id="linearGradient902">
      <stop
         id="stop898"
         offset="0"
         style="stop-color:#770087;stop-opacity:1;" />
      <stop
         id="stop900"
         offset="1"
         style="stop-color:#452981;stop-opacity:1" />
    </linearGradient>
    <linearGradient
       gradientTransform="matrix(1.832495,0,0,1.8439152,-232.1758,-3.442198)"
       gradientUnits="userSpaceOnUse"
       xlink:href="#linearGradient5803"
       id="linearGradient5228-5"
       y2="55.014568"
       x2="167.98311"
       y1="10.001652"
       x1="167.98311" />
    <linearGradient
       id="linearGradient5803">
      <stop
         offset="0"
         style="stop-color:#ffffff;stop-opacity:1"
         id="stop5805" />
      <stop
         offset="1"
         style="stop-color:#fafafa;stop-opacity:1"
         id="stop5807" />
    </linearGradient>
  </defs>
  <metadata
     id="metadata7">
    <rdf:RDF>
      <cc:Work
         rdf:about="">
        <dc:format>image/svg+xml</dc:format>
        <dc:type
           rdf:resource="http://purl.org/dc/dcmitype/StillImage" />
        <dc:title />
      </cc:Work>
    </rdf:RDF>
  </metadata>
  <g
     id="Layer_3"
     transform="translate(152.73099,-15.353728)" />
  <g
     inkscape:groupmode="layer"
     id="layer1"
     inkscape:label="Layer 1" />
  <g
     inkscape:groupmode="layer"
     id="layer2"
     inkscape:label="Layer 2">
    <path
       d="m 114,118.00114 a 50,6 0 0 1 -100,0 50,6 0 1 1 100,0 z"
       id="path3041"
       style="color:#000000;display:inline;overflow:visible;visibility:visible;opacity:0.2;fill:url(#radialGradient3976);fill-opacity:1;fill-rule:nonzero;stroke:none;stroke-width:0.99999994;marker:none;enable-background:accumulate"
       inkscape:connector-curvature="0" />
    <g
       transform="matrix(2.6999989,0,0,0.55555607,-0.800009,94.890552)"
       id="g2036"
       style="display:inline">
      <g
         transform="matrix(1.052632,0,0,1.285713,-1.263158,-13.42854)"
         id="g3712"
         style="opacity:0.4">
        <rect
           width="4.9259257"
           height="7"
           x="36.314819"
           y="39.997467"
           id="rect2801-3"
           style="fill:url(#radialGradient3946);fill-opacity:1;stroke:none;stroke-width:1" />
        <rect
           width="4.9259257"
           height="7"
           x="-11.685188"
           y="-46.997467"
           transform="scale(-1)"
           id="rect3696-6"
           style="fill:url(#radialGradient3948);fill-opacity:1;stroke:none;stroke-width:1" />
        <rect
           width="24.629629"
           height="7.0000005"
           x="11.685188"
           y="39.997467"
           id="rect3700-7"
           style="fill:url(#linearGradient3950);fill-opacity:1;stroke:none;stroke-width:1" />
      </g>
    </g>
    <rect
       width="93"
       height="117"
       rx="5"
       ry="5"
       x="17.5"
       y="1.5000637"
       id="rect4897"
       style="opacity:1;vector-effect:none;fill:url(#linearGradient910);fill-opacity:1;stroke:none;stroke-width:1;stroke-linecap:butt;stroke-linejoin:miter;stroke-miterlimit:4;stroke-dasharray:none;stroke-dashoffset:0;stroke-opacity:1" />
    <rect
       style="opacity:0.5;vector-effect:none;fill:none;fill-opacity:1;stroke:#ee6c24;stroke-width:1;stroke-linecap:butt;stroke-linejoin:miter;stroke-miterlimit:4;stroke-dasharray:none;stroke-dashoffset:0;stroke-opacity:1"
       id="rect3993"
       y="1.5000026"
       x="17.5"
       ry="5"
       rx="5"
       height="117"
       width="93" />
    <rect
       style="opacity:0.5;vector-effect:none;fill:none;fill-opacity:1;stroke:url(#linearGradient3965);stroke-width:0.99999994;stroke-linecap:round;stroke-linejoin:round;stroke-miterlimit:4;stroke-dasharray:none;stroke-dashoffset:0;stroke-opacity:1"
       id="rect6741-5-0-2-3"
       y="2.5000026"
       x="18.5"
       ry="4"
       rx="4"
       height="115"
       width="91" />
  </g>
  <g
     inkscape:groupmode="layer"
     id="layer3"
     inkscape:label="Layer 3">
    <path
       d="m 30,22.5 h 6.227673 z m 7.141065,0 h 5.812494 z m 6.725886,0 h 5.148211 z m 5.978568,0 h 2.241962 z m 3.155354,0 h 4.982139 z m 5.978566,0 h 13.119633 z m 13.949988,0 h 10.047314 z m 10.877672,0 h 3.072319 z M 30,28.5 h 9.715169 z m 10.794632,0 h 4.649996 z m 5.480353,0 h 2.324999 z m 3.238391,0 h 4.234817 z m 5.148209,0 h 4.317854 z m 5.148211,0 h 6.891958 z m 7.80535,0 h 8.96785 z m 9.798207,0 h 5.978566 z m 6.808923,0 h 1.494643 z M 30,34.458625 h 8.220527 z m 9.050885,0 h 13.451773 z m 14.28213,0 h 6.559816 z m 7.390173,0 h 6.144638 z m 6.974993,0 h 5.231246 z m 6.061603,0 8.22053,0.08275 z m 8.96785,0.08275 H 96.096373 Z M 30,40.5 h 11.375882 z m 12.289274,0 H 54.57855 Z m 13.119633,0 h 4.899104 z m 5.729459,0 h 11.541956 z m 12.289276,0 h 7.888387 z m 8.801778,0 h 3.155356 z m 3.985711,0 h 1.743749 z m 2.657142,0 h 4.899103 z M 30,46.5 h 4.234818 z m 5.563388,0 H 51.257124 Z M 30,56.5 h 6.227673 z m 7.141065,0 h 5.729459 z m 6.725886,0 h 5.148211 z m 5.978568,0 h 2.241962 z m 3.155354,0 h 4.982139 z m 5.978566,0 h 13.036596 z m 13.949988,0 h 9.964279 z m 10.794634,0 h 3.155357 z m 3.985712,0 h 7.473208 z M 30,62.5 h 10.462489 z m 11.292847,0 h 11.209811 z m 12.040168,0 h 4.317854 z m 5.148211,0 h 10.545527 z m 11.375882,0 h 13.285704 z m 14.199096,0 h 4.899104 z M 30,68.5 h 11.375882 z m 12.289274,0 H 54.57855 Z m 13.119633,0 h 4.899104 z m 5.729459,0 h 11.541956 z m 12.289276,0 h 7.888387 z m 8.801778,0 h 3.155356 z m 3.985711,0 h 1.743749 z m 2.657142,0 h 4.899103 z M 30,74.5 h 9.715169 z m 10.794632,0 h 4.649996 z m 5.480353,0 h 2.324999 z m 3.238391,0 h 4.234817 z m 5.148209,0 h 4.317854 z m 5.148211,0 h 6.891958 z m 7.80535,0 h 8.96785 z m 9.798207,0 h 5.978566 z m 6.808923,0 h 1.494643 z M 30,84.458635 h 8.220527 z m 9.050885,0 h 13.451773 z m 14.28213,0 h 6.559816 z m 7.390173,0 h 6.144638 z m 6.974993,0 h 5.231246 z m 6.061603,0 8.22053,0.08273 z m 8.96785,0.08273 H 96.096373 Z M 30,90.5 h 9.715169 z m 10.794632,0 h 4.649996 z m 5.480353,0 h 2.324999 z m 3.238391,0 h 4.234817 z m 5.148209,0 h 4.317854 z m 5.148211,0 h 6.891958 z m 7.80535,0 h 8.96785 z m 9.798207,0 h 5.978566 z m 6.808923,0 h 1.494643 z M 30,96.5 h 10.296419 z m 11.209811,0 h 3.23839 z m 4.068747,0 h 7.390172 z m 8.220528,0 h 10.877671 z m 11.791063,0 h 7.390173 z m 8.137493,0 h 1.577677 z m 2.408034,0 h 9.383028 z m 10.379455,0 h 4.899104 z M 30,102.5 h 10.296419 z m 11.209811,0 h 4.649997 z m 5.480352,0 H 53.9973 Z m 8.137494,0 h 7.888386 z m 8.801778,0 h 3.155354 z m 3.985711,0 h 1.743749 z m 2.657142,0 h 4.899103 z"
       id="path3475"
       style="fill:none;stroke:#fafafa;stroke-width:1px;stroke-linecap:butt;stroke-linejoin:miter;stroke-opacity:0.49710983;opacity:0.7" />
    <g
       id="g879">
      <path
         inkscape:connector-curvature="0"
         style="fill:#000000;stroke-width:7.99999952;fill-opacity:1;opacity:0.15"
         d="m 64,26.255671 c -0.315555,0 -0.629741,-0.0055 -0.947266,0.0039 -17.34065,0.511774 -31.133772,14.7143 -31.138672,32.0625 v 6.683593 9.080079 h -1.554687 c -1.108,0 -2,0.891998 -2,2 v 17.667968 c 0,1.108 0.892,2 2,2 h 1.554687 0.988282 2.902344 V 98.117 c 0,1.108 0.891998,2 2,2 h 7.048828 c 1.108,0 2,-0.892 2,-2 V 71.722468 c 0,-1.108 -0.892,-2 -2,-2 H 39.996094 V 67.6795 65.005671 h -0.06055 V 58.322078 C 39.928372,53.560096 41.343818,48.903353 44,44.950984 44.870098,43.638296 45.86776,42.417042 46.980469,41.302546 51.93365,36.357068 58.031866,34.186444 64,34.232234 c 5.968134,-0.04579 12.06635,2.124834 17.019531,7.070312 1.112709,1.114496 2.110371,2.33575 2.980469,3.648438 2.656182,3.952369 4.071628,8.609112 4.064453,13.371094 v 6.683593 h -0.06055 v 2.673829 2.042968 h -4.857422 c -1.108,0 -2,0.892 -2,2 V 98.117 c 0,1.108 0.892,2 2,2 h 7.048828 c 1.108002,0 2,-0.892 2,-2 v -2.363282 h 2.902344 0.988282 1.554687 c 1.108,0 2,-0.892 2,-2 V 76.08575 c 0,-1.108002 -0.892,-2 -2,-2 h -1.554687 v -9.080079 -6.683593 c -0.0049,-17.3482 -13.798022,-31.550726 -31.138672,-32.0625 -0.317525,-0.0094 -0.631711,-0.0039 -0.947266,-0.0039 z"
         id="path909" />
      <path
         id="path911"
         d="m 64,26.255671 c -0.315555,0 -0.629741,-0.0055 -0.947266,0.0039 -17.34065,0.511774 -31.133772,14.7143 -31.138672,32.0625 v 6.683593 9.080079 h -1.554687 c -1.108,0 -2,0.891998 -2,2 v 17.667968 c 0,1.108 0.892,2 2,2 h 1.554687 0.988282 2.902344 V 98.117 c 0,1.108 0.891998,2 2,2 h 7.048828 c 1.108,0 2,-0.892 2,-2 V 71.722468 c 0,-1.108 -0.892,-2 -2,-2 H 39.996094 V 67.6795 65.005671 h -0.06055 V 58.322078 C 39.928372,53.560096 41.343818,48.903353 44,44.950984 44.870098,43.638296 45.86776,42.417042 46.980469,41.302546 51.93365,36.357068 58.031866,34.186444 64,34.232234 c 5.968134,-0.04579 12.06635,2.124834 17.019531,7.070312 1.112709,1.114496 2.110371,2.33575 2.980469,3.648438 2.656182,3.952369 4.071628,8.609112 4.064453,13.371094 v 6.683593 h -0.06055 v 2.673829 2.042968 h -4.857422 c -1.108,0 -2,0.892 -2,2 V 98.117 c 0,1.108 0.892,2 2,2 h 7.048828 c 1.108002,0 2,-0.892 2,-2 v -2.363282 h 2.902344 0.988282 1.554687 c 1.108,0 2,-0.892 2,-2 V 76.08575 c 0,-1.108002 -0.892,-2 -2,-2 h -1.554687 v -9.080079 -6.683593 c -0.0049,-17.3482 -13.798022,-31.550726 -31.138672,-32.0625 -0.317525,-0.0094 -0.631711,-0.0039 -0.947266,-0.0039 z"
         style="fill:none;stroke-width:1;fill-opacity:1;opacity:0.07;stroke:#000000;stroke-opacity:1;stroke-miterlimit:4;stroke-dasharray:none"
         inkscape:connector-curvature="0" />
      <path
         id="path1462"
         d="M 64 25.255859 C 63.684445 25.255859 63.370259 25.250366 63.052734 25.259766 C 45.712084 25.77154 31.918962 39.974066 31.914062 57.322266 L 31.914062 64.005859 L 31.914062 73.085938 L 30.359375 73.085938 C 29.251375 73.085938 28.359375 73.977936 28.359375 75.085938 L 28.359375 92.753906 C 28.359375 93.861906 29.251375 94.753906 30.359375 94.753906 L 31.914062 94.753906 L 32.902344 94.753906 L 35.804688 94.753906 L 35.804688 97.117188 C 35.804688 98.225188 36.696686 99.117188 37.804688 99.117188 L 44.853516 99.117188 C 45.961516 99.117188 46.853516 98.225188 46.853516 97.117188 L 46.853516 70.722656 C 46.853516 69.614656 45.961516 68.722656 44.853516 68.722656 L 39.996094 68.722656 L 39.996094 66.679688 L 39.996094 64.005859 L 39.935547 64.005859 L 39.935547 57.322266 C 39.928372 52.560284 41.343818 47.903541 44 43.951172 C 44.870098 42.638484 45.86776 41.41723 46.980469 40.302734 C 51.93365 35.357256 58.031866 33.186632 64 33.232422 C 69.968134 33.186631 76.06635 35.357256 81.019531 40.302734 C 82.13224 41.41723 83.129902 42.638484 84 43.951172 C 86.656182 47.903541 88.071628 52.560284 88.064453 57.322266 L 88.064453 64.005859 L 88.003906 64.005859 L 88.003906 66.679688 L 88.003906 68.722656 L 83.146484 68.722656 C 82.038484 68.722656 81.146484 69.614656 81.146484 70.722656 L 81.146484 97.117188 C 81.146484 98.225188 82.038484 99.117188 83.146484 99.117188 L 90.195312 99.117188 C 91.303314 99.117188 92.195312 98.225188 92.195312 97.117188 L 92.195312 94.753906 L 95.097656 94.753906 L 96.085938 94.753906 L 97.640625 94.753906 C 98.748625 94.753906 99.640625 93.861906 99.640625 92.753906 L 99.640625 75.085938 C 99.640625 73.977936 98.748625 73.085938 97.640625 73.085938 L 96.085938 73.085938 L 96.085938 64.005859 L 96.085938 57.322266 C 96.081036 39.974066 82.287916 25.77154 64.947266 25.259766 C 64.629741 25.250392 64.315555 25.255896 64 25.255859 z "
         style="fill:#fafafa;stroke-width:7.99999952" />
    </g>
  </g>
</svg>
