<?xml version="1.0" encoding="UTF-8" standalone="no"?>
<svg
   xmlns:dc="http://purl.org/dc/elements/1.1/"
   xmlns:cc="http://creativecommons.org/ns#"
   xmlns:rdf="http://www.w3.org/1999/02/22-rdf-syntax-ns#"
   xmlns:svg="http://www.w3.org/2000/svg"
   xmlns="http://www.w3.org/2000/svg"
   xmlns:xlink="http://www.w3.org/1999/xlink"
   xmlns:sodipodi="http://sodipodi.sourceforge.net/DTD/sodipodi-0.dtd"
   xmlns:inkscape="http://www.inkscape.org/namespaces/inkscape"
   width="24"
   height="24"
   id="svg2"
   version="1.1"
   sodipodi:docname="com.github.geigi.cozy2.svg"
   inkscape:version="0.92.4 5da689c313, 2019-01-14">
  <sodipodi:namedview
     pagecolor="#ffffff"
     bordercolor="#666666"
     borderopacity="1"
     objecttolerance="10"
     gridtolerance="10"
     guidetolerance="10"
     inkscape:pageopacity="0"
     inkscape:pageshadow="2"
     inkscape:window-width="2560"
     inkscape:window-height="1386"
     id="namedview54"
     showgrid="false"
     inkscape:zoom="7.375"
     inkscape:cx="0.83240647"
     inkscape:cy="-14.327678"
     inkscape:window-x="0"
     inkscape:window-y="28"
     inkscape:window-maximized="1"
     inkscape:current-layer="layer2"
     inkscape:snap-page="true"
     inkscape:snap-grids="false" />
  <defs
     id="defs4">
    <linearGradient
       id="linearGradient1174">
      <stop
         id="stop1166"
         style="stop-color:#ffffff;stop-opacity:1"
         offset="0" />
      <stop
         id="stop1168"
         style="stop-color:#ffffff;stop-opacity:0.23529412"
         offset="0.04604129" />
      <stop
         id="stop1170"
         style="stop-color:#ffffff;stop-opacity:0.15686275"
         offset="0.95056331" />
      <stop
         id="stop1172"
         style="stop-color:#ffffff;stop-opacity:0.39215687"
         offset="1" />
    </linearGradient>
    <linearGradient
       id="linearGradient899">
      <stop
         offset="0"
         style="stop-color:#f282f1;stop-opacity:1"
         id="stop1192" />
      <stop
         offset="1"
         style="stop-color:#a56de2;stop-opacity:1"
         id="stop1194" />
    </linearGradient>
    <linearGradient
       id="linearGradient6420">
      <stop
         style="stop-color:#000000;stop-opacity:1;"
         offset="0"
         id="stop6422" />
      <stop
         style="stop-color:#000000;stop-opacity:0;"
         offset="1"
         id="stop6424" />
    </linearGradient>
    <linearGradient
       id="linearGradient3688-166-749-654">
      <stop
         id="stop3088"
         style="stop-color:#181818;stop-opacity:1"
         offset="0" />
      <stop
         id="stop3090"
         style="stop-color:#181818;stop-opacity:0"
         offset="1" />
    </linearGradient>
    <linearGradient
       id="linearGradient3702-501-757-795">
      <stop
         id="stop3100"
         style="stop-color:#181818;stop-opacity:0"
         offset="0" />
      <stop
         id="stop3102"
         style="stop-color:#181818;stop-opacity:1"
         offset="0.5" />
      <stop
         id="stop3104"
         style="stop-color:#181818;stop-opacity:0"
         offset="1" />
    </linearGradient>
    <radialGradient
       r="2.5"
       fy="43.5"
       fx="4.9929786"
       cy="43.5"
       cx="4.9929786"
       gradientTransform="matrix(1.9740983,0,0,1.4,26.451271,-17.402531)"
       gradientUnits="userSpaceOnUse"
       id="radialGradient3946"
       xlink:href="#linearGradient3688-166-749-654" />
    <radialGradient
       r="2.5"
       fy="43.5"
       fx="4.9929786"
       cy="43.5"
       cx="4.9929786"
       gradientTransform="matrix(1.9740983,0,0,1.4,-21.548734,-104.39747)"
       gradientUnits="userSpaceOnUse"
       id="radialGradient3948"
       xlink:href="#linearGradient3688-166-749-654" />
    <linearGradient
       gradientTransform="matrix(0.87962965,0,0,1,2.8888916,-0.00253193)"
       y2="39.999443"
       x2="25.058096"
       y1="47.027729"
       x1="25.058096"
       gradientUnits="userSpaceOnUse"
       id="linearGradient3950"
       xlink:href="#linearGradient3702-501-757-795" />
    <radialGradient
       r="35.338131"
       fy="93.467628"
       fx="-4.0287771"
       cy="93.467628"
       cx="-4.0287771"
       gradientTransform="matrix(0.26529419,0,0,0.03041147,13.068811,123.98977)"
       gradientUnits="userSpaceOnUse"
       id="radialGradient3976"
       xlink:href="#linearGradient6420" />
    <linearGradient
       y2="48.534767"
       x2="23.99999"
       y1="6.0395865"
       x1="23.99999"
       gradientTransform="matrix(1.3648649,0,0,1.3648649,-7.256753,56.743256)"
       gradientUnits="userSpaceOnUse"
       id="linearGradient3965"
       xlink:href="#linearGradient3924" />
    <linearGradient
       id="linearGradient3924">
      <stop
         offset="0"
         style="stop-color:#ffffff;stop-opacity:1"
         id="stop3926" />
      <stop
         offset="0.06316455"
         style="stop-color:#ffffff;stop-opacity:0.23529412"
         id="stop3928" />
      <stop
         offset="0.95056331"
         style="stop-color:#ffffff;stop-opacity:0.15686275"
         id="stop3930" />
      <stop
         offset="1"
         style="stop-color:#ffffff;stop-opacity:0.39215687"
         id="stop3932" />
    </linearGradient>
    <linearGradient
       y2="124.11175"
       x2="200.66388"
       y1="6.0270019"
       x1="201.47743"
       gradientTransform="matrix(0.18750002,0,0,0.18735364,-25.77702,103.92563)"
       gradientUnits="userSpaceOnUse"
       id="linearGradient910"
       xlink:href="#linearGradient899-4" />
    <linearGradient
       id="linearGradient899-4">
      <stop
         id="stop895"
         style="stop-color:#f37329;stop-opacity:1"
         offset="0" />
      <stop
         id="stop897"
         style="stop-color:#cc3b02;stop-opacity:1"
         offset="1" />
    </linearGradient>
    <linearGradient
       gradientUnits="userSpaceOnUse"
       y2="119"
       x2="32"
       y1="1"
       x1="32"
       id="linearGradient904"
       xlink:href="#linearGradient902"
       gradientTransform="translate(-7)" />
    <linearGradient
       id="linearGradient902">
      <stop
         id="stop898"
         offset="0"
         style="stop-color:#770087;stop-opacity:1;" />
      <stop
         id="stop900"
         offset="1"
         style="stop-color:#452981;stop-opacity:1" />
    </linearGradient>
    <linearGradient
       gradientTransform="matrix(1.832495,0,0,1.8439152,-232.1758,-3.442198)"
       gradientUnits="userSpaceOnUse"
       xlink:href="#linearGradient5803"
       id="linearGradient5228-5"
       y2="55.014568"
       x2="167.98311"
       y1="10.001652"
       x1="167.98311" />
    <linearGradient
       id="linearGradient5803">
      <stop
         offset="0"
         style="stop-color:#ffffff;stop-opacity:1"
         id="stop5805" />
      <stop
         offset="1"
         style="stop-color:#fafafa;stop-opacity:1"
         id="stop5807" />
    </linearGradient>
    <linearGradient
       inkscape:collect="always"
       xlink:href="#linearGradient1174"
       id="linearGradient1154"
       x1="32.066757"
       y1="63.410389"
       x2="31.75"
       y2="122.7458"
       gradientUnits="userSpaceOnUse" />
    <linearGradient
       inkscape:collect="always"
       xlink:href="#linearGradient899-4"
       id="linearGradient1164"
       gradientUnits="userSpaceOnUse"
       gradientTransform="matrix(0.5,0,0,0.5,-68.738715,61.736499)"
       x1="201.47743"
       y1="6.0270019"
       x2="200.66388"
       y2="124.11175" />
    <mask
       maskUnits="userSpaceOnUse"
       id="mask1160">
      <rect
         style="opacity:1;vector-effect:none;fill:url(#linearGradient1164);fill-opacity:1;stroke:none;stroke-width:1;stroke-linecap:butt;stroke-linejoin:miter;stroke-miterlimit:4;stroke-dasharray:none;stroke-dashoffset:0;stroke-opacity:1"
         id="rect1162"
         y="64.750031"
         x="8.75"
         ry="2.5"
         rx="2.5"
         height="58.5"
         width="46.5" />
    </mask>
    <radialGradient
       xlink:href="#linearGradient3688-166-749-654"
       id="radialGradient3946-7"
       gradientUnits="userSpaceOnUse"
       gradientTransform="matrix(1.9740983,0,0,1.4,26.451271,-17.402531)"
       cx="4.9929786"
       cy="43.5"
       fx="4.9929786"
       fy="43.5"
       r="2.5" />
    <radialGradient
       xlink:href="#linearGradient3688-166-749-654"
       id="radialGradient3948-2"
       gradientUnits="userSpaceOnUse"
       gradientTransform="matrix(1.9740983,0,0,1.4,-21.548734,-104.39747)"
       cx="4.9929786"
       cy="43.5"
       fx="4.9929786"
       fy="43.5"
       r="2.5" />
    <radialGradient
       xlink:href="#linearGradient6420"
       id="radialGradient3976-2"
       gradientUnits="userSpaceOnUse"
       gradientTransform="matrix(0.35372554,0,0,0.04244707,17.425079,121.9643)"
       cx="-4.0287771"
       cy="93.467628"
       fx="-4.0287771"
       fy="93.467628"
       r="35.338131" />
    <linearGradient
       xlink:href="#linearGradient899-4"
       id="linearGradient910-1"
       gradientUnits="userSpaceOnUse"
       gradientTransform="matrix(0.24999999,0,0,0.24999999,-34.369356,95.299705)"
       x1="201.47743"
       y1="6.0270019"
       x2="200.66388"
       y2="124.11175" />
    <mask
       id="mask1160-1"
       maskUnits="userSpaceOnUse">
      <rect
         width="46.5"
         height="58.5"
         rx="2.5"
         ry="2.5"
         x="8.75"
         y="64.750031"
         id="rect1162-7"
         style="opacity:1;vector-effect:none;fill:url(#linearGradient1164);fill-opacity:1;stroke:none;stroke-width:1;stroke-linecap:butt;stroke-linejoin:miter;stroke-miterlimit:4;stroke-dasharray:none;stroke-dashoffset:0;stroke-opacity:1" />
    </mask>
    <radialGradient
       r="2.5"
       fy="43.5"
       fx="4.9929786"
       cy="43.5"
       cx="4.9929786"
       gradientTransform="matrix(2.8052977,0,0,0.49999998,-68.58441,119.39159)"
       gradientUnits="userSpaceOnUse"
       id="radialGradient3946-8"
       xlink:href="#linearGradient3688-166-749-654" />
    <radialGradient
       r="2.5"
       fy="43.5"
       fx="4.9929786"
       cy="43.5"
       cx="4.9929786"
       gradientTransform="matrix(2.8052977,0,0,0.49999998,75.551173,-162.89159)"
       gradientUnits="userSpaceOnUse"
       id="radialGradient3948-3"
       xlink:href="#linearGradient3688-166-749-654" />
    <radialGradient
       r="35.338131"
       fy="93.467628"
       fx="-4.0287771"
       cy="93.467628"
       cx="-4.0287771"
       gradientTransform="matrix(0.7074511,0,0,0.08489414,-69.21764,132.95736)"
       gradientUnits="userSpaceOnUse"
       id="radialGradient3976-8"
       xlink:href="#linearGradient6420" />
    <mask
       maskUnits="userSpaceOnUse"
       id="mask1160-9">
      <rect
         style="opacity:1;vector-effect:none;fill:url(#linearGradient1164);fill-opacity:1;stroke:none;stroke-width:1;stroke-linecap:butt;stroke-linejoin:miter;stroke-miterlimit:4;stroke-dasharray:none;stroke-dashoffset:0;stroke-opacity:1"
         id="rect1162-9"
         y="64.750031"
         x="8.75"
         ry="2.5"
         rx="2.5"
         height="58.5"
         width="46.5" />
    </mask>
  </defs>
  <metadata
     id="metadata7">
    <rdf:RDF>
      <cc:Work
         rdf:about="">
        <dc:format>image/svg+xml</dc:format>
        <dc:type
           rdf:resource="http://purl.org/dc/dcmitype/StillImage" />
        <dc:title></dc:title>
      </cc:Work>
    </rdf:RDF>
  </metadata>
  <g
     id="Layer_3"
     transform="translate(152.73099,-119.4)" />
  <g
     inkscape:groupmode="layer"
     id="layer1"
     inkscape:label="Layer 1"
     style="display:none"
     transform="translate(0,-104)">
    <rect
       style="opacity:0.35400008;fill:#cc3b02;fill-opacity:0.35294118;fill-rule:evenodd;stroke:none;stroke-width:1.99900007;stroke-linecap:round;stroke-linejoin:round;stroke-miterlimit:4;stroke-dasharray:none;stroke-dashoffset:0;stroke-opacity:1;paint-order:markers fill stroke"
       id="rect996"
       width="24.000004"
       height="24"
       x="0"
       y="104"
       rx="0.044232003"
       ry="0.048605815" />
  </g>
  <g
     inkscape:groupmode="layer"
     id="layer2"
     inkscape:label="Layer 2"
     transform="translate(0,-104)">
    <path
       d="m 21.375001,126.83225 a 9.3750012,1.0746843 0 0 1 -18.7500007,0 9.3750012,1.0746843 0 1 1 18.7500007,0 z"
       id="path3041"
       style="color:#000000;display:inline;overflow:visible;visibility:visible;opacity:0.2;fill:url(#radialGradient3976);fill-opacity:1;fill-rule:nonzero;stroke:none;stroke-width:1;marker:none;enable-background:accumulate"
       inkscape:connector-curvature="0" />
    <g
       transform="matrix(0.50624984,0,0,0.10408545,-0.1500017,122.55187)"
       id="g2036"
       style="display:inline;stroke-width:5.33541536">
      <g
         transform="matrix(1.052632,0,0,1.285713,-1.263158,-13.42854)"
         id="g3712"
         style="opacity:0.4;stroke-width:5.33541536">
        <rect
           width="4.9259257"
           height="7"
           x="36.314819"
           y="39.997467"
           id="rect2801-3"
           style="fill:url(#radialGradient3946);fill-opacity:1;stroke:none;stroke-width:5.33541536" />
        <rect
           width="4.9259257"
           height="7"
           x="-11.685188"
           y="-46.997467"
           transform="scale(-1)"
           id="rect3696-6"
           style="fill:url(#radialGradient3948);fill-opacity:1;stroke:none;stroke-width:5.33541536" />
        <rect
           width="24.629629"
           height="7.0000005"
           x="11.685188"
           y="39.997467"
           id="rect3700-7"
           style="fill:url(#linearGradient3950);fill-opacity:1;stroke:none;stroke-width:5.33541536" />
      </g>
    </g>
    <rect
       width="17.437502"
       height="21.920374"
       rx="0.93750012"
       ry="0.93676823"
       x="3.2812505"
       y="105.05482"
       id="rect4897"
       style="opacity:1;vector-effect:none;fill:url(#linearGradient910);fill-opacity:1;stroke:none;stroke-width:1;stroke-linecap:butt;stroke-linejoin:miter;stroke-miterlimit:4;stroke-dasharray:none;stroke-dashoffset:0;stroke-opacity:1" />
    <rect
       style="opacity:0.5;vector-effect:none;fill:none;fill-opacity:1;stroke:#ee6c24;stroke-width:0.8;stroke-linecap:butt;stroke-linejoin:miter;stroke-miterlimit:4;stroke-dasharray:none;stroke-dashoffset:0;stroke-opacity:1"
       id="rect3993"
       y="105.0548"
       x="3.2812505"
       ry="0.93676823"
       rx="0.93750012"
       height="21.920374"
       width="17.437502" />
    <rect
       style="opacity:1;vector-effect:none;fill:none;fill-opacity:1;stroke:url(#linearGradient1154);stroke-width:2.13416636;stroke-linecap:butt;stroke-linejoin:miter;stroke-miterlimit:4;stroke-dasharray:none;stroke-dashoffset:0;stroke-opacity:1"
       id="rect1146"
       y="64.750031"
       x="8.75"
       ry="2.5"
       rx="2.5"
       height="58.5"
       width="46.5"
       mask="url(#mask1160)"
       transform="matrix(0.37500004,0,0,0.37470727,0,80.792517)" />
    <flowRoot
       style="font-style:normal;font-weight:normal;font-size:40px;line-height:1.25;font-family:sans-serif;letter-spacing:0px;word-spacing:0px;fill:#000000;fill-opacity:1;stroke:none"
       id="flowRoot81-1"
       xml:space="preserve"
       transform="translate(24,19.52356)"><flowRegion
         id="flowRegion83-1"><rect
           y="-10.609092"
           x="-189.29451"
           height="581.07208"
           width="281.61438"
           id="rect85-59" /></flowRegion><flowPara
         id="flowPara87-7" /></flowRoot>    <g
       id="Layer_3-7"
       transform="translate(176.73099,4.12356)" />
    <g
       id="layer1-6"
       inkscape:label="Layer 1"
       style="display:none"
       transform="translate(24,19.52356)">
      <rect
         style="opacity:0.35400008;fill:#cc3b02;fill-opacity:0.35294118;fill-rule:evenodd;stroke:none;stroke-width:1.99900007;stroke-linecap:round;stroke-linejoin:round;stroke-miterlimit:4;stroke-dasharray:none;stroke-dashoffset:0;stroke-opacity:1;paint-order:markers fill stroke"
         id="rect996-7"
         width="32"
         height="32"
         x="0"
         y="96"
         rx="0.058975998"
         ry="0.06480775" />
    </g>
    <flowRoot
       transform="translate(-112.47458,48.262667)"
       xml:space="preserve"
       id="flowRoot81-6"
       style="font-style:normal;font-weight:normal;font-size:40px;line-height:1.25;font-family:sans-serif;letter-spacing:0px;word-spacing:0px;fill:#000000;fill-opacity:1;stroke:none"><flowRegion
         id="flowRegion83-0"><rect
           id="rect85-5"
           width="281.61438"
           height="581.07208"
           x="-189.29451"
           y="-10.609092" /></flowRegion><flowPara
         id="flowPara87-0" /></flowRoot>    <g
       transform="matrix(0.37498975,0,0,0.37498975,39.024554,73.869213)"
       id="g1064">
      <path
         id="path902"
         d="m -72.067209,94.426541 c -0.157779,0 -0.314874,-0.0027 -0.473639,0.002 -8.670416,0.255891 -15.56705,7.357229 -15.5695,16.031419 v 3.34184 4.54008 h -0.777351 c -0.554007,0 -1.000011,0.44601 -1.000011,1.00002 v 8.83408 c 0,0.554 0.446004,1 1.000011,1 h 0.777351 0.494147 1.451187 v 1.18166 c 0,0.554 0.446003,1.00001 1.00001,1.00001 h 3.524452 c 0.554005,0 1.00001,-0.44601 1.00001,-1.00001 v -13.19742 c 0,-0.55399 -0.446005,-1 -1.00001,-1 h -2.428737 v -1.02149 -1.33693 h -0.03027 v -3.34184 c -0.0036,-2.38101 0.704145,-4.70941 2.03225,-6.68561 0.435054,-0.65635 0.93389,-1.26699 1.490251,-1.82424 2.476616,-2.472763 5.525756,-3.558088 8.509855,-3.535198 2.984098,-0.0229 6.033239,1.062435 8.509855,3.535198 0.55636,0.55725 1.055197,1.16789 1.49025,1.82424 1.328105,1.9762 2.035836,4.3046 2.032249,6.68561 v 3.34184 h -0.03028 v 1.33693 1.02149 h -2.428737 c -0.554005,0 -1.00001,0.44601 -1.00001,1 v 13.19742 c 0,0.554 0.446005,1.00001 1.00001,1.00001 h 3.524452 c 0.554007,0 1.00001,-0.44601 1.00001,-1.00001 v -1.18165 h 1.451187 0.494147 0.777351 c 0.554007,0 1.000011,-0.44601 1.000011,-1.00001 v -8.83408 c 0,-0.55401 -0.446004,-1.00002 -1.000011,-1.00002 h -0.77735 v -4.54008 -3.34184 c -0.0025,-8.67419 -6.899084,-15.775525 -15.5695,-16.031415 -0.158765,-0.0047 -0.315859,-0.0019 -0.473638,-0.0019 z"
         style="opacity:0.07000002;fill:none;fill-opacity:1;stroke:#000000;stroke-width:1;stroke-miterlimit:4;stroke-dasharray:none;stroke-opacity:1"
         inkscape:connector-curvature="0" />
      <path
         inkscape:connector-curvature="0"
         style="opacity:0.15;fill:#1b1b1b;fill-opacity:1;stroke-width:4.00004196"
         d="m -72.067209,94.426541 c -0.157779,0 -0.314874,-0.0027 -0.473639,0.002 -8.670416,0.255891 -15.56705,7.357229 -15.5695,16.031419 v 3.34184 4.54008 h -0.777351 c -0.554007,0 -1.000011,0.44601 -1.000011,1.00002 v 8.83408 c 0,0.554 0.446004,1 1.000011,1 h 0.777351 0.494147 1.451187 v 1.18166 c 0,0.554 0.446003,1.00001 1.00001,1.00001 h 3.524452 c 0.554005,0 1.00001,-0.44601 1.00001,-1.00001 v -13.19742 c 0,-0.55399 -0.446005,-1 -1.00001,-1 h -2.428737 v -1.02149 -1.33693 h -0.03027 v -3.34184 c -0.0036,-2.38101 0.704145,-4.70941 2.03225,-6.68561 0.435054,-0.65635 0.93389,-1.26699 1.490251,-1.82424 2.476616,-2.472763 5.525756,-3.558088 8.509855,-3.535198 2.984098,-0.0229 6.033239,1.062435 8.509855,3.535198 0.55636,0.55725 1.055197,1.16789 1.49025,1.82424 1.328105,1.9762 2.035836,4.3046 2.032249,6.68561 v 3.34184 h -0.03028 v 1.33693 1.02149 h -2.428737 c -0.554005,0 -1.00001,0.44601 -1.00001,1 v 13.19742 c 0,0.554 0.446005,1.00001 1.00001,1.00001 h 3.524452 c 0.554007,0 1.00001,-0.44601 1.00001,-1.00001 v -1.18165 h 1.451187 0.494147 0.777351 c 0.554007,0 1.000011,-0.44601 1.000011,-1.00001 v -8.83408 c 0,-0.55401 -0.446004,-1.00002 -1.000011,-1.00002 h -0.77735 v -4.54008 -3.34184 c -0.0025,-8.67419 -6.899084,-15.775525 -15.5695,-16.031415 -0.158765,-0.0047 -0.315859,-0.0019 -0.473638,-0.0019 z"
         id="path900" />
      <path
         id="path1462-8"
         d="m -72.067459,93.426699 c -0.157777,0 -0.31487,-0.0027 -0.473632,0.002 -8.670295,0.255887 -15.566832,7.357121 -15.569282,16.031191 v 3.34179 4.54002 h -0.77734 c -0.553999,0 -0.999997,0.446 -0.999997,1.00001 v 8.83395 c 0,0.554 0.445998,0.99999 0.999997,0.99999 h 0.77734 0.49414 1.451167 v 1.18164 c 0,0.554 0.445997,1 0.999996,1 h 3.524402 c 0.553998,0 0.999996,-0.446 0.999996,-1 v -13.19723 c 0,-0.55399 -0.445998,-0.99999 -0.999996,-0.99999 h -2.428703 v -1.02148 -1.33691 h -0.03027 v -3.34179 c -0.0036,-2.38098 0.704135,-4.70934 2.032221,-6.68552 0.435048,-0.65634 0.933877,-1.26697 1.49023,-1.82421 2.476582,-2.472726 5.525679,-3.558036 8.509736,-3.535146 2.984056,-0.0229 6.033154,1.06242 8.509736,3.535146 0.556352,0.55724 1.055182,1.16787 1.490229,1.82421 1.328086,1.97618 2.035807,4.30454 2.03222,6.68552 v 3.34179 h -0.03028 v 1.33691 1.02148 h -2.428703 c -0.553998,0 -0.999996,0.446 -0.999996,0.99999 v 13.19723 c 0,0.554 0.445998,1 0.999996,1 h 3.524402 c 0.553999,0 0.999996,-0.446 0.999996,-1 v -1.18163 h 1.451167 0.49414 0.77734 c 0.553999,0 0.999997,-0.446 0.999997,-1 v -8.83395 c 0,-0.55401 -0.445998,-1.00001 -0.999997,-1.00001 h -0.777339 v -4.54002 -3.34179 c -0.0025,-8.67407 -6.898987,-15.775301 -15.569282,-16.031187 -0.158762,-0.0047 -0.315854,-0.0019 -0.473631,-0.0019 z"
         style="fill:#fafafa;stroke-width:3.99998593"
         inkscape:connector-curvature="0" />
    </g>
  </g>
  <g
     inkscape:groupmode="layer"
     id="layer3"
     inkscape:label="Layer 3"
     transform="translate(0,-104)">
    <path
       d="m 5.6250007,108.98923 h 1.1676887 z m 1.3389497,0 h 1.0898424 z m 1.2611034,0 h 0.9652899 z m 1.1209824,0 h 0.4203676 z m 0.5916286,0 h 0.9341512 z m 1.1209812,0 h 2.459931 z m 2.615623,0 h 1.883871 z m 2.039564,0 h 0.57606 z m -10.0888323,1.12413 h 1.8215946 z m 2.0239938,0 h 0.8718744 z m 1.0275654,0 h 0.4359376 z m 0.6071986,0 h 0.7940285 z m 0.9652895,0 h 0.809597 z m 0.965289,0 h 1.292242 z m 1.463504,0 h 1.681472 z m 1.837164,0 h 1.120982 z m 1.276673,0 h 0.280247 z m -10.1666773,1.11637 h 1.5413488 z m 1.6970406,0 h 2.522208 z m 2.6779005,0 h 1.2299652 z m 1.3856572,0 h 1.15212 z m 1.307811,0 h 0.980859 z m 1.136551,0 1.54135,0.0155 z m 1.681472,0.0155 h 2.506638 z m -9.8864323,1.11642 h 2.1329778 z m 2.3042396,0 h 2.3042387 z m 2.4599307,0 h 0.918582 z m 1.074274,0 h 2.164116 z m 2.304239,0 h 1.479073 z m 1.650334,0 h 0.59163 z m 0.747321,0 h 0.326953 z m 0.498214,0 h 0.918582 z m -11.0385523,1.12412 h 0.7940282 z m 1.043135,0 h 2.9425756 z m -1.043135,1.87354 h 1.1676887 z m 1.3389497,0 h 1.0742732 z m 1.2611034,0 h 0.9652899 z m 1.1209817,0 h 0.4203683 z m 0.5916293,0 h 0.9341502 z m 1.1209812,0 h 2.444361 z m 2.615623,0 h 1.868301 z m 2.023994,0 h 0.591628 z m 0.747321,0 h 1.401226 z m -10.8205833,1.12412 h 1.9617161 z m 2.1174086,0 h 2.10184 z m 2.2575318,0 h 0.8095969 z m 0.9652899,0 h 1.977287 z m 2.132978,0 h 2.49107 z m 2.662331,0 h 0.918582 z m -10.1355393,1.12413 h 2.1329778 z m 2.3042396,0 h 2.3042387 z m 2.4599307,0 h 0.918582 z m 1.074274,0 h 2.164116 z m 2.304239,0 h 1.479073 z m 1.650334,0 h 0.59163 z m 0.747321,0 h 0.326953 z m 0.498214,0 h 0.918582 z m -11.0385523,1.12411 h 1.8215946 z m 2.0239938,0 h 0.8718744 z m 1.0275654,0 h 0.4359376 z m 0.6071986,0 h 0.7940285 z m 0.9652895,0 h 0.809597 z m 0.965289,0 h 1.292242 z m 1.463504,0 h 1.681472 z m 1.837164,0 h 1.120982 z m 1.276673,0 h 0.280247 z m -10.1666773,1.86579 h 1.5413488 z m 1.6970406,0 h 2.522208 z m 2.6779005,0 h 1.2299652 z m 1.3856572,0 h 1.15212 z m 1.307811,0 h 0.980859 z m 1.136551,0 1.54135,0.0155 z m 1.681472,0.0155 h 2.506638 z m -9.8864323,1.11641 h 1.8215946 z m 2.0239938,0 h 0.8718744 z m 1.0275654,0 h 0.4359376 z m 0.6071986,0 h 0.7940285 z m 0.9652895,0 h 0.809597 z m 0.965289,0 h 1.292242 z m 1.463504,0 h 1.681472 z m 1.837164,0 h 1.120982 z m 1.276673,0 h 0.280247 z M 5.6250007,122.8534 H 7.555579 Z m 2.1018393,0 h 0.6071986 z m 0.7628904,0 h 1.3856574 z m 1.5413496,0 h 2.039563 z m 2.210824,0 h 1.385658 z m 1.52578,0 h 0.295815 z m 0.451506,0 h 1.759319 z m 1.946149,0 h 0.918582 z M 5.6250007,123.97751 H 7.555579 Z m 2.1018393,0 h 0.8718751 z m 1.0275662,0 h 1.3700888 z m 1.5257808,0 h 1.479072 z m 1.650333,0 h 0.591629 z m 0.747321,0 h 0.326953 z m 0.498215,0 h 0.918581 z"
       id="path3475"
       style="opacity:0.7;fill:none;stroke:#fafafa;stroke-width:0.40000004;stroke-linecap:butt;stroke-linejoin:miter;stroke-miterlimit:4;stroke-dasharray:none;stroke-opacity:0.49710987"
       inkscape:connector-curvature="0" />
  </g>
</svg>
