<?xml version="1.0" encoding="utf-8"?>
<!-- Generator: Adobe Illustrator 16.0.0, SVG Export Plug-In . SVG Version: 6.00 Build 0)  -->
<!DOCTYPE svg PUBLIC "-//W3C//DTD SVG 1.1//EN" "http://www.w3.org/Graphics/SVG/1.1/DTD/svg11.dtd">
<svg version="1.1" id="Layer_2" xmlns="http://www.w3.org/2000/svg" xmlns:xlink="http://www.w3.org/1999/xlink" x="0px" y="0px"
	 width="24px" height="24px" viewBox="0 0 24 24" enable-background="new 0 0 24 24" xml:space="preserve">
<g id="Layer_3">
</g>
<g id="Drop_Shadow_4_" transform="matrix(1.052632,0,0,1.285713,-1.263158,-13.42854)" opacity="0.4">
	
		<radialGradient id="rect2801_5_" cx="-69.1125" cy="383.8814" r="0.4016" gradientTransform="matrix(5.9947 0 0 1.0551 433.0682 -377.75)" gradientUnits="userSpaceOnUse">
		<stop  offset="0" style="stop-color:#181818"/>
		<stop  offset="1" style="stop-color:#181818;stop-opacity:0"/>
	</radialGradient>
	<rect id="rect2801_4_" x="18.8" y="27" fill="url(#rect2801_5_)" width="2.2" height="0.6"/>
	
		<radialGradient id="rect2_5_" cx="-268.8212" cy="-362.7784" r="0.4017" gradientTransform="matrix(-5.9947 0 0 -1.0551 -1604.8715 -355.4861)" gradientUnits="userSpaceOnUse">
		<stop  offset="0" style="stop-color:#181818"/>
		<stop  offset="1" style="stop-color:#181818;stop-opacity:0"/>
	</radialGradient>
	<rect id="rect2_4_" x="4.5" y="27" fill="url(#rect2_5_)" width="2.2" height="0.6"/>
	
		<linearGradient id="rect1_5_" gradientUnits="userSpaceOnUse" x1="53.4755" y1="533.3638" x2="53.4755" y2="532.2335" gradientTransform="matrix(2.9917 0 0 0.9184 -147.2871 -462.2572)">
		<stop  offset="0" style="stop-color:#181818;stop-opacity:0"/>
		<stop  offset="0.5" style="stop-color:#181818"/>
		<stop  offset="1" style="stop-color:#181818;stop-opacity:0"/>
	</linearGradient>
	<rect id="rect1_4_" x="6.6" y="27" fill="url(#rect1_5_)" width="12.1" height="0.6"/>
</g>
<path id="Icon_Border_4_" opacity="0.6" fill="#381F18" stroke="#3F3022" stroke-miterlimit="10" enable-background="new    " d="
	M21,20.1c0,1.1-0.9,1.9-1.9,1.9H4.9C3.9,22,3,21.1,3,20.1V5.9C3,4.9,3.9,4,4.9,4h14.1C20.1,4,21,4.9,21,5.9V20.1z"/>
<linearGradient id="Background_5_" gradientUnits="userSpaceOnUse" x1="254.1006" y1="-310.5" x2="254.1006" y2="-327.5005" gradientTransform="matrix(1 0 0 -1 -242 -306)">
	<stop  offset="0" style="stop-color:#F39200"/>
	<stop  offset="0.1354" style="stop-color:#F18905"/>
	<stop  offset="0.3558" style="stop-color:#EC7114"/>
	<stop  offset="0.6339" style="stop-color:#E3492C"/>
	<stop  offset="0.9557" style="stop-color:#D8134D"/>
	<stop  offset="1" style="stop-color:#D60B52"/>
</linearGradient>
<linearGradient id="Background_6_" gradientUnits="userSpaceOnUse" x1="254.1006" y1="-310" x2="254.1006" y2="-328.0005" gradientTransform="matrix(1 0 0 -1 -242 -306)">
	<stop  offset="0" style="stop-color:#E94E1B"/>
	<stop  offset="7.124600e-003" style="stop-color:#EA531C"/>
	<stop  offset="5.917540e-002" style="stop-color:#EF7524"/>
	<stop  offset="0.1123" style="stop-color:#F4902B"/>
	<stop  offset="0.1663" style="stop-color:#F7A32F"/>
	<stop  offset="0.2218" style="stop-color:#F8AE32"/>
	<stop  offset="0.2809" style="stop-color:#F9B233"/>
	<stop  offset="0.5897" style="stop-color:#E94E1B"/>
	<stop  offset="0.8088" style="stop-color:#E94E1B"/>
	<stop  offset="0.8493" style="stop-color:#E24822"/>
	<stop  offset="0.9094" style="stop-color:#CE3934"/>
	<stop  offset="0.9814" style="stop-color:#AD2052"/>
	<stop  offset="1" style="stop-color:#A3195B"/>
</linearGradient>
<path id="Background_4_" fill="url(#Background_5_)" stroke="url(#Background_6_)" stroke-miterlimit="10" d="M20.6,19.7
	c0,1-0.8,1.8-1.8,1.8H5.4c-1,0-1.8-0.8-1.8-1.8V6.3c0-1,0.8-1.8,1.8-1.8h13.3c1,0,1.8,0.8,1.8,1.8V19.7z"/>
<path id="Shadow_Book_4_" opacity="0.2" enable-background="new    " d="M14.9,19.2c0,1.1-0.4,0.9-0.9,0.9h-3.8
	c-0.5,0-0.9,0.2-0.9-0.9v-8.3c0-1.1,0.4-0.8,0.9-0.8H14c0.5,0,0.9-0.3,0.9,0.8V19.2z"/>
<g id="Shadow_Headphones_4_" opacity="0.2">
	<path id="rect5540_10_" fill="none" stroke="#000000" stroke-linecap="round" stroke-linejoin="round" d="M6.9,13.4v-1
		c0-3.2,2.4-5.8,5.3-5.8h0c2.9,0,5.3,2.6,5.3,5.8v1"/>
	<path id="rect5413-5_10_" d="M6.6,13h0.9v4.3H6.5c-0.3,0-0.5-0.7-0.5-1.1l0-2C6,13.6,6.2,13,6.6,13z"/>
	<path id="rect5413_10_" d="M7.8,12.2h0.5V18H7.8c-0.3,0-0.5-0.3-0.5-0.4v-5C7.3,12.5,7.5,12.2,7.8,12.2z"/>
	<path id="rect5413-5-2_10_" d="M18,13h-0.9v4.3H18c0.3,0,0.5-0.7,0.5-1.1l0-2C18.5,13.6,18.3,13,18,13z"/>
	<path id="rect5413-3_10_" d="M16.7,12.2h-0.5V18h0.5c0.3,0,0.5-0.3,0.5-0.4v-5C17.2,12.5,17,12.2,16.7,12.2z"/>
</g>
<path id="rect5540_9_" fill="none" stroke="#FFFFFF" stroke-linecap="round" stroke-linejoin="round" d="M6.5,13.3v-0.9
	C6.5,9.2,9,6.7,12,6.7H12c3,0,5.5,2.6,5.5,5.7v0.9"/>
<path id="rect5413-5_9_" fill="#FFFFFF" d="M6.4,12.5h0.9v4.3H6.4c-0.3,0-0.5-0.6-0.5-1.1l0-2C5.8,13.2,6,12.5,6.4,12.5z"/>
<path id="rect5413_9_" fill="#FFFFFF" d="M7.6,11.8h0.5v5.7H7.6c-0.3,0-0.5-0.3-0.5-0.4v-4.9C7.1,12,7.3,11.8,7.6,11.8z"/>
<path id="rect5413-5-2_9_" fill="#FFFFFF" d="M17.8,12.5h-0.9v4.3h0.9c0.3,0,0.5-0.6,0.5-1.1l0-2C18.4,13.2,18.1,12.5,17.8,12.5z"/>
<path id="rect5413-3_9_" fill="#FFFFFF" d="M16.6,11.8h-0.5v5.7h0.5c0.3,0,0.5-0.3,0.5-0.4v-4.9C17.1,12,16.9,11.8,16.6,11.8z"/>
<rect x="9" y="10" fill="#FFFFFF" width="6" height="10"/>
</svg>
