<?xml version="1.0" encoding="UTF-8" standalone="no"?>
<svg
   xmlns:dc="http://purl.org/dc/elements/1.1/"
   xmlns:cc="http://creativecommons.org/ns#"
   xmlns:rdf="http://www.w3.org/1999/02/22-rdf-syntax-ns#"
   xmlns:svg="http://www.w3.org/2000/svg"
   xmlns="http://www.w3.org/2000/svg"
   xmlns:xlink="http://www.w3.org/1999/xlink"
   xmlns:sodipodi="http://sodipodi.sourceforge.net/DTD/sodipodi-0.dtd"
   xmlns:inkscape="http://www.inkscape.org/namespaces/inkscape"
   width="48"
   height="48"
   id="svg2"
   version="1.1"
   sodipodi:docname="com.github.geigi.cozy2.svg"
   inkscape:version="0.92.4 5da689c313, 2019-01-14">
  <sodipodi:namedview
     pagecolor="#ffffff"
     bordercolor="#666666"
     borderopacity="1"
     objecttolerance="10"
     gridtolerance="10"
     guidetolerance="10"
     inkscape:pageopacity="0"
     inkscape:pageshadow="2"
     inkscape:window-width="2560"
     inkscape:window-height="1386"
     id="namedview54"
     showgrid="false"
     inkscape:zoom="10.429825"
     inkscape:cx="27.228342"
     inkscape:cy="20.364534"
     inkscape:window-x="0"
     inkscape:window-y="28"
     inkscape:window-maximized="1"
     inkscape:current-layer="layer3"
     inkscape:snap-page="true"
     inkscape:snap-grids="false" />
  <defs
     id="defs4">
    <linearGradient
       id="linearGradient1174">
      <stop
         id="stop1166"
         style="stop-color:#ffffff;stop-opacity:1"
         offset="0" />
      <stop
         id="stop1168"
         style="stop-color:#ffffff;stop-opacity:0.23529412"
         offset="0.04604129" />
      <stop
         id="stop1170"
         style="stop-color:#ffffff;stop-opacity:0.15686275"
         offset="0.95056331" />
      <stop
         id="stop1172"
         style="stop-color:#ffffff;stop-opacity:0.39215687"
         offset="1" />
    </linearGradient>
    <linearGradient
       id="linearGradient899">
      <stop
         offset="0"
         style="stop-color:#f282f1;stop-opacity:1"
         id="stop1192" />
      <stop
         offset="1"
         style="stop-color:#a56de2;stop-opacity:1"
         id="stop1194" />
    </linearGradient>
    <linearGradient
       id="linearGradient6420">
      <stop
         style="stop-color:#000000;stop-opacity:1;"
         offset="0"
         id="stop6422" />
      <stop
         style="stop-color:#000000;stop-opacity:0;"
         offset="1"
         id="stop6424" />
    </linearGradient>
    <linearGradient
       id="linearGradient3688-166-749-654">
      <stop
         id="stop3088"
         style="stop-color:#181818;stop-opacity:1"
         offset="0" />
      <stop
         id="stop3090"
         style="stop-color:#181818;stop-opacity:0"
         offset="1" />
    </linearGradient>
    <linearGradient
       id="linearGradient3702-501-757-795">
      <stop
         id="stop3100"
         style="stop-color:#181818;stop-opacity:0"
         offset="0" />
      <stop
         id="stop3102"
         style="stop-color:#181818;stop-opacity:1"
         offset="0.5" />
      <stop
         id="stop3104"
         style="stop-color:#181818;stop-opacity:0"
         offset="1" />
    </linearGradient>
    <radialGradient
       r="2.5"
       fy="43.5"
       fx="4.9929786"
       cy="43.5"
       cx="4.9929786"
       gradientTransform="matrix(1.9740983,0,0,1.4,26.451271,-17.402531)"
       gradientUnits="userSpaceOnUse"
       id="radialGradient3946"
       xlink:href="#linearGradient3688-166-749-654" />
    <radialGradient
       r="2.5"
       fy="43.5"
       fx="4.9929786"
       cy="43.5"
       cx="4.9929786"
       gradientTransform="matrix(1.9740983,0,0,1.4,-21.548734,-104.39747)"
       gradientUnits="userSpaceOnUse"
       id="radialGradient3948"
       xlink:href="#linearGradient3688-166-749-654" />
    <linearGradient
       gradientTransform="matrix(0.87962965,0,0,1,2.8888916,-0.00253193)"
       y2="39.999443"
       x2="25.058096"
       y1="47.027729"
       x1="25.058096"
       gradientUnits="userSpaceOnUse"
       id="linearGradient3950"
       xlink:href="#linearGradient3702-501-757-795" />
    <radialGradient
       r="35.338131"
       fy="93.467628"
       fx="-4.0287771"
       cy="93.467628"
       cx="-4.0287771"
       gradientTransform="matrix(0.53058838,0,0,0.06082294,26.137622,119.97954)"
       gradientUnits="userSpaceOnUse"
       id="radialGradient3976"
       xlink:href="#linearGradient6420" />
    <linearGradient
       y2="48.534767"
       x2="23.99999"
       y1="6.0395865"
       x1="23.99999"
       gradientTransform="matrix(1.3648649,0,0,1.3648649,-7.256753,56.743256)"
       gradientUnits="userSpaceOnUse"
       id="linearGradient3965"
       xlink:href="#linearGradient3924" />
    <linearGradient
       id="linearGradient3924">
      <stop
         offset="0"
         style="stop-color:#ffffff;stop-opacity:1"
         id="stop3926" />
      <stop
         offset="0.06316455"
         style="stop-color:#ffffff;stop-opacity:0.23529412"
         id="stop3928" />
      <stop
         offset="0.95056331"
         style="stop-color:#ffffff;stop-opacity:0.15686275"
         id="stop3930" />
      <stop
         offset="1"
         style="stop-color:#ffffff;stop-opacity:0.39215687"
         id="stop3932" />
    </linearGradient>
    <linearGradient
       y2="124.11175"
       x2="200.66388"
       y1="6.0270019"
       x1="201.47743"
       gradientTransform="matrix(0.37500004,0,0,0.37470728,-51.55404,79.85126)"
       gradientUnits="userSpaceOnUse"
       id="linearGradient910"
       xlink:href="#linearGradient899-4" />
    <linearGradient
       id="linearGradient899-4">
      <stop
         id="stop895"
         style="stop-color:#f37329;stop-opacity:1"
         offset="0" />
      <stop
         id="stop897"
         style="stop-color:#cc3b02;stop-opacity:1"
         offset="1" />
    </linearGradient>
    <linearGradient
       gradientUnits="userSpaceOnUse"
       y2="119"
       x2="32"
       y1="1"
       x1="32"
       id="linearGradient904"
       xlink:href="#linearGradient902"
       gradientTransform="translate(-7)" />
    <linearGradient
       id="linearGradient902">
      <stop
         id="stop898"
         offset="0"
         style="stop-color:#770087;stop-opacity:1;" />
      <stop
         id="stop900"
         offset="1"
         style="stop-color:#452981;stop-opacity:1" />
    </linearGradient>
    <linearGradient
       gradientTransform="matrix(1.832495,0,0,1.8439152,-232.1758,-3.442198)"
       gradientUnits="userSpaceOnUse"
       xlink:href="#linearGradient5803"
       id="linearGradient5228-5"
       y2="55.014568"
       x2="167.98311"
       y1="10.001652"
       x1="167.98311" />
    <linearGradient
       id="linearGradient5803">
      <stop
         offset="0"
         style="stop-color:#ffffff;stop-opacity:1"
         id="stop5805" />
      <stop
         offset="1"
         style="stop-color:#fafafa;stop-opacity:1"
         id="stop5807" />
    </linearGradient>
    <linearGradient
       inkscape:collect="always"
       xlink:href="#linearGradient1174"
       id="linearGradient1154"
       x1="32.066757"
       y1="63.410389"
       x2="31.75"
       y2="122.7458"
       gradientUnits="userSpaceOnUse" />
    <linearGradient
       inkscape:collect="always"
       xlink:href="#linearGradient899-4"
       id="linearGradient1164"
       gradientUnits="userSpaceOnUse"
       gradientTransform="matrix(0.5,0,0,0.5,-68.738715,61.736499)"
       x1="201.47743"
       y1="6.0270019"
       x2="200.66388"
       y2="124.11175" />
    <mask
       maskUnits="userSpaceOnUse"
       id="mask1160">
      <rect
         style="opacity:1;vector-effect:none;fill:url(#linearGradient1164);fill-opacity:1;stroke:none;stroke-width:1;stroke-linecap:butt;stroke-linejoin:miter;stroke-miterlimit:4;stroke-dasharray:none;stroke-dashoffset:0;stroke-opacity:1"
         id="rect1162"
         y="64.750031"
         x="8.75"
         ry="2.5"
         rx="2.5"
         height="58.5"
         width="46.5" />
    </mask>
  </defs>
  <metadata
     id="metadata7">
    <rdf:RDF>
      <cc:Work
         rdf:about="">
        <dc:format>image/svg+xml</dc:format>
        <dc:type
           rdf:resource="http://purl.org/dc/dcmitype/StillImage" />
        <dc:title></dc:title>
      </cc:Work>
    </rdf:RDF>
  </metadata>
  <g
     id="Layer_3"
     transform="translate(152.73099,-95.4)" />
  <g
     inkscape:groupmode="layer"
     id="layer1"
     inkscape:label="Layer 1"
     style="display:none"
     transform="translate(0,-80)">
    <rect
       style="opacity:0.35400008;fill:#cc3b02;fill-opacity:0.35294118;fill-rule:evenodd;stroke:none;stroke-width:1.99900007;stroke-linecap:round;stroke-linejoin:round;stroke-miterlimit:4;stroke-dasharray:none;stroke-dashoffset:0;stroke-opacity:1;paint-order:markers fill stroke"
       id="rect996"
       width="48.000008"
       height="48"
       x="0"
       y="80"
       rx="0.088464007"
       ry="0.097211629" />
  </g>
  <g
     inkscape:groupmode="layer"
     id="layer2"
     inkscape:label="Layer 2"
     transform="translate(0,-80)">
    <path
       d="m 42.750002,125.6645 a 18.750002,2.1493686 0 0 1 -37.5000014,0 18.750002,2.1493686 0 1 1 37.5000014,0 z"
       id="path3041"
       style="color:#000000;display:inline;overflow:visible;visibility:visible;opacity:0.2;fill:url(#radialGradient3976);fill-opacity:1;fill-rule:nonzero;stroke:none;stroke-width:1;marker:none;enable-background:accumulate"
       inkscape:connector-curvature="0" />
    <g
       transform="matrix(1.0124997,0,0,0.2081709,-0.3000034,117.10374)"
       id="g2036"
       style="display:inline;stroke-width:2.66770768">
      <g
         transform="matrix(1.052632,0,0,1.285713,-1.263158,-13.42854)"
         id="g3712"
         style="opacity:0.4;stroke-width:2.66770768">
        <rect
           width="4.9259257"
           height="7"
           x="36.314819"
           y="39.997467"
           id="rect2801-3"
           style="fill:url(#radialGradient3946);fill-opacity:1;stroke:none;stroke-width:2.66770768" />
        <rect
           width="4.9259257"
           height="7"
           x="-11.685188"
           y="-46.997467"
           transform="scale(-1)"
           id="rect3696-6"
           style="fill:url(#radialGradient3948);fill-opacity:1;stroke:none;stroke-width:2.66770768" />
        <rect
           width="24.629629"
           height="7.0000005"
           x="11.685188"
           y="39.997467"
           id="rect3700-7"
           style="fill:url(#linearGradient3950);fill-opacity:1;stroke:none;stroke-width:2.66770768" />
      </g>
    </g>
    <rect
       width="34.875004"
       height="43.840748"
       rx="1.8750002"
       ry="1.8735365"
       x="6.562501"
       y="82.109634"
       id="rect4897"
       style="opacity:1;vector-effect:none;fill:url(#linearGradient910);fill-opacity:1;stroke:none;stroke-width:1;stroke-linecap:butt;stroke-linejoin:miter;stroke-miterlimit:4;stroke-dasharray:none;stroke-dashoffset:0;stroke-opacity:1" />
    <rect
       style="opacity:0.5;vector-effect:none;fill:none;fill-opacity:1;stroke:#ee6c24;stroke-width:0.8;stroke-linecap:butt;stroke-linejoin:miter;stroke-miterlimit:4;stroke-dasharray:none;stroke-dashoffset:0;stroke-opacity:1"
       id="rect3993"
       y="82.109604"
       x="6.562501"
       ry="1.8735365"
       rx="1.8750002"
       height="43.840748"
       width="34.875004" />
    <rect
       style="opacity:1;vector-effect:none;fill:none;fill-opacity:1;stroke:url(#linearGradient1154);stroke-width:1.33385398;stroke-linecap:butt;stroke-linejoin:miter;stroke-miterlimit:4;stroke-dasharray:none;stroke-dashoffset:0;stroke-opacity:1"
       id="rect1146"
       y="64.750031"
       x="8.75"
       ry="2.5"
       rx="2.5"
       height="58.5"
       width="46.5"
       mask="url(#mask1160)"
       transform="matrix(0.75000008,0,0,0.74941454,0,33.585034)" />
    <g
       transform="matrix(0.37499872,0,0,0.37499872,2.609825e-4,80.522933)"
       id="g879">
      <path
         inkscape:connector-curvature="0"
         style="opacity:0.15;fill:#000000;fill-opacity:1;stroke-width:7.99999952"
         d="m 64,26.255671 c -0.315555,0 -0.629741,-0.0055 -0.947266,0.0039 -17.34065,0.511774 -31.133772,14.7143 -31.138672,32.0625 v 6.683593 9.080079 h -1.554687 c -1.108,0 -2,0.891998 -2,2 v 17.667968 c 0,1.108 0.892,2 2,2 h 1.554687 0.988282 2.902344 V 98.117 c 0,1.108 0.891998,2 2,2 h 7.048828 c 1.108,0 2,-0.892 2,-2 V 71.722468 c 0,-1.108 -0.892,-2 -2,-2 H 39.996094 V 67.6795 65.005671 h -0.06055 V 58.322078 C 39.928372,53.560096 41.343818,48.903353 44,44.950984 44.870098,43.638296 45.86776,42.417042 46.980469,41.302546 51.93365,36.357068 58.031866,34.186444 64,34.232234 c 5.968134,-0.04579 12.06635,2.124834 17.019531,7.070312 1.112709,1.114496 2.110371,2.33575 2.980469,3.648438 2.656182,3.952369 4.071628,8.609112 4.064453,13.371094 v 6.683593 h -0.06055 v 2.673829 2.042968 h -4.857422 c -1.108,0 -2,0.892 -2,2 V 98.117 c 0,1.108 0.892,2 2,2 h 7.048828 c 1.108002,0 2,-0.892 2,-2 v -2.363282 h 2.902344 0.988282 1.554687 c 1.108,0 2,-0.892 2,-2 V 76.08575 c 0,-1.108002 -0.892,-2 -2,-2 h -1.554687 v -9.080079 -6.683593 c -0.0049,-17.3482 -13.798022,-31.550726 -31.138672,-32.0625 -0.317525,-0.0094 -0.631711,-0.0039 -0.947266,-0.0039 z"
         id="path909" />
      <path
         id="path911"
         d="m 64,26.255671 c -0.315555,0 -0.629741,-0.0055 -0.947266,0.0039 -17.34065,0.511774 -31.133772,14.7143 -31.138672,32.0625 v 6.683593 9.080079 h -1.554687 c -1.108,0 -2,0.891998 -2,2 v 17.667968 c 0,1.108 0.892,2 2,2 h 1.554687 0.988282 2.902344 V 98.117 c 0,1.108 0.891998,2 2,2 h 7.048828 c 1.108,0 2,-0.892 2,-2 V 71.722468 c 0,-1.108 -0.892,-2 -2,-2 H 39.996094 V 67.6795 65.005671 h -0.06055 V 58.322078 C 39.928372,53.560096 41.343818,48.903353 44,44.950984 44.870098,43.638296 45.86776,42.417042 46.980469,41.302546 51.93365,36.357068 58.031866,34.186444 64,34.232234 c 5.968134,-0.04579 12.06635,2.124834 17.019531,7.070312 1.112709,1.114496 2.110371,2.33575 2.980469,3.648438 2.656182,3.952369 4.071628,8.609112 4.064453,13.371094 v 6.683593 h -0.06055 v 2.673829 2.042968 h -4.857422 c -1.108,0 -2,0.892 -2,2 V 98.117 c 0,1.108 0.892,2 2,2 h 7.048828 c 1.108002,0 2,-0.892 2,-2 v -2.363282 h 2.902344 0.988282 1.554687 c 1.108,0 2,-0.892 2,-2 V 76.08575 c 0,-1.108002 -0.892,-2 -2,-2 h -1.554687 v -9.080079 -6.683593 c -0.0049,-17.3482 -13.798022,-31.550726 -31.138672,-32.0625 -0.317525,-0.0094 -0.631711,-0.0039 -0.947266,-0.0039 z"
         style="opacity:0.07000002;fill:none;fill-opacity:1;stroke:#000000;stroke-width:1;stroke-miterlimit:4;stroke-dasharray:none;stroke-opacity:1"
         inkscape:connector-curvature="0" />
      <path
         inkscape:connector-curvature="0"
         id="path1462-9"
         d="m 64,25.255859 c -0.315555,0 -0.629741,-0.0055 -0.947266,0.0039 -17.34065,0.511774 -31.133772,14.7143 -31.138672,32.0625 v 6.683593 9.080079 h -1.554687 c -1.108,0 -2,0.891998 -2,2 v 17.667968 c 0,1.108 0.892,2 2,2 h 1.554687 0.988282 2.902344 v 2.363282 c 0,1.108 0.891998,2 2,2 h 7.048828 c 1.108,0 2,-0.892 2,-2 V 70.722656 c 0,-1.108 -0.892,-2 -2,-2 h -4.857422 v -2.042968 -2.673829 h -0.06055 V 57.322266 C 39.928372,52.560284 41.343818,47.903541 44,43.951172 44.870098,42.638484 45.86776,41.41723 46.980469,40.302734 51.93365,35.357256 58.031866,33.186632 64,33.232422 c 5.968134,-0.04579 12.06635,2.124834 17.019531,7.070312 1.112709,1.114496 2.110371,2.33575 2.980469,3.648438 2.656182,3.952369 4.071628,8.609112 4.064453,13.371094 v 6.683593 h -0.06055 v 2.673829 2.042968 h -4.857422 c -1.108,0 -2,0.892 -2,2 v 26.394532 c 0,1.108 0.892,2 2,2 h 7.048828 c 1.108002,0 2,-0.892 2,-2 v -2.363282 h 2.902344 0.988282 1.554687 c 1.108,0 2,-0.892 2,-2 V 75.085938 c 0,-1.108002 -0.892,-2 -2,-2 H 96.085938 V 64.005859 57.322266 C 96.081036,39.974066 82.287916,25.77154 64.947266,25.259766 64.629741,25.250392 64.315555,25.255896 64,25.255859 Z"
         style="fill:#fafafa;stroke-width:7.99999952" />
    </g>
  </g>
  <g
     inkscape:groupmode="layer"
     id="layer3"
     inkscape:label="Layer 3"
     transform="translate(0,-80)">
    <path
       d="m 11.250001,89.97846 h 2.335378 z m 2.6779,0 h 2.179685 z m 2.522207,0 h 1.930579 z m 2.241964,0 h 0.840736 z m 1.183258,0 h 1.868302 z m 2.241962,0 h 4.919862 z m 5.231246,0 h 3.767742 z m 4.079128,0 h 1.15212 z m -20.177665,2.24826 h 3.64319 z m 4.047988,0 h 1.743749 z m 2.055131,0 h 0.871875 z m 1.214397,0 h 1.588057 z m 1.930579,0 h 1.619194 z m 1.930578,0 h 2.584484 z m 2.927008,0 h 3.362944 z m 3.674328,0 h 2.241964 z m 2.553346,0 h 0.560494 z m -20.333355,2.23274 h 3.082698 z m 3.394082,0 h 5.044416 z m 5.355801,0 h 2.45993 z m 2.771314,0 h 2.30424 z m 2.615622,0 h 1.961718 z m 2.273102,0 3.0827,0.031 z m 3.362944,0.031 h 5.013276 z M 11.250001,96.7233 h 4.265956 z m 4.60848,0 h 4.608477 z m 4.919861,0 h 1.837164 z m 2.148548,0 h 4.328232 z m 4.608478,0 h 2.958146 z m 3.300668,0 h 1.18326 z m 1.494642,0 h 0.653906 z m 0.996428,0 h 1.837164 z m -22.077105,2.24824 h 1.588057 z m 2.08627,0 h 5.885152 z m -2.08627,3.74708 h 2.335378 z m 2.6779,0 h 2.148546 z m 2.522207,0 h 1.930579 z m 2.241963,0 h 0.840737 z m 1.183259,0 h 1.8683 z m 2.241962,0 h 4.888722 z m 5.231246,0 h 3.736602 z m 4.047988,0 h 1.183256 z m 1.494642,0 h 2.802452 z m -21.641167,2.24824 h 3.923433 z m 4.234818,0 h 4.20368 z m 4.515063,0 h 1.619194 z m 1.93058,0 h 3.954574 z m 4.265956,0 h 4.98214 z m 5.324662,0 h 1.837164 z m -20.271079,2.24826 h 4.265956 z m 4.60848,0 h 4.608477 z m 4.919861,0 h 1.837164 z m 2.148548,0 h 4.328232 z m 4.608478,0 h 2.958146 z m 3.300668,0 h 1.18326 z m 1.494642,0 h 0.653906 z m 0.996428,0 h 1.837164 z m -22.077105,2.24822 h 3.64319 z m 4.047988,0 h 1.743749 z m 2.055131,0 h 0.871875 z m 1.214397,0 h 1.588057 z m 1.930579,0 h 1.619194 z m 1.930578,0 h 2.584484 z m 2.927008,0 h 3.362944 z m 3.674328,0 h 2.241964 z m 2.553346,0 h 0.560494 z m -20.333355,3.73158 h 3.082698 z m 3.394082,0 h 5.044416 z m 5.355801,0 h 2.45993 z m 2.771314,0 h 2.30424 z m 2.615622,0 h 1.961718 z m 2.273102,0 3.0827,0.031 z m 3.362944,0.031 h 5.013276 z m -19.772865,2.23282 h 3.64319 z m 4.047988,0 h 1.743749 z m 2.055131,0 h 0.871875 z m 1.214397,0 h 1.588057 z m 1.930579,0 h 1.619194 z m 1.930578,0 h 2.584484 z m 2.927008,0 h 3.362944 z m 3.674328,0 h 2.241964 z m 2.553346,0 h 0.560494 z m -20.333355,2.24806 h 3.861157 z m 4.203679,0 h 1.214397 z m 1.525781,0 h 2.771315 z m 3.082699,0 h 4.079126 z m 4.421648,0 h 2.771316 z m 3.05156,0 h 0.59163 z m 0.903012,0 h 3.518638 z m 3.892298,0 h 1.837164 z m -21.080677,2.24822 h 3.861157 z m 4.203679,0 h 1.74375 z m 2.055132,0 h 2.740178 z m 3.051562,0 h 2.958144 z m 3.300666,0 h 1.183258 z m 1.494642,0 h 0.653906 z m 0.99643,0 h 1.837162 z"
       id="path3475"
       style="opacity:0.7;fill:none;stroke:#fafafa;stroke-width:0.40000004;stroke-linecap:butt;stroke-linejoin:miter;stroke-miterlimit:4;stroke-dasharray:none;stroke-opacity:0.49710987"
       inkscape:connector-curvature="0" />
  </g>
</svg>
