<?xml version="1.0" encoding="UTF-8"?>
<svg height="128px" viewBox="0 0 128 128" width="128px" xmlns="http://www.w3.org/2000/svg" xmlns:xlink="http://www.w3.org/1999/xlink">
    <linearGradient id="a" gradientUnits="userSpaceOnUse">
        <stop offset="0" stop-color="#c0bfbc"/>
        <stop offset="0.846154" stop-color="#c0bfbc"/>
        <stop offset="0.923077" stop-color="#deddda"/>
        <stop offset="1" stop-color="#c0bfbc"/>
    </linearGradient>
    <linearGradient id="b" x1="64" x2="116" xlink:href="#a" y1="75" y2="75"/>
    <linearGradient id="c" gradientUnits="userSpaceOnUse" x1="40" x2="40" y1="27.99999225" y2="140.5165025">
        <stop offset="0" stop-color="#edece9"/>
        <stop offset="1" stop-color="#ffffff"/>
    </linearGradient>
    <linearGradient id="d" gradientTransform="matrix(-1 0 0 1 128 -172)" x1="64" x2="116" xlink:href="#a" y1="247" y2="247"/>
    <linearGradient id="e" gradientUnits="userSpaceOnUse">
        <stop offset="0" stop-color="#f6f5f4"/>
        <stop offset="0.5" stop-color="#ffffff"/>
        <stop offset="1" stop-color="#dddbd8"/>
    </linearGradient>
    <linearGradient id="f" gradientTransform="matrix(-0.25 0 0 0.25 168 25)" x1="384" x2="448" xlink:href="#e" y1="120" y2="120"/>
    <linearGradient id="g" x1="48" x2="64" xlink:href="#e" y1="55" y2="55"/>
    <linearGradient id="h" gradientUnits="userSpaceOnUse" x1="29.99999709958" x2="97.99999061106" y1="29.99997519474" y2="29.99997519474">
        <stop offset="0" stop-color="#c64600"/>
        <stop offset="0.0574987" stop-color="#c64600" stop-opacity="0.988235"/>
        <stop offset="0.102995" stop-color="#ff7f3a" stop-opacity="0.980392"/>
        <stop offset="0.148718" stop-color="#c64600" stop-opacity="0.972549"/>
        <stop offset="0.411765" stop-color="#872f00" stop-opacity="0.913725"/>
        <stop offset="0.864825" stop-color="#c64600" stop-opacity="0.854902"/>
        <stop offset="0.882353" stop-color="#ff7429" stop-opacity="0.85098"/>
        <stop offset="0.920967" stop-color="#682a09" stop-opacity="0.847059"/>
        <stop offset="1" stop-color="#c64600" stop-opacity="0.839684"/>
    </linearGradient>
    <linearGradient id="i" gradientUnits="userSpaceOnUse">
        <stop offset="0" stop-color="#ffa348"/>
        <stop offset="0.649243" stop-color="#e66100"/>
        <stop offset="1" stop-color="#ffa348"/>
    </linearGradient>
    <radialGradient id="j" cx="134.309021" cy="55.279427" gradientTransform="matrix(0.548623 0 0 0.519592 -41.757464 31.243078)" r="58.46003" xlink:href="#i"/>
    <linearGradient id="k" gradientUnits="userSpaceOnUse">
        <stop offset="0" stop-color="#3d3846"/>
        <stop offset="0.697269" stop-color="#9a9996"/>
        <stop offset="1" stop-color="#77767b"/>
    </linearGradient>
    <linearGradient id="l" x1="43.27622576182" x2="43.27622576182" xlink:href="#k" y1="80.06832972089" y2="47.87438590952"/>
    <filter id="m" height="100%" width="100%" x="0%" y="0%">
        <feColorMatrix in="SourceGraphic" type="matrix" values="0 0 0 0 1 0 0 0 0 1 0 0 0 0 1 0 0 0 1 0"/>
    </filter>
    <mask id="n">
        <g filter="url(#m)">
            <rect fill-opacity="0.187" height="128" width="128"/>
        </g>
    </mask>
    <radialGradient id="o" cx="197.74678" cy="69.253197" gradientTransform="matrix(37.758633 0 0 19.739206 -7375.666016 -1304.003174)" gradientUnits="userSpaceOnUse" r="2.50025">
        <stop offset="0" stop-color="#ffffff" stop-opacity="0.987395"/>
        <stop offset="1" stop-color="#ffffff" stop-opacity="0"/>
    </radialGradient>
    <clipPath id="p">
        <rect height="152" width="192"/>
    </clipPath>
    <radialGradient id="q" cx="134.309021" cy="55.279427" gradientTransform="matrix(-0.548623 0 0 0.519592 169.842184 31.243076)" r="58.46003" xlink:href="#i"/>
    <linearGradient id="r" gradientTransform="matrix(-0.217853 0 0 0.217853 125.599719 -6.77617)" x1="187.241974" x2="187.241974" xlink:href="#k" y1="398.638062" y2="250.859772"/>
    <mask id="s">
        <g filter="url(#m)">
            <rect fill-opacity="0.187" height="128" width="128"/>
        </g>
    </mask>
    <clipPath id="t">
        <rect height="152" width="192"/>
    </clipPath>
    <mask id="u">
        <g filter="url(#m)">
            <rect fill-opacity="0.1" height="128" width="128"/>
        </g>
    </mask>
    <clipPath id="v">
        <rect height="152" width="192"/>
    </clipPath>
    <radialGradient id="w" cx="95.94432577866" cy="80.95407576309" gradientUnits="userSpaceOnUse" r="5.031738">
        <stop offset="0" stop-color="#c64600"/>
        <stop offset="1" stop-color="#c64600" stop-opacity="0"/>
    </radialGradient>
    <linearGradient id="x" gradientUnits="userSpaceOnUse" x1="45.999973" x2="57.999975" y1="98.000041" y2="98.000041">
        <stop offset="0" stop-color="#c0bfbc"/>
        <stop offset="0.244984" stop-color="#e1e0df"/>
        <stop offset="0.85872" stop-color="#82807a"/>
        <stop offset="1" stop-color="#c0bfbc"/>
    </linearGradient>
    <mask id="y">
        <g filter="url(#m)">
            <rect fill-opacity="0.56294" height="128" width="128"/>
        </g>
    </mask>
    <clipPath id="z">
        <rect height="152" width="192"/>
    </clipPath>
    <path d="m 16 40 c -4.433594 0 -8 3.566406 -8 8 v 60 c 0 4.433594 3.566406 8 8 8 h 96 c 4.433594 0 8 -3.566406 8 -8 v -60 c 0 -4.433594 -3.566406 -8 -8 -8 z m 0 0" fill="#c64600"/>
    <path d="m 60 36 v 78 h 52 c 4.433594 0 8 -3.566406 8 -8 v -61.644531 c 0 -4.433594 -3.566406 -8 -8 -8 z m 0 0" fill="url(#b)"/>
    <path d="m 60 28 v 86 h -44 c -4.433594 0 -8 -3.566406 -8 -8 v -70 c 0 -4.433594 3.566406 -8 8 -8 z m 0 0" fill="url(#c)"/>
    <path d="m 68 36 v 78 h -52 c -4.433594 0 -8 -3.566406 -8 -8 v -61.644531 c 0 -4.433594 3.566406 -8 8 -8 z m 0 0" fill="url(#d)"/>
    <path d="m 72 20 c -4.433594 0 -8 3.566406 -8 8 v 86 c 0 -4.433594 3.566406 -8 8 -8 h 40 c 4.433594 0 8 -3.566406 8 -8 v -70 c 0 -4.433594 -3.566406 -8 -8 -8 z m 0 0" fill="url(#f)"/>
    <path d="m 56 20 c 4.433594 0 8 3.566406 8 8 v 86 c 0 -4.433594 -3.566406 -8 -8 -8 h -40 c -4.433594 0 -8 -3.566406 -8 -8 v -70 c 0 -4.433594 3.566406 -8 8 -8 z m 0 0" fill="url(#g)"/>
    <path d="m 63.996094 6.292969 c -12.417969 0 -24.117188 4.421875 -31.378906 14 c -1.550782 2.046875 -2.402344 7.035156 0.765624 8.863281 l 2.605469 1.441406 c 0.925781 0.535156 2.105469 0.21875 2.640625 -0.707031 c 5.238282 -9.066406 14.617188 -15.617187 25.367188 -15.617187 s 20.132812 6.550781 25.371094 15.617187 c 0.53125 0.925781 1.714843 1.242187 2.636718 0.707031 l 2.457032 -1.25 c 3.722656 -2.148437 2.003906 -7.160156 1.035156 -8.835937 c -7.246094 -9.714844 -19 -14.21875 -31.5 -14.21875 z m 0 0" fill="url(#h)"/>
    <path d="m 31.90624704408 42.24606811854 c 0 -17.69531065306 14.3476551163 -32.03905828167 32.04296576937 -32.03905828167 s 32.04296475073 14.34374762861 32.04296475073 32.03905828167" fill="none" stroke="#77767b" stroke-linejoin="bevel" stroke-width="2.17852625412"/>
    <path d="m 95.9999905023 42.09372499292 v 16.32812287976" fill="none" stroke="#70727b" stroke-linejoin="bevel" stroke-width="2.17852625412"/>
    <path d="m 31.89843410596 42.09372499292 v 16.32812287976" fill="none" stroke="#70727b" stroke-linejoin="bevel" stroke-width="2.17852625412"/>
    <path d="m 87.515625 22.558594 c 1.8125 2.183594 3.359375 4.597656 4.578125 7.199218 c 0.585938 -0.523437 1.371094 -0.945312 2.15625 -1.113281 c -1.019531 -2.15625 -2.25 -4.195312 -3.664062 -6.085937 z m 0 0" fill="#c64600"/>
    <path d="m 40.585938 22.210938 c -1.878907 2.261718 -3.476563 4.757812 -4.738282 7.449218 c -0.605468 -0.539062 -1.414062 -0.976562 -2.230468 -1.152344 c 1.054687 -2.230468 2.328124 -4.335937 3.789062 -6.296874 z m 0 0" fill="#c64600"/>
    <path d="m 63.996094 4.089844 c -12.265625 0 -23.71875 5.8125 -30.972656 15.488281 c 0 0 -3.476563 5.628906 0.84375 8.121094 l 1.378906 0.796875 c 0.949218 0.546875 2.160156 0.222656 2.707031 -0.726563 c 5.378906 -9.308593 15.292969 -15.035156 26.042969 -15.035156 s 20.667968 5.726563 26.042968 15.035156 c 0.546876 0.949219 1.761719 1.273438 2.710938 0.726563 l 1.417969 -0.820313 c 4.132812 -2.234375 0.792969 -8.109375 0.792969 -8.109375 c -7.253907 -9.667968 -18.703126 -15.476562 -30.964844 -15.476562 z m 0 0" fill="#ff7800"/>
    <path d="m 63.996094 9.273438 c -14.601563 0 -23.761719 7.527343 -29.933594 18.21875 c -0.046875 0.078124 -0.085938 0.164062 -0.117188 0.253906 l 1.300782 0.75 c 0.949218 0.546875 2.160156 0.222656 2.707031 -0.726563 c 5.378906 -9.308593 15.292969 -15.035156 26.042969 -15.035156 s 20.667968 5.726563 26.042968 15.035156 c 0.546876 0.949219 1.761719 1.273438 2.710938 0.726563 l 1.300781 -0.75 c -0.03125 -0.089844 -0.074219 -0.175782 -0.121093 -0.253906 c -6.171876 -10.691407 -15.328126 -18.21875 -29.933594 -18.21875 z m 0 0" fill="#e66100"/>
    <path d="m 40.84375 65.3125 c 0 6.890625 -5.585938 12.476562 -12.480469 12.476562 c -6.890625 0 -12.476562 -5.585937 -12.476562 -12.476562 c 0 -6.894531 5.585937 -12.480469 12.476562 -12.480469 c 6.894531 0 12.480469 5.585938 12.480469 12.480469 z m 0 0" fill="#3d3846"/>
    <path d="m 21.226562 55.09375 c -0.140624 0.097656 -0.28125 0.199219 -0.421874 0.300781 c -0.011719 0.042969 -0.019532 0.089844 -0.019532 0.136719 c 0 0.238281 0.195313 0.433594 0.433594 0.433594 c 0.242188 0 0.4375 -0.195313 0.4375 -0.433594 s -0.191406 -0.433594 -0.429688 -0.4375 z m -0.878906 0.871094 c -0.238281 0 -0.433594 0.195312 -0.433594 0.4375 c 0 0.238281 0.195313 0.433594 0.433594 0.433594 c 0.242188 0 0.4375 -0.195313 0.4375 -0.433594 c 0 -0.242188 -0.195312 -0.4375 -0.4375 -0.4375 z m -0.871094 0.871094 c -0.238281 0 -0.433593 0.195312 -0.433593 0.4375 c 0 0.238281 0.195312 0.433593 0.433593 0.433593 c 0.242188 0 0.4375 -0.195312 0.4375 -0.433593 c 0 -0.242188 -0.195312 -0.4375 -0.4375 -0.4375 z m 1.742188 0 c -0.238281 0 -0.433594 0.195312 -0.433594 0.4375 c 0 0.238281 0.195313 0.433593 0.433594 0.433593 c 0.242188 0 0.4375 -0.195312 0.4375 -0.433593 c 0 -0.242188 -0.195312 -0.4375 -0.4375 -0.4375 z m -2.613281 0.871093 c -0.042969 0 -0.089844 0.007813 -0.132813 0.023438 c -0.101562 0.128906 -0.203125 0.261719 -0.300781 0.398437 v 0.015625 c 0 0.242188 0.195313 0.433594 0.433594 0.433594 c 0.242187 0 0.4375 -0.191406 0.4375 -0.433594 c 0 -0.242187 -0.195313 -0.4375 -0.4375 -0.4375 z m 1.742187 0 c -0.238281 0 -0.433594 0.195313 -0.433594 0.4375 c 0 0.242188 0.195313 0.433594 0.433594 0.433594 c 0.242188 0 0.4375 -0.191406 0.4375 -0.433594 c 0 -0.242187 -0.195312 -0.4375 -0.4375 -0.4375 z m -0.871094 0.871094 c -0.238281 0 -0.433593 0.195313 -0.433593 0.4375 s 0.195312 0.4375 0.433593 0.4375 c 0.242188 0 0.4375 -0.195313 0.4375 -0.4375 s -0.195312 -0.4375 -0.4375 -0.4375 z m 1.742188 0 c -0.238281 0 -0.433594 0.195313 -0.433594 0.4375 s 0.195313 0.4375 0.433594 0.4375 c 0.242188 0 0.4375 -0.195313 0.4375 -0.4375 s -0.195312 -0.4375 -0.4375 -0.4375 z m -3.355469 0.019531 c -0.15625 0.234375 -0.304687 0.476563 -0.441406 0.71875 c 0.082031 0.085938 0.195313 0.132813 0.3125 0.136719 c 0.242187 0 0.4375 -0.195313 0.4375 -0.4375 c 0 -0.191406 -0.125 -0.359375 -0.308594 -0.417969 z m 0.742188 0.855469 c -0.238281 0 -0.433594 0.191406 -0.433594 0.433594 c 0 0.242187 0.195313 0.4375 0.433594 0.4375 c 0.242187 0 0.4375 -0.195313 0.4375 -0.4375 c 0 -0.242188 -0.195313 -0.433594 -0.4375 -0.433594 z m 1.742187 0 c -0.238281 0 -0.433594 0.191406 -0.433594 0.433594 c 0 0.242187 0.195313 0.4375 0.433594 0.4375 c 0.242188 0 0.4375 -0.195313 0.4375 -0.4375 c 0 -0.242188 -0.195312 -0.433594 -0.4375 -0.433594 z m -3.101562 0.226563 c -0.109375 0.207031 -0.210938 0.421874 -0.308594 0.636718 c 0.207031 -0.035156 0.363281 -0.21875 0.363281 -0.429687 c 0 -0.074219 -0.019531 -0.144531 -0.054687 -0.207031 z m 0.488281 0.644531 c -0.242187 0 -0.433594 0.195312 -0.433594 0.433593 c 0 0.242188 0.191407 0.4375 0.433594 0.4375 s 0.4375 -0.195312 0.4375 -0.4375 c 0 -0.238281 -0.195313 -0.433593 -0.4375 -0.433593 z m 1.742187 0 c -0.238281 0 -0.433593 0.195312 -0.433593 0.433593 c 0 0.242188 0.195312 0.4375 0.433593 0.4375 c 0.242188 0 0.4375 -0.195312 0.4375 -0.4375 c 0 -0.238281 -0.195312 -0.433593 -0.4375 -0.433593 z m 1.742188 0 c -0.238281 0 -0.433594 0.195312 -0.433594 0.433593 c 0 0.242188 0.195313 0.4375 0.433594 0.4375 c 0.242188 0 0.4375 -0.195312 0.4375 -0.4375 c 0 -0.238281 -0.195312 -0.433593 -0.4375 -0.433593 z m -4.355469 0.871093 c -0.117187 0 -0.226562 0.046876 -0.308593 0.128907 c -0.042969 0.117187 -0.085938 0.234375 -0.125 0.351562 c 0.023437 0.222657 0.210937 0.390625 0.433593 0.390625 c 0.242188 0 0.4375 -0.195312 0.4375 -0.4375 c 0 -0.238281 -0.195312 -0.433594 -0.4375 -0.433594 z m 1.742188 0 c -0.238281 0 -0.433594 0.195313 -0.433594 0.433594 c 0 0.242188 0.195313 0.4375 0.433594 0.4375 c 0.242187 0 0.4375 -0.195312 0.4375 -0.4375 c 0 -0.238281 -0.195313 -0.433594 -0.4375 -0.433594 z m 1.742187 0 c -0.238281 0 -0.433594 0.195313 -0.433594 0.433594 c 0 0.242188 0.195313 0.4375 0.433594 0.4375 c 0.242188 0 0.4375 -0.195312 0.4375 -0.4375 c 0 -0.238281 -0.195312 -0.433594 -0.4375 -0.433594 z m -2.613281 0.871094 c -0.242187 0 -0.433594 0.195313 -0.433594 0.433594 c 0 0.242188 0.191407 0.4375 0.433594 0.4375 s 0.4375 -0.195312 0.4375 -0.4375 c 0 -0.238281 -0.195313 -0.433594 -0.4375 -0.433594 z m 1.742187 0 c -0.238281 0 -0.433593 0.195313 -0.433593 0.433594 c 0 0.242188 0.195312 0.4375 0.433593 0.4375 c 0.242188 0 0.4375 -0.195312 0.4375 -0.4375 c 0 -0.238281 -0.195312 -0.433594 -0.4375 -0.433594 z m 1.742188 0 c -0.238281 0 -0.433594 0.195313 -0.433594 0.433594 c 0 0.242188 0.195313 0.4375 0.433594 0.4375 c 0.242188 0 0.4375 -0.195312 0.4375 -0.4375 c 0 -0.238281 -0.195312 -0.433594 -0.4375 -0.433594 z m -4.917969 0.125 c -0.066406 0.242188 -0.125 0.480469 -0.179687 0.726563 c 0.183594 -0.058594 0.304687 -0.226563 0.304687 -0.417969 c 0 -0.113281 -0.042969 -0.226562 -0.125 -0.308594 z m 0.5625 0.746094 c -0.242187 0 -0.4375 0.195312 -0.4375 0.433594 c 0 0.242187 0.195313 0.4375 0.4375 0.4375 c 0.242188 0 0.4375 -0.195313 0.4375 -0.4375 c 0 -0.238282 -0.195312 -0.433594 -0.4375 -0.433594 z m 1.742188 0 c -0.238281 0 -0.433594 0.195312 -0.433594 0.433594 c 0 0.242187 0.195313 0.4375 0.433594 0.4375 c 0.242187 0 0.4375 -0.195313 0.4375 -0.4375 c 0 -0.238282 -0.195313 -0.433594 -0.4375 -0.433594 z m 1.742187 0 c -0.238281 0 -0.433594 0.195312 -0.433594 0.433594 c 0 0.242187 0.195313 0.4375 0.433594 0.4375 c 0.242188 0 0.4375 -0.195313 0.4375 -0.4375 c 0 -0.238282 -0.195312 -0.433594 -0.4375 -0.433594 z m -4.359375 0.871094 c -0.035156 0.289062 -0.054687 0.574218 -0.070312 0.863281 c 0.023437 0.003906 0.050781 0.007813 0.074219 0.007813 c 0.242187 0 0.433593 -0.195313 0.433593 -0.4375 c 0 -0.238282 -0.191406 -0.433594 -0.433593 -0.433594 z m 1.746094 0 c -0.242187 0 -0.433594 0.195312 -0.433594 0.433594 c 0 0.242187 0.191407 0.4375 0.433594 0.4375 s 0.4375 -0.195313 0.4375 -0.4375 c 0 -0.238282 -0.195313 -0.433594 -0.4375 -0.433594 z m 1.742187 0 c -0.238281 0 -0.433593 0.195312 -0.433593 0.433594 c 0 0.242187 0.195312 0.4375 0.433593 0.4375 c 0.242188 0 0.4375 -0.195313 0.4375 -0.4375 c 0 -0.238282 -0.195312 -0.433594 -0.4375 -0.433594 z m 1.742188 0 c -0.238281 0 -0.433594 0.195312 -0.433594 0.433594 c 0 0.242187 0.195313 0.4375 0.433594 0.4375 c 0.242188 0 0.4375 -0.195313 0.4375 -0.4375 c 0 -0.238282 -0.195312 -0.433594 -0.4375 -0.433594 z m -4.355469 0.871094 c -0.242187 0 -0.4375 0.195312 -0.4375 0.4375 c 0 0.238281 0.195313 0.433593 0.4375 0.433593 c 0.242188 0 0.4375 -0.195312 0.4375 -0.433593 c 0 -0.242188 -0.195312 -0.4375 -0.4375 -0.4375 z m 1.742188 0 c -0.238281 0 -0.433594 0.195312 -0.433594 0.4375 c 0 0.238281 0.195313 0.433593 0.433594 0.433593 c 0.242187 0 0.4375 -0.195312 0.4375 -0.433593 c 0 -0.242188 -0.195313 -0.4375 -0.4375 -0.4375 z m 1.742187 0 c -0.238281 0 -0.433594 0.195312 -0.433594 0.4375 c 0 0.238281 0.195313 0.433593 0.433594 0.433593 c 0.242188 0 0.4375 -0.195312 0.4375 -0.433593 c 0 -0.242188 -0.195312 -0.4375 -0.4375 -0.4375 z m -4.355468 0.871093 c -0.03125 0 -0.066407 0.003907 -0.097657 0.011719 c 0.007813 0.285156 0.023438 0.570312 0.050781 0.859375 h 0.046876 c 0.242187 0 0.433593 -0.195313 0.433593 -0.433594 c 0 -0.242187 -0.191406 -0.4375 -0.433593 -0.4375 z m 1.742187 0 c -0.242187 0 -0.433594 0.195313 -0.433594 0.4375 c 0 0.238281 0.191407 0.433594 0.433594 0.433594 s 0.4375 -0.195313 0.4375 -0.433594 c 0 -0.242187 -0.195313 -0.4375 -0.4375 -0.4375 z m 1.742187 0 c -0.238281 0 -0.433593 0.195313 -0.433593 0.4375 c 0 0.238281 0.195312 0.433594 0.433593 0.433594 c 0.242188 0 0.4375 -0.195313 0.4375 -0.433594 c 0 -0.242187 -0.195312 -0.4375 -0.4375 -0.4375 z m 1.742188 0 c -0.238281 0 -0.433594 0.195313 -0.433594 0.4375 c 0 0.238281 0.195313 0.433594 0.433594 0.433594 c 0.242188 0 0.4375 -0.195313 0.4375 -0.433594 c 0 -0.242187 -0.195312 -0.4375 -0.4375 -0.4375 z m -4.355469 0.871094 c -0.242187 0 -0.4375 0.195313 -0.4375 0.4375 c 0 0.238281 0.195313 0.433594 0.4375 0.433594 c 0.242188 0 0.4375 -0.195313 0.4375 -0.433594 c 0 -0.242187 -0.195312 -0.4375 -0.4375 -0.4375 z m 1.742188 0 c -0.238281 0 -0.433594 0.195313 -0.433594 0.4375 c 0 0.238281 0.195313 0.433594 0.433594 0.433594 c 0.242187 0 0.4375 -0.195313 0.4375 -0.433594 c 0 -0.242187 -0.195313 -0.4375 -0.4375 -0.4375 z m 1.742187 0 c -0.238281 0 -0.433594 0.195313 -0.433594 0.4375 c 0 0.238281 0.195313 0.433594 0.433594 0.433594 c 0.242188 0 0.4375 -0.195313 0.4375 -0.433594 c 0 -0.242187 -0.195312 -0.4375 -0.4375 -0.4375 z m -2.613281 0.871094 c -0.242187 0 -0.433594 0.195312 -0.433594 0.4375 c 0 0.238281 0.191407 0.433593 0.433594 0.433593 s 0.4375 -0.195312 0.4375 -0.433593 c 0 -0.242188 -0.195313 -0.4375 -0.4375 -0.4375 z m 1.742187 0 c -0.238281 0 -0.433593 0.195312 -0.433593 0.4375 c 0 0.238281 0.195312 0.433593 0.433593 0.433593 c 0.242188 0 0.4375 -0.195312 0.4375 -0.433593 c 0 -0.242188 -0.195312 -0.4375 -0.4375 -0.4375 z m 1.742188 0 c -0.238281 0 -0.433594 0.195312 -0.433594 0.4375 c 0 0.238281 0.195313 0.433593 0.433594 0.433593 c 0.242188 0 0.4375 -0.195312 0.4375 -0.433593 c 0 -0.242188 -0.195312 -0.4375 -0.4375 -0.4375 z m -5.167969 0.003906 c 0.046875 0.269531 0.105469 0.539063 0.167969 0.804687 c 0.128906 -0.078124 0.207031 -0.21875 0.207031 -0.371093 c 0 -0.21875 -0.160156 -0.402344 -0.375 -0.433594 z m 0.8125 0.867187 c -0.242187 0 -0.4375 0.195313 -0.4375 0.4375 c 0 0.238282 0.195313 0.433594 0.4375 0.433594 c 0.242188 0 0.4375 -0.195312 0.4375 -0.433594 c 0 -0.242187 -0.195312 -0.4375 -0.4375 -0.4375 z m 1.742188 0 c -0.238281 0 -0.433594 0.195313 -0.433594 0.4375 c 0 0.238282 0.195313 0.433594 0.433594 0.433594 c 0.242187 0 0.4375 -0.195312 0.4375 -0.433594 c 0 -0.242187 -0.195313 -0.4375 -0.4375 -0.4375 z m 1.742187 0 c -0.238281 0 -0.433594 0.195313 -0.433594 0.4375 c 0 0.238282 0.195313 0.433594 0.433594 0.433594 c 0.242188 0 0.4375 -0.195312 0.4375 -0.433594 c 0 -0.242187 -0.195312 -0.4375 -0.4375 -0.4375 z m -2.613281 0.871094 c -0.242187 0 -0.433594 0.195313 -0.433594 0.4375 c 0 0.242188 0.191407 0.4375 0.433594 0.4375 s 0.4375 -0.195312 0.4375 -0.4375 c 0 -0.242187 -0.195313 -0.4375 -0.4375 -0.4375 z m 1.742187 0 c -0.238281 0 -0.433593 0.195313 -0.433593 0.4375 c 0 0.242188 0.195312 0.4375 0.433593 0.4375 c 0.242188 0 0.4375 -0.195312 0.4375 -0.4375 c 0 -0.242187 -0.195312 -0.4375 -0.4375 -0.4375 z m 1.742188 0 c -0.238281 0 -0.433594 0.195313 -0.433594 0.4375 c 0 0.242188 0.195313 0.4375 0.433594 0.4375 c 0.242188 0 0.4375 -0.195312 0.4375 -0.4375 c 0 -0.242187 -0.195312 -0.4375 -0.4375 -0.4375 z m -4.355469 0.875 c -0.03125 0 -0.058593 0 -0.089843 0.007813 c 0.105468 0.261719 0.222656 0.523437 0.347656 0.777343 c 0.113281 -0.082031 0.179687 -0.214843 0.179687 -0.351562 c 0 -0.242188 -0.195312 -0.433594 -0.4375 -0.433594 z m 1.742188 0 c -0.238281 0 -0.433594 0.191406 -0.433594 0.433594 s 0.195313 0.4375 0.433594 0.4375 c 0.242187 0 0.4375 -0.195312 0.4375 -0.4375 s -0.195313 -0.433594 -0.4375 -0.433594 z m 1.742187 0 c -0.238281 0 -0.433594 0.191406 -0.433594 0.433594 s 0.195313 0.4375 0.433594 0.4375 c 0.242188 0 0.4375 -0.195312 0.4375 -0.4375 s -0.195312 -0.433594 -0.4375 -0.433594 z m -2.613281 0.871094 c -0.195313 0 -0.363281 0.128906 -0.417969 0.316406 c 0.097656 0.179688 0.203125 0.363282 0.308594 0.539063 c 0.035156 0.007812 0.074219 0.015625 0.109375 0.015625 c 0.242187 0 0.4375 -0.195313 0.4375 -0.4375 c 0 -0.238282 -0.195313 -0.433594 -0.4375 -0.433594 z m 1.742187 0 c -0.238281 0 -0.433593 0.195312 -0.433593 0.433594 c 0 0.242187 0.195312 0.4375 0.433593 0.4375 c 0.242188 0 0.4375 -0.195313 0.4375 -0.4375 c 0 -0.238282 -0.195312 -0.433594 -0.4375 -0.433594 z m 1.742188 0 c -0.238281 0 -0.433594 0.195312 -0.433594 0.433594 c 0 0.242187 0.195313 0.4375 0.433594 0.4375 c 0.242188 0 0.4375 -0.195313 0.4375 -0.4375 c 0 -0.238282 -0.195312 -0.433594 -0.4375 -0.433594 z m -2.613281 0.871094 c -0.238281 0 -0.433594 0.195312 -0.433594 0.433594 c 0 0.242187 0.195313 0.4375 0.433594 0.4375 c 0.242187 0 0.4375 -0.195313 0.4375 -0.4375 c 0 -0.238282 -0.195313 -0.433594 -0.4375 -0.433594 z m 1.742187 0 c -0.238281 0 -0.433594 0.195312 -0.433594 0.433594 c 0 0.242187 0.195313 0.4375 0.433594 0.4375 c 0.242188 0 0.4375 -0.195313 0.4375 -0.4375 c 0 -0.238282 -0.195312 -0.433594 -0.4375 -0.433594 z m -0.871094 0.871094 c -0.238281 0 -0.433593 0.195312 -0.433593 0.433593 c 0 0.242188 0.195312 0.4375 0.433593 0.4375 c 0.242188 0 0.4375 -0.195312 0.4375 -0.4375 c 0 -0.238281 -0.195312 -0.433593 -0.4375 -0.433593 z m 1.742188 0 c -0.238281 0 -0.433594 0.195312 -0.433594 0.433593 c 0 0.242188 0.195313 0.4375 0.433594 0.4375 c 0.242188 0 0.4375 -0.195312 0.4375 -0.4375 c 0 -0.238281 -0.195312 -0.433593 -0.4375 -0.433593 z m -0.871094 0.871093 c -0.238281 0 -0.433594 0.195313 -0.433594 0.433594 c 0 0.242187 0.195313 0.4375 0.433594 0.4375 c 0.242188 0 0.4375 -0.195313 0.4375 -0.4375 c 0 -0.238281 -0.195312 -0.433594 -0.4375 -0.433594 z m 0.871094 0.871094 c -0.238281 0 -0.433594 0.195313 -0.433594 0.433594 c 0 0.242187 0.195313 0.4375 0.433594 0.4375 c 0.242188 0 0.4375 -0.195313 0.4375 -0.4375 c 0 -0.238281 -0.195312 -0.433594 -0.4375 -0.433594 z m 0 0" fill="#241f31"/>
    <path d="m 33.832031 44.949219 c -3.726562 0 -7.445312 1.09375 -10.582031 3.105469 c -1.171875 0.753906 -1.878906 2.050781 -1.878906 3.441406 v 27.375 c 0 1.390625 0.703125 2.6875 1.871094 3.4375 c 3.132812 2.023437 6.855468 3.121094 10.582031 3.128906 h 0.011719 c 4.496093 -0.003906 8.050781 -1.617188 11.519531 -4.476562 c 0.941406 -0.777344 1.484375 -1.933594 1.484375 -3.15625 v -25.226563 c 0 -1.222656 -0.542969 -2.378906 -1.488282 -3.15625 c -3.46875 -2.859375 -7.019531 -4.46875 -11.515624 -4.472656 z m 0 0" fill="url(#j)"/>
    <path d="m 37.914062 45.445312 v 39.496094 c 2.699219 -0.679687 5.089844 -2.039062 7.441407 -3.980468 c 0.941406 -0.777344 1.484375 -1.933594 1.484375 -3.15625 v -25.226563 c 0 -1.222656 -0.542969 -2.378906 -1.488282 -3.15625 c -2.351562 -1.9375 -4.742187 -3.296875 -7.4375 -3.976563 z m 0 0" fill="url(#l)"/>
    <g clip-path="url(#p)" mask="url(#n)" transform="matrix(1 0 0 1 -8 -16)">
        <path d="m 90.224109 7.752846 v 121.498014" fill="none" stroke="url(#o)" stroke-linecap="round" stroke-linejoin="bevel" stroke-width="5" transform="matrix(0.217853 0 0 0.217853 10.485 65.865704)"/>
    </g>
    <path d="m 87.242188 65.3125 c 0 6.890625 5.585937 12.476562 12.476562 12.476562 s 12.480469 -5.585937 12.480469 -12.476562 c 0 -6.894531 -5.589844 -12.480469 -12.480469 -12.480469 s -12.476562 5.585938 -12.476562 12.480469 z m 0 0" fill="#3d3846"/>
    <path d="m 106.859375 55.09375 c 0.140625 0.097656 0.28125 0.199219 0.417969 0.300781 c 0.015625 0.042969 0.023437 0.089844 0.023437 0.136719 c 0 0.238281 -0.195312 0.433594 -0.4375 0.433594 c -0.238281 0 -0.433593 -0.195313 -0.433593 -0.433594 s 0.191406 -0.433594 0.429687 -0.4375 z m 0.875 0.871094 c 0.242187 0 0.4375 0.195312 0.4375 0.4375 c 0 0.238281 -0.195313 0.433594 -0.4375 0.433594 c -0.238281 0 -0.433594 -0.195313 -0.433594 -0.433594 c 0 -0.242188 0.195313 -0.4375 0.433594 -0.4375 z m 0.871094 0.871094 c 0.242187 0 0.4375 0.195312 0.4375 0.4375 c 0 0.238281 -0.195313 0.433593 -0.4375 0.433593 c -0.238281 0 -0.433594 -0.195312 -0.433594 -0.433593 c 0 -0.242188 0.195313 -0.4375 0.433594 -0.4375 z m -1.742188 0 c 0.242188 0 0.4375 0.195312 0.4375 0.4375 c 0 0.238281 -0.195312 0.433593 -0.4375 0.433593 c -0.238281 0 -0.433593 -0.195312 -0.433593 -0.433593 c 0 -0.242188 0.195312 -0.4375 0.433593 -0.4375 z m 2.617188 0.871093 c 0.042969 0 0.085937 0.007813 0.128906 0.023438 c 0.105469 0.128906 0.207031 0.261719 0.304687 0.398437 v 0.015625 c 0 0.242188 -0.195312 0.433594 -0.433593 0.433594 c -0.242188 0 -0.4375 -0.191406 -0.4375 -0.433594 c 0 -0.242187 0.195312 -0.4375 0.4375 -0.4375 z m -1.746094 0 c 0.242187 0 0.4375 0.195313 0.4375 0.4375 c 0 0.238281 -0.195313 0.433594 -0.4375 0.433594 c -0.238281 0 -0.433594 -0.195313 -0.433594 -0.433594 c 0 -0.242187 0.195313 -0.4375 0.433594 -0.4375 z m 0.871094 0.871094 c 0.242187 0 0.4375 0.195313 0.4375 0.4375 s -0.195313 0.4375 -0.4375 0.4375 c -0.238281 0 -0.433594 -0.195313 -0.433594 -0.4375 s 0.195313 -0.4375 0.433594 -0.4375 z m -1.742188 0 c 0.242188 0 0.4375 0.195313 0.4375 0.4375 s -0.195312 0.4375 -0.4375 0.4375 c -0.238281 0 -0.433593 -0.195313 -0.433593 -0.4375 s 0.195312 -0.4375 0.433593 -0.4375 z m 3.359375 0.019531 c 0.15625 0.234375 0.300782 0.476563 0.441406 0.71875 c -0.082031 0.085938 -0.195312 0.132813 -0.3125 0.136719 c -0.242187 0 -0.4375 -0.195313 -0.4375 -0.4375 c 0 -0.191406 0.125 -0.359375 0.308594 -0.417969 z m -0.742187 0.855469 c 0.238281 0 0.433593 0.191406 0.433593 0.433594 c 0 0.242187 -0.195312 0.4375 -0.433593 0.4375 c -0.242188 0 -0.4375 -0.195313 -0.4375 -0.4375 c 0 -0.242188 0.195312 -0.433594 0.4375 -0.433594 z m -1.746094 0 c 0.242187 0 0.4375 0.191406 0.4375 0.433594 c 0 0.242187 -0.195313 0.4375 -0.4375 0.4375 c -0.238281 0 -0.433594 -0.195313 -0.433594 -0.4375 c 0 -0.242188 0.195313 -0.433594 0.433594 -0.433594 z m 3.105469 0.226563 c 0.109375 0.207031 0.210937 0.421874 0.308594 0.636718 c -0.210938 -0.035156 -0.363282 -0.21875 -0.363282 -0.429687 c 0 -0.074219 0.019532 -0.144531 0.054688 -0.207031 z m -0.488282 0.644531 c 0.238282 0 0.433594 0.195312 0.433594 0.433593 c 0 0.242188 -0.195312 0.4375 -0.433594 0.4375 c -0.242187 0 -0.4375 -0.195312 -0.4375 -0.4375 c 0 -0.238281 0.195313 -0.433593 0.4375 -0.433593 z m -1.746093 0 c 0.242187 0 0.4375 0.195312 0.4375 0.433593 c 0 0.242188 -0.195313 0.4375 -0.4375 0.4375 c -0.238281 0 -0.433594 -0.195312 -0.433594 -0.4375 c 0 -0.238281 0.195313 -0.433593 0.433594 -0.433593 z m -1.742188 0 c 0.242188 0 0.4375 0.195312 0.4375 0.433593 c 0 0.242188 -0.195312 0.4375 -0.4375 0.4375 c -0.238281 0 -0.433593 -0.195312 -0.433593 -0.4375 c 0 -0.238281 0.195312 -0.433593 0.433593 -0.433593 z m 4.359375 0.871093 c 0.113282 0 0.226563 0.046876 0.308594 0.128907 c 0.042969 0.117187 0.082031 0.234375 0.121094 0.351562 c -0.023438 0.222657 -0.207032 0.390625 -0.429688 0.390625 c -0.242187 0 -0.4375 -0.195312 -0.4375 -0.4375 c 0 -0.238281 0.195313 -0.433594 0.4375 -0.433594 z m -1.742187 0 c 0.238281 0 0.433593 0.195313 0.433593 0.433594 c 0 0.242188 -0.195312 0.4375 -0.433593 0.4375 c -0.242188 0 -0.4375 -0.195312 -0.4375 -0.4375 c 0 -0.238281 0.195312 -0.433594 0.4375 -0.433594 z m -1.746094 0 c 0.242187 0 0.4375 0.195313 0.4375 0.433594 c 0 0.242188 -0.195313 0.4375 -0.4375 0.4375 c -0.238281 0 -0.433594 -0.195312 -0.433594 -0.4375 c 0 -0.238281 0.195313 -0.433594 0.433594 -0.433594 z m 2.617187 0.871094 c 0.238282 0 0.433594 0.195313 0.433594 0.433594 c 0 0.242188 -0.195312 0.4375 -0.433594 0.4375 c -0.242187 0 -0.4375 -0.195312 -0.4375 -0.4375 c 0 -0.238281 0.195313 -0.433594 0.4375 -0.433594 z m -1.746093 0 c 0.242187 0 0.4375 0.195313 0.4375 0.433594 c 0 0.242188 -0.195313 0.4375 -0.4375 0.4375 c -0.238281 0 -0.433594 -0.195312 -0.433594 -0.4375 c 0 -0.238281 0.195313 -0.433594 0.433594 -0.433594 z m -1.742188 0 c 0.242188 0 0.4375 0.195313 0.4375 0.433594 c 0 0.242188 -0.195312 0.4375 -0.4375 0.4375 c -0.238281 0 -0.433593 -0.195312 -0.433593 -0.4375 c 0 -0.238281 0.195312 -0.433594 0.433593 -0.433594 z m 4.921875 0.125 c 0.066406 0.242188 0.125 0.480469 0.175782 0.726563 c -0.179688 -0.058594 -0.304688 -0.226563 -0.304688 -0.417969 c 0 -0.113281 0.046875 -0.226562 0.128906 -0.308594 z m -0.5625 0.746094 c 0.238282 0 0.433594 0.195312 0.433594 0.433594 c 0 0.242187 -0.195312 0.4375 -0.433594 0.4375 c -0.242187 0 -0.4375 -0.195313 -0.4375 -0.4375 c 0 -0.238282 0.195313 -0.433594 0.4375 -0.433594 z m -1.742187 0 c 0.238281 0 0.433593 0.195312 0.433593 0.433594 c 0 0.242187 -0.195312 0.4375 -0.433593 0.4375 c -0.242188 0 -0.4375 -0.195313 -0.4375 -0.4375 c 0 -0.238282 0.195312 -0.433594 0.4375 -0.433594 z m -1.746094 0 c 0.242187 0 0.4375 0.195312 0.4375 0.433594 c 0 0.242187 -0.195313 0.4375 -0.4375 0.4375 c -0.238281 0 -0.433594 -0.195313 -0.433594 -0.4375 c 0 -0.238282 0.195313 -0.433594 0.433594 -0.433594 z m 4.363281 0.871094 c 0.03125 0.289062 0.054688 0.574218 0.066406 0.863281 c -0.023437 0.003906 -0.046874 0.007813 -0.070312 0.007813 c -0.242188 0 -0.4375 -0.195313 -0.4375 -0.4375 c 0 -0.238282 0.195312 -0.433594 0.4375 -0.433594 z m -1.746094 0 c 0.238282 0 0.433594 0.195312 0.433594 0.433594 c 0 0.242187 -0.195312 0.4375 -0.433594 0.4375 c -0.242187 0 -0.4375 -0.195313 -0.4375 -0.4375 c 0 -0.238282 0.195313 -0.433594 0.4375 -0.433594 z m -1.746093 0 c 0.242187 0 0.4375 0.195312 0.4375 0.433594 c 0 0.242187 -0.195313 0.4375 -0.4375 0.4375 c -0.238281 0 -0.433594 -0.195313 -0.433594 -0.4375 c 0 -0.238282 0.195313 -0.433594 0.433594 -0.433594 z m -1.742188 0 c 0.242188 0 0.4375 0.195312 0.4375 0.433594 c 0 0.242187 -0.195312 0.4375 -0.4375 0.4375 c -0.238281 0 -0.433593 -0.195313 -0.433593 -0.4375 c 0 -0.238282 0.195312 -0.433594 0.433593 -0.433594 z m 4.359375 0.871094 c 0.238282 0 0.433594 0.195312 0.433594 0.4375 c 0 0.238281 -0.195312 0.433593 -0.433594 0.433593 c -0.242187 0 -0.4375 -0.195312 -0.4375 -0.433593 c 0 -0.242188 0.195313 -0.4375 0.4375 -0.4375 z m -1.742187 0 c 0.238281 0 0.433593 0.195312 0.433593 0.4375 c 0 0.238281 -0.195312 0.433593 -0.433593 0.433593 c -0.242188 0 -0.4375 -0.195312 -0.4375 -0.433593 c 0 -0.242188 0.195312 -0.4375 0.4375 -0.4375 z m -1.746094 0 c 0.242187 0 0.4375 0.195312 0.4375 0.4375 c 0 0.238281 -0.195313 0.433593 -0.4375 0.433593 c -0.238281 0 -0.433594 -0.195312 -0.433594 -0.433593 c 0 -0.242188 0.195313 -0.4375 0.433594 -0.4375 z m 4.359375 0.871093 c 0.03125 0 0.0625 0.003907 0.09375 0.011719 c -0.003906 0.285156 -0.023438 0.570312 -0.046875 0.859375 c -0.015625 0 -0.03125 0 -0.046875 0 c -0.242188 0 -0.4375 -0.195313 -0.4375 -0.433594 c 0 -0.242187 0.195312 -0.4375 0.4375 -0.4375 z m -1.742188 0 c 0.238282 0 0.433594 0.195313 0.433594 0.4375 c 0 0.238281 -0.195312 0.433594 -0.433594 0.433594 c -0.242187 0 -0.4375 -0.195313 -0.4375 -0.433594 c 0 -0.242187 0.195313 -0.4375 0.4375 -0.4375 z m -1.746093 0 c 0.242187 0 0.4375 0.195313 0.4375 0.4375 c 0 0.238281 -0.195313 0.433594 -0.4375 0.433594 c -0.238281 0 -0.433594 -0.195313 -0.433594 -0.433594 c 0 -0.242187 0.195313 -0.4375 0.433594 -0.4375 z m -1.742188 0 c 0.242188 0 0.4375 0.195313 0.4375 0.4375 c 0 0.238281 -0.195312 0.433594 -0.4375 0.433594 c -0.238281 0 -0.433593 -0.195313 -0.433593 -0.433594 c 0 -0.242187 0.195312 -0.4375 0.433593 -0.4375 z m 4.359375 0.871094 c 0.238282 0 0.433594 0.195313 0.433594 0.4375 c 0 0.238281 -0.195312 0.433594 -0.433594 0.433594 c -0.242187 0 -0.4375 -0.195313 -0.4375 -0.433594 c 0 -0.242187 0.195313 -0.4375 0.4375 -0.4375 z m -1.742187 0 c 0.238281 0 0.433593 0.195313 0.433593 0.4375 c 0 0.238281 -0.195312 0.433594 -0.433593 0.433594 c -0.242188 0 -0.4375 -0.195313 -0.4375 -0.433594 c 0 -0.242187 0.195312 -0.4375 0.4375 -0.4375 z m -1.746094 0 c 0.242187 0 0.4375 0.195313 0.4375 0.4375 c 0 0.238281 -0.195313 0.433594 -0.4375 0.433594 c -0.238281 0 -0.433594 -0.195313 -0.433594 -0.433594 c 0 -0.242187 0.195313 -0.4375 0.433594 -0.4375 z m 2.617187 0.871094 c 0.238282 0 0.433594 0.195312 0.433594 0.4375 c 0 0.238281 -0.195312 0.433593 -0.433594 0.433593 c -0.242187 0 -0.4375 -0.195312 -0.4375 -0.433593 c 0 -0.242188 0.195313 -0.4375 0.4375 -0.4375 z m -1.746093 0 c 0.242187 0 0.4375 0.195312 0.4375 0.4375 c 0 0.238281 -0.195313 0.433593 -0.4375 0.433593 c -0.238281 0 -0.433594 -0.195312 -0.433594 -0.433593 c 0 -0.242188 0.195313 -0.4375 0.433594 -0.4375 z m -1.742188 0 c 0.242188 0 0.4375 0.195312 0.4375 0.4375 c 0 0.238281 -0.195312 0.433593 -0.4375 0.433593 c -0.238281 0 -0.433593 -0.195312 -0.433593 -0.433593 c 0 -0.242188 0.195312 -0.4375 0.433593 -0.4375 z m 5.167969 0.003906 c -0.046875 0.269531 -0.101562 0.539063 -0.164062 0.804687 c -0.128907 -0.078124 -0.210938 -0.21875 -0.210938 -0.371093 c 0 -0.21875 0.160156 -0.402344 0.375 -0.433594 z m -0.808594 0.867187 c 0.238282 0 0.433594 0.195313 0.433594 0.4375 c 0 0.238282 -0.195312 0.433594 -0.433594 0.433594 c -0.242187 0 -0.4375 -0.195312 -0.4375 -0.433594 c 0 -0.242187 0.195313 -0.4375 0.4375 -0.4375 z m -1.742187 0 c 0.238281 0 0.433593 0.195313 0.433593 0.4375 c 0 0.238282 -0.195312 0.433594 -0.433593 0.433594 c -0.242188 0 -0.4375 -0.195312 -0.4375 -0.433594 c 0 -0.242187 0.195312 -0.4375 0.4375 -0.4375 z m -1.746094 0 c 0.242187 0 0.4375 0.195313 0.4375 0.4375 c 0 0.238282 -0.195313 0.433594 -0.4375 0.433594 c -0.238281 0 -0.433594 -0.195312 -0.433594 -0.433594 c 0 -0.242187 0.195313 -0.4375 0.433594 -0.4375 z m 2.617187 0.871094 c 0.238282 0 0.433594 0.195313 0.433594 0.4375 c 0 0.242188 -0.195312 0.4375 -0.433594 0.4375 c -0.242187 0 -0.4375 -0.195312 -0.4375 -0.4375 c 0 -0.242187 0.195313 -0.4375 0.4375 -0.4375 z m -1.746093 0 c 0.242187 0 0.4375 0.195313 0.4375 0.4375 c 0 0.242188 -0.195313 0.4375 -0.4375 0.4375 c -0.238281 0 -0.433594 -0.195312 -0.433594 -0.4375 c 0 -0.242187 0.195313 -0.4375 0.433594 -0.4375 z m -1.742188 0 c 0.242188 0 0.4375 0.195313 0.4375 0.4375 c 0 0.242188 -0.195312 0.4375 -0.4375 0.4375 c -0.238281 0 -0.433593 -0.195312 -0.433593 -0.4375 c 0 -0.242187 0.195312 -0.4375 0.433593 -0.4375 z m 4.359375 0.875 c 0.027344 0 0.058594 0 0.089844 0.007813 c -0.109375 0.261719 -0.222656 0.523437 -0.347656 0.777343 c -0.113282 -0.082031 -0.179688 -0.214843 -0.179688 -0.351562 c 0 -0.242188 0.195313 -0.433594 0.4375 -0.433594 z m -1.742187 0 c 0.238281 0 0.433593 0.191406 0.433593 0.433594 s -0.195312 0.4375 -0.433593 0.4375 c -0.242188 0 -0.4375 -0.195312 -0.4375 -0.4375 s 0.195312 -0.433594 0.4375 -0.433594 z m -1.746094 0 c 0.242187 0 0.4375 0.191406 0.4375 0.433594 s -0.195313 0.4375 -0.4375 0.4375 c -0.238281 0 -0.433594 -0.195312 -0.433594 -0.4375 s 0.195313 -0.433594 0.433594 -0.433594 z m 2.617187 0.871094 c 0.191407 0 0.363282 0.128906 0.417969 0.316406 c -0.101562 0.179688 -0.203125 0.363282 -0.3125 0.539063 c -0.035156 0.007812 -0.070312 0.015625 -0.105469 0.015625 c -0.242187 0 -0.4375 -0.195313 -0.4375 -0.4375 c 0 -0.238282 0.195313 -0.433594 0.4375 -0.433594 z m -1.746093 0 c 0.242187 0 0.4375 0.195312 0.4375 0.433594 c 0 0.242187 -0.195313 0.4375 -0.4375 0.4375 c -0.238281 0 -0.433594 -0.195313 -0.433594 -0.4375 c 0 -0.238282 0.195313 -0.433594 0.433594 -0.433594 z m -1.742188 0 c 0.242188 0 0.4375 0.195312 0.4375 0.433594 c 0 0.242187 -0.195312 0.4375 -0.4375 0.4375 c -0.238281 0 -0.433593 -0.195313 -0.433593 -0.4375 c 0 -0.238282 0.195312 -0.433594 0.433593 -0.433594 z m 2.617188 0.871094 c 0.238281 0 0.433593 0.195312 0.433593 0.433594 c 0 0.242187 -0.195312 0.4375 -0.433593 0.4375 c -0.242188 0 -0.4375 -0.195313 -0.4375 -0.4375 c 0 -0.238282 0.195312 -0.433594 0.4375 -0.433594 z m -1.746094 0 c 0.242187 0 0.4375 0.195312 0.4375 0.433594 c 0 0.242187 -0.195313 0.4375 -0.4375 0.4375 c -0.238281 0 -0.433594 -0.195313 -0.433594 -0.4375 c 0 -0.238282 0.195313 -0.433594 0.433594 -0.433594 z m 0.871094 0.871094 c 0.242187 0 0.4375 0.195312 0.4375 0.433593 c 0 0.242188 -0.195313 0.4375 -0.4375 0.4375 c -0.238281 0 -0.433594 -0.195312 -0.433594 -0.4375 c 0 -0.238281 0.195313 -0.433593 0.433594 -0.433593 z m -1.742188 0 c 0.242188 0 0.4375 0.195312 0.4375 0.433593 c 0 0.242188 -0.195312 0.4375 -0.4375 0.4375 c -0.238281 0 -0.433593 -0.195312 -0.433593 -0.4375 c 0 -0.238281 0.195312 -0.433593 0.433593 -0.433593 z m 0.871094 0.871093 c 0.242187 0 0.4375 0.195313 0.4375 0.433594 c 0 0.242187 -0.195313 0.4375 -0.4375 0.4375 c -0.238281 0 -0.433594 -0.195313 -0.433594 -0.4375 c 0 -0.238281 0.195313 -0.433594 0.433594 -0.433594 z m -0.871094 0.871094 c 0.242188 0 0.4375 0.195313 0.4375 0.433594 c 0 0.242187 -0.195312 0.4375 -0.4375 0.4375 c -0.238281 0 -0.433593 -0.195313 -0.433593 -0.4375 c 0 -0.238281 0.195312 -0.433594 0.433593 -0.433594 z m 0 0" fill="#241f31"/>
    <path d="m 94.25 44.949219 c 3.726562 0 7.449219 1.09375 10.582031 3.105469 c 1.171875 0.753906 1.882813 2.050781 1.882813 3.441406 v 27.375 c 0 1.390625 -0.707032 2.6875 -1.875 3.4375 c -3.132813 2.023437 -6.851563 3.121094 -10.582032 3.128906 c -0.003906 0 -0.007812 0 -0.011718 0 c -4.496094 -0.003906 -8.046875 -1.617188 -11.515625 -4.476562 c -0.941407 -0.777344 -1.488281 -1.933594 -1.488281 -3.15625 v -25.226563 c 0 -1.222656 0.546874 -2.378906 1.492187 -3.15625 c 3.46875 -2.859375 7.019531 -4.46875 11.515625 -4.472656 z m 0 0" fill="url(#q)"/>
    <path d="m 90.167969 45.445312 v 39.496094 c -2.695313 -0.679687 -5.085938 -2.039062 -7.4375 -3.980468 c -0.941407 -0.777344 -1.488281 -1.933594 -1.488281 -3.15625 v -25.226563 c 0 -1.222656 0.546874 -2.378906 1.488281 -3.15625 c 2.351562 -1.9375 4.742187 -3.296875 7.4375 -3.976563 z m 0 0" fill="url(#r)"/>
    <g clip-path="url(#t)" mask="url(#s)" transform="matrix(1 0 0 1 -8 -16)">
        <path d="m 90.236449 7.752855 v 121.498014" fill="none" stroke="url(#o)" stroke-linecap="round" stroke-linejoin="bevel" stroke-width="5" transform="matrix(-0.217853 0 0 0.217853 133.599719 65.865702)"/>
    </g>
    <g clip-path="url(#v)" mask="url(#u)" transform="matrix(1 0 0 1 -8 -16)">
        <path d="m 128 116.65625 c -0.082031 4.089844 -3.378906 7.34375 -7.492188 7.34375 h -0.5 v 1 h 0.5 c 3.246094 0 6.058594 -1.8125 7.492188 -4.480469 z m -46 7.34375 l 38 1 v -1 z m 0 0"/>
        <path d="m 128 119.65625 c -0.082031 4.089844 -3.378906 7.34375 -7.492188 7.34375 h -0.5 v 1 h 0.5 c 3.222657 0 6.023438 -1.789062 7.460938 -4.425781 c 0.015625 -0.191407 0.03125 -0.382813 0.03125 -0.574219 z m -46 7.34375 l 38 1 v -1 z m 0 0"/>
    </g>
    <path d="m 87 101 v -5" fill="none" stroke="#9a9996" stroke-linecap="round" stroke-width="2"/>
    <path d="m 99 82 c 0 1.65625 -1.34375 3 -3 3 s -3 -1.34375 -3 -3 s 1.34375 -3 3 -3 s 3 1.34375 3 3 z m 0 0" fill="url(#w)"/>
    <path d="m 96 82 v 7 c 0 3.867188 -3.132812 7 -7 7 h -2" fill="none" stroke="#c0bfbc" stroke-linecap="round" stroke-width="2"/>
    <path d="m 58 98 c 0 3.3125 -2.6875 6 -6 6 s -6 -2.6875 -6 -6 s 2.6875 -6 6 -6 s 6 2.6875 6 6 z m 0 0" fill="url(#x)"/>
    <path d="m 58 96 c 0 3.3125 -2.6875 6 -6 6 s -6 -2.6875 -6 -6 s 2.6875 -6 6 -6 s 6 2.6875 6 6 z m 0 0" fill="#deddda"/>
    <path d="m 52 81.238281 c 2.210938 0 4 1.789063 4 4 v 10.761719 c 0 2.210938 -1.789062 4 -4 4 s -4 -1.789062 -4 -4 v -10.761719 c 0 -2.210937 1.789062 -4 4 -4 z m 0 0" fill="#77767b"/>
    <g clip-path="url(#z)" mask="url(#y)" transform="matrix(1 0 0 1 -8 -16)">
        <path d="m 60 97.238281 c -0.570312 0 -1.109375 0.121094 -1.601562 0.335938 c 1.414062 0.613281 2.402343 2.015625 2.402343 3.664062 l -0.027343 14.6875 c 1.84375 -0.359375 3.226562 -1.972656 3.226562 -3.925781 v -10.761719 c 0 -2.21875 -1.785156 -4 -4 -4 z m 0 0" fill="#5e5c64"/>
    </g>
    <g fill="none">
        <path d="m 71 93 v -20 c 0 -4.96875 -4.03125 -9 -9 -9 c -5.523438 0 -10 4.476562 -10 10 v 8" stroke="#c0bfbc" stroke-linecap="round" stroke-width="2"/>
        <path d="m 83 101 v -8" stroke="#9a9996" stroke-linecap="round" stroke-width="2"/>
        <path d="m 87 101 l -4 -8" stroke="#c0bfbc" stroke-linecap="round" stroke-width="2"/>
        <path d="m 79 101 v -8" stroke="#9a9996" stroke-linecap="round" stroke-width="2"/>
        <path d="m 83 101 l -4 -8" stroke="#c0bfbc" stroke-linecap="round" stroke-width="2"/>
        <path d="m 75 101 v -8" stroke="#9a9996" stroke-linecap="round" stroke-width="2"/>
        <path d="m 79 101 l -4 -8" stroke="#c0bfbc" stroke-linecap="round" stroke-width="2"/>
        <path d="m 75 101 l -4 -8" stroke="#c0bfbc" stroke-linecap="round" stroke-width="2"/>
    </g>
    <path d="m 51 86 c 0.550781 0 1 0.449219 1 1 v 10 c 0 0.550781 -0.449219 1 -1 1 s -1 -0.449219 -1 -1 v -10 c 0 -0.550781 0.449219 -1 1 -1 z m 0 0" fill="#9a9996"/>
</svg>
