<?xml version="1.0" encoding="utf-8"?>
<!-- Generator: Adobe Illustrator 16.0.0, SVG Export Plug-In . SVG Version: 6.00 Build 0)  -->
<!DOCTYPE svg PUBLIC "-//W3C//DTD SVG 1.1//EN" "http://www.w3.org/Graphics/SVG/1.1/DTD/svg11.dtd">
<svg version="1.1" id="Ebene_1" xmlns="http://www.w3.org/2000/svg" xmlns:xlink="http://www.w3.org/1999/xlink" x="0px" y="0px"
	 width="128px" height="128px" viewBox="0 0 128 128" enable-background="new 0 0 128 128" xml:space="preserve">
<g id="Ebene_1_1_">
	<g id="layer8">
		
			<radialGradient id="rect5951_1_" cx="-708.8984" cy="752.3652" r="11.3802" gradientTransform="matrix(4.8068 0 0 0.6263 3471.1846 -354.0776)" gradientUnits="userSpaceOnUse">
			<stop  offset="0" style="stop-color:#171717;stop-opacity:0.6"/>
			<stop  offset="1" style="stop-color:#171717;stop-opacity:0"/>
		</radialGradient>
		<path id="rect5951" fill="url(#rect5951_1_)" d="M16.1,110h95.1c3.9,0,7.1,3.2,7.1,7.1l0,0c0,3.9-3.2,7.1-7.1,7.1H16.1
			c-3.9,0-7.1-3.2-7.1-7.1l0,0C9,113.2,12.2,110,16.1,110z"/>
	</g>
	<g id="layer7_1_">
		<path id="rect5413-5_1_" fill="#A5A5A5" stroke="#323232" stroke-width="2" stroke-linecap="round" stroke-linejoin="round" d="
			M16.7,56.5H24v35h-7.5c-2.5,0-4.4-5.4-4.4-8.9L12,66C12,61.9,14,56.5,16.7,56.5z"/>
		<path id="rect5413_1_" fill="#636363" stroke="#323232" stroke-width="2" stroke-linecap="round" stroke-linejoin="round" d="
			M28.2,51H32v46h-3.8c-2.3,0-4.1-2-4.1-3.4L24,54.2C24,52.9,25.9,51,28.2,51z"/>
		<path id="rect5413-5-2_1_" fill="#A5A5A5" stroke="#323232" stroke-width="2" stroke-linecap="round" stroke-linejoin="round" d="
			M111.3,56.5H104v35h7.5c2.5,0,4.4-5.4,4.4-8.9L116,66C116,61.9,114,56.5,111.3,56.5z"/>
		<path id="rect5413-3_1_" fill="#636363" stroke="#323232" stroke-width="2" stroke-linecap="round" stroke-linejoin="round" d="
			M99.8,51H96v46h3.8c2.3,0,4.1-2,4.1-3.4l0.1-39.4C104,52.9,102.1,51,99.8,51z"/>
		<path id="path5647" fill-opacity="0.388" d="M13,80l2.7,3.6l2.5,2.6c2.7,1.5,3.1,1.2,4.5,1.8v1.8v0.4h-6.4H16
			C12.5,87.3,13,81.6,13,80z"/>
		<path id="path5647-9" fill-opacity="0.39" d="M115,78l-2.8,4.2l-2.5,3.1c-2.8,1.8-3.2,1.5-4.6,2.1v2.1V90h6.5h0.3
			C115.6,86.9,115,79.9,115,78L115,78z"/>
		<path id="path5647-1" fill-opacity="0.3" d="M25,82l1.7,4.9l1.5,3.6c1.7,2,1.9,1.7,2.8,2.5v2.5V96l-3.7-0.1l-1-0.7l-0.6-0.7
			c-0.2-0.5-0.6-0.9-0.7-1.8C25,89.4,25,83.7,25,82z"/>
		<path id="path5647-1-2" fill-opacity="0.3" d="M103,80l-1.7,5.6l-1.5,4.2c-1.7,2.3-1.9,1.9-2.8,2.8v2.8V96l3.7-0.1l1-0.8l0.6-0.8
			c0.2-0.5,0.6-1,0.7-2.1C103,88.4,103,81.9,103,80L103,80z"/>
		<path id="rect5540_2_" fill="none" stroke="#323232" stroke-width="4" stroke-linecap="round" stroke-linejoin="round" d="
			M21,55.9v-5C21,25,40.5,4.1,64.3,4.1H64c23.8,0,43,20.9,43,46.9v5"/>
	</g>
	<g id="layer6">
		
			<linearGradient id="rect5350_1_" gradientUnits="userSpaceOnUse" x1="-638.2271" y1="-135.2539" x2="-638.2471" y2="-125.8898" gradientTransform="matrix(3.7627 0 0 3.7795 2465.4429 593.8066)">
			<stop  offset="0" style="stop-color:#EB6841"/>
			<stop  offset="1" style="stop-color:#C04C29"/>
		</linearGradient>
		<path id="rect5350" fill="url(#rect5350_1_)" stroke="#323232" stroke-width="2" d="M41.8,27H96v90H37.7c-6.2,0-5.7-4-5.7-9.7
			V35.5C32,29.9,35.8,27,41.8,27z"/>
		
			<linearGradient id="rect5391_1_" gradientUnits="userSpaceOnUse" x1="-647.5581" y1="-127.5752" x2="-647.544" y2="-136.9996" gradientTransform="matrix(3.7795 0 0 3.7795 2481.4863 593.8066)">
			<stop  offset="0" style="stop-color:#97391D"/>
			<stop  offset="1" style="stop-color:#A84A2F"/>
		</linearGradient>
		<path id="rect5391" fill="url(#rect5391_1_)" d="M34,37.5c0.5,0,1,1,1,2.3l0.1,73.9c0,0.9-0.1,0.9-1,0.5c-0.5-0.2-1-1.7-1-3V39.9
			C33,38.6,33.4,37.5,34,37.5z"/>
		<path id="rect5357" fill="#FFFFFF" stroke="#323232" stroke-width="2" d="M39.2,27H96v13.9L37.4,41c-2,0-5.3-3-5.4-6.8
			C31.9,30.4,36.2,28.1,39.2,27z"/>
		<path id="path5360" fill="none" stroke="#323232" stroke-width="2" d="M36,40c0,76,0,76,0,76l0,0V40z"/>
		<path id="path5362" fill="none" stroke="#323232" stroke-width="2" stroke-linejoin="round" d="M95.6,32c-8.7,0,0,0-8.7,0H95.6z"
			/>
		<path id="path5364" fill="none" stroke="#323232" stroke-width="2" stroke-linecap="round" stroke-linejoin="round" d="M95.6,37
			c-13.2,0-13.2,0-13.2,0H95.6z"/>
	</g>
</g>
</svg>
