<?xml version="1.0" encoding="utf-8"?>
<!-- Generator: Adobe Illustrator 16.0.0, SVG Export Plug-In . SVG Version: 6.00 Build 0)  -->
<!DOCTYPE svg PUBLIC "-//W3C//DTD SVG 1.1//EN" "http://www.w3.org/Graphics/SVG/1.1/DTD/svg11.dtd">
<svg version="1.1" id="Layer_2" xmlns="http://www.w3.org/2000/svg" xmlns:xlink="http://www.w3.org/1999/xlink" x="0px" y="0px"
	 width="32px" height="32px" viewBox="0 0 32 32" enable-background="new 0 0 32 32" xml:space="preserve">
<g id="Layer_3">
</g>
<g id="Drop_Shadow_3_" transform="matrix(1.052632,0,0,1.285713,-1.263158,-13.42854)" opacity="0.4">
	
		<radialGradient id="rect2801_5_" cx="-182.0386" cy="388.8094" r="0.5742" gradientTransform="matrix(5.9947 0 0 1.0551 1116.3428 -377.5023)" gradientUnits="userSpaceOnUse">
		<stop  offset="0" style="stop-color:#181818"/>
		<stop  offset="1" style="stop-color:#181818;stop-opacity:0"/>
	</radialGradient>
	<rect id="rect2801_3_" x="25.1" y="32.3" fill="url(#rect2801_5_)" width="3.1" height="0.9"/>
	
		<radialGradient id="rect2_5_" cx="-428.6247" cy="-361.4845" r="0.5743" gradientTransform="matrix(-5.9947 0 0 -1.0551 -2561.7458 -348.6734)" gradientUnits="userSpaceOnUse">
		<stop  offset="0" style="stop-color:#181818"/>
		<stop  offset="1" style="stop-color:#181818;stop-opacity:0"/>
	</radialGradient>
	<rect id="rect2_3_" x="4.6" y="32.3" fill="url(#rect2_5_)" width="3.1" height="0.9"/>
	
		<linearGradient id="rect1_5_" gradientUnits="userSpaceOnUse" x1="-36.3579" y1="539.166" x2="-36.3579" y2="537.5504" gradientTransform="matrix(2.9917 0 0 0.9184 125.1773 -462.0033)">
		<stop  offset="0" style="stop-color:#181818;stop-opacity:0"/>
		<stop  offset="0.5" style="stop-color:#181818"/>
		<stop  offset="1" style="stop-color:#181818;stop-opacity:0"/>
	</linearGradient>
	<rect id="rect1_3_" x="7.7" y="32.3" fill="url(#rect1_5_)" width="17.4" height="0.9"/>
</g>
<path id="Icon_Border_3_" opacity="0.6" fill="#381F18" stroke="#3F3022" stroke-miterlimit="10" enable-background="new    " d="
	M29,26.2c0,1.5-1.3,2.8-2.8,2.8H5.8C4.3,29,3,27.7,3,26.2V5.8C3,4.3,4.3,3,5.8,3h20.4C27.7,3,29,4.3,29,5.8L29,26.2z"/>
<linearGradient id="Background_5_" gradientUnits="userSpaceOnUse" x1="258.0049" y1="-301.5" x2="258.0049" y2="-326.5005" gradientTransform="matrix(1 0 0 -1 -242 -298)">
	<stop  offset="0" style="stop-color:#F39200"/>
	<stop  offset="0.1354" style="stop-color:#F18905"/>
	<stop  offset="0.3558" style="stop-color:#EC7114"/>
	<stop  offset="0.6339" style="stop-color:#E3492C"/>
	<stop  offset="0.9557" style="stop-color:#D8134D"/>
	<stop  offset="1" style="stop-color:#D60B52"/>
</linearGradient>
<linearGradient id="Background_6_" gradientUnits="userSpaceOnUse" x1="258.0049" y1="-301" x2="258.0049" y2="-327.0005" gradientTransform="matrix(1 0 0 -1 -242 -298)">
	<stop  offset="0" style="stop-color:#E94E1B"/>
	<stop  offset="7.124600e-003" style="stop-color:#EA531C"/>
	<stop  offset="5.917540e-002" style="stop-color:#EF7524"/>
	<stop  offset="0.1123" style="stop-color:#F4902B"/>
	<stop  offset="0.1663" style="stop-color:#F7A32F"/>
	<stop  offset="0.2218" style="stop-color:#F8AE32"/>
	<stop  offset="0.2809" style="stop-color:#F9B233"/>
	<stop  offset="0.5897" style="stop-color:#E94E1B"/>
	<stop  offset="0.8088" style="stop-color:#E94E1B"/>
	<stop  offset="0.8493" style="stop-color:#E24822"/>
	<stop  offset="0.9094" style="stop-color:#CE3934"/>
	<stop  offset="0.9814" style="stop-color:#AD2052"/>
	<stop  offset="1" style="stop-color:#A3195B"/>
</linearGradient>
<path id="Background_3_" fill="url(#Background_5_)" stroke="url(#Background_6_)" stroke-miterlimit="10" d="M28.5,25.8
	c0,1.5-1.2,2.7-2.7,2.7H6.2c-1.5,0-2.7-1.2-2.7-2.7V6.2c0-1.5,1.2-2.7,2.7-2.7h19.6c1.5,0,2.7,1.2,2.7,2.7V25.8z"/>
<path id="Shadow_Book_3_" opacity="0.2" enable-background="new    " d="M20,25.1c0,1.6-0.5,1.3-1.3,1.3h-5.5
	c-0.7,0-1.3,0.3-1.3-1.3V13.3c0-1.6,0.5-1.1,1.3-1.1h5.5c0.7,0,1.3-0.5,1.3,1.1V25.1z"/>
<g id="Shadow_Headphones_3_" opacity="0.2">
	<path id="rect5540_8_" fill="none" stroke="#000000" stroke-width="2" stroke-linecap="round" stroke-linejoin="round" d="
		M8.6,16.9v-1.4c0-4.6,3.4-8.3,7.6-8.3h-0.1c4.2,0,7.6,3.7,7.6,8.3v1.4"/>
	<path id="rect5413-5_8_" d="M8.1,16.2h1.3v6.2H8.1c-0.4,0-0.8-0.9-0.8-1.6l0-2.9C7.3,17.2,7.6,16.2,8.1,16.2z"/>
	<path id="rect5413_8_" d="M9.8,15.2h0.7v8.3H9.8c-0.4,0-0.7-0.4-0.7-0.6v-7.1C9.1,15.5,9.4,15.2,9.8,15.2z"/>
	<path id="rect5413-5-2_8_" d="M24.4,16.2h-1.3v6.2h1.3c0.4,0,0.8-0.9,0.8-1.6l0-2.9C25.2,17.2,24.8,16.2,24.4,16.2z"/>
	<path id="rect5413-3_8_" d="M22.6,15.2H22v8.3h0.7c0.4,0,0.7-0.4,0.7-0.6v-7.1C23.4,15.5,23,15.2,22.6,15.2z"/>
</g>
<g id="Headphones_3_">
	<path id="rect5540_7_" fill="none" stroke="#FFFFFF" stroke-width="2" stroke-linecap="round" stroke-linejoin="round" d="
		M8.5,16.3v-1.4c0-4.5,3.4-8.2,7.6-8.2H16c4.2,0,7.5,3.7,7.5,8.2v1.4"/>
	<path id="rect5413-5_7_" fill="#FFFFFF" d="M7.8,15.6h1.3v6.1H7.8c-0.4,0-0.8-0.9-0.8-1.6l0-2.9C7,16.5,7.3,15.6,7.8,15.6z"/>
	<path id="rect5413_7_" fill="#FFFFFF" d="M9.6,14.6h0.7v8.1H9.6c-0.4,0-0.7-0.4-0.7-0.6v-7C8.8,14.9,9.2,14.6,9.6,14.6z"/>
	<path id="rect5413-5-2_7_" fill="#FFFFFF" d="M24.2,15.6h-1.3v6.1h1.3c0.4,0,0.8-0.9,0.8-1.6l0-2.9C25,16.5,24.7,15.6,24.2,15.6z"
		/>
	<path id="rect5413-3_7_" fill="#FFFFFF" d="M22.4,14.6h-0.7v8.1h0.7c0.4,0,0.7-0.4,0.7-0.6v-7C23.2,14.9,22.8,14.6,22.4,14.6z"/>
	<path id="path5647_6_" display="none" fill-opacity="0.388" d="M7.6,19.5L8,20.2l0.4,0.5C8.8,21.1,8.8,21,9,21.1v0.4v0.1H8.1h0
		C7.5,21,7.6,19.8,7.6,19.5z"/>
	<path id="path5647-9_6_" display="none" fill-opacity="0.39" d="M24.8,19.7l-0.4,0.6l-0.3,0.5c-0.4,0.3-0.4,0.2-0.6,0.3v0.3v0.1
		h0.9h0C24.9,21.1,24.8,20,24.8,19.7L24.8,19.7z"/>
	<path id="path5647-1_6_" display="none" fill-opacity="0.3" d="M9.4,20.4l0.2,0.8l0.2,0.6c0.2,0.3,0.2,0.3,0.4,0.4v0.4v0.1l-0.5,0
		l-0.1-0.1l-0.1-0.1c0-0.1-0.1-0.1-0.1-0.3C9.4,21.6,9.4,20.7,9.4,20.4z"/>
	<path id="path5647-1-2_6_" display="none" fill="#1D1D1B" fill-opacity="0.3" d="M23,19.9l-0.2,0.9l-0.2,0.7
		c-0.2,0.4-0.3,0.3-0.4,0.5v0.5v0.1l0.6,0l0.1-0.1l0.1-0.1c0-0.1,0.1-0.2,0.1-0.4C23,21.3,23,20.3,23,19.9L23,19.9z"/>
</g>
<rect x="12" y="12" fill="#FFFFFF" width="8" height="13"/>
</svg>
