<?xml version="1.0" encoding="UTF-8" standalone="no"?>
<svg
   xmlns:dc="http://purl.org/dc/elements/1.1/"
   xmlns:cc="http://creativecommons.org/ns#"
   xmlns:rdf="http://www.w3.org/1999/02/22-rdf-syntax-ns#"
   xmlns:svg="http://www.w3.org/2000/svg"
   xmlns="http://www.w3.org/2000/svg"
   xmlns:xlink="http://www.w3.org/1999/xlink"
   xmlns:sodipodi="http://sodipodi.sourceforge.net/DTD/sodipodi-0.dtd"
   xmlns:inkscape="http://www.inkscape.org/namespaces/inkscape"
   width="32"
   height="32"
   id="svg2"
   version="1.1"
   sodipodi:docname="com.github.geigi.cozy2.svg"
   inkscape:version="0.92.4 5da689c313, 2019-01-14">
  <sodipodi:namedview
     pagecolor="#ffffff"
     bordercolor="#666666"
     borderopacity="1"
     objecttolerance="10"
     gridtolerance="10"
     guidetolerance="10"
     inkscape:pageopacity="0"
     inkscape:pageshadow="2"
     inkscape:window-width="2560"
     inkscape:window-height="1386"
     id="namedview54"
     showgrid="false"
     inkscape:zoom="14.75"
     inkscape:cx="1.1521158"
     inkscape:cy="14.717252"
     inkscape:window-x="0"
     inkscape:window-y="28"
     inkscape:window-maximized="1"
     inkscape:current-layer="layer3"
     inkscape:snap-page="true"
     inkscape:snap-grids="false" />
  <defs
     id="defs4">
    <linearGradient
       id="linearGradient1174">
      <stop
         id="stop1166"
         style="stop-color:#ffffff;stop-opacity:1"
         offset="0" />
      <stop
         id="stop1168"
         style="stop-color:#ffffff;stop-opacity:0.23529412"
         offset="0.04604129" />
      <stop
         id="stop1170"
         style="stop-color:#ffffff;stop-opacity:0.15686275"
         offset="0.95056331" />
      <stop
         id="stop1172"
         style="stop-color:#ffffff;stop-opacity:0.39215687"
         offset="1" />
    </linearGradient>
    <linearGradient
       id="linearGradient899">
      <stop
         offset="0"
         style="stop-color:#f282f1;stop-opacity:1"
         id="stop1192" />
      <stop
         offset="1"
         style="stop-color:#a56de2;stop-opacity:1"
         id="stop1194" />
    </linearGradient>
    <linearGradient
       id="linearGradient6420">
      <stop
         style="stop-color:#000000;stop-opacity:1;"
         offset="0"
         id="stop6422" />
      <stop
         style="stop-color:#000000;stop-opacity:0;"
         offset="1"
         id="stop6424" />
    </linearGradient>
    <linearGradient
       id="linearGradient3688-166-749-654">
      <stop
         id="stop3088"
         style="stop-color:#181818;stop-opacity:1"
         offset="0" />
      <stop
         id="stop3090"
         style="stop-color:#181818;stop-opacity:0"
         offset="1" />
    </linearGradient>
    <linearGradient
       id="linearGradient3702-501-757-795">
      <stop
         id="stop3100"
         style="stop-color:#181818;stop-opacity:0"
         offset="0" />
      <stop
         id="stop3102"
         style="stop-color:#181818;stop-opacity:1"
         offset="0.5" />
      <stop
         id="stop3104"
         style="stop-color:#181818;stop-opacity:0"
         offset="1" />
    </linearGradient>
    <radialGradient
       r="2.5"
       fy="43.5"
       fx="4.9929786"
       cy="43.5"
       cx="4.9929786"
       gradientTransform="matrix(1.9740983,0,0,1.4,26.451271,-17.402531)"
       gradientUnits="userSpaceOnUse"
       id="radialGradient3946"
       xlink:href="#linearGradient3688-166-749-654" />
    <radialGradient
       r="2.5"
       fy="43.5"
       fx="4.9929786"
       cy="43.5"
       cx="4.9929786"
       gradientTransform="matrix(1.9740983,0,0,1.4,-21.548734,-104.39747)"
       gradientUnits="userSpaceOnUse"
       id="radialGradient3948"
       xlink:href="#linearGradient3688-166-749-654" />
    <linearGradient
       gradientTransform="matrix(0.87962965,0,0,1,2.8888916,-0.00253193)"
       y2="39.999443"
       x2="25.058096"
       y1="47.027729"
       x1="25.058096"
       gradientUnits="userSpaceOnUse"
       id="linearGradient3950"
       xlink:href="#linearGradient3702-501-757-795" />
    <radialGradient
       r="35.338131"
       fy="93.467628"
       fx="-4.0287771"
       cy="93.467628"
       cx="-4.0287771"
       gradientTransform="matrix(0.35372554,0,0,0.04244707,17.425079,121.9643)"
       gradientUnits="userSpaceOnUse"
       id="radialGradient3976"
       xlink:href="#linearGradient6420" />
    <linearGradient
       y2="48.534767"
       x2="23.99999"
       y1="6.0395865"
       x1="23.99999"
       gradientTransform="matrix(1.3648649,0,0,1.3648649,-7.256753,56.743256)"
       gradientUnits="userSpaceOnUse"
       id="linearGradient3965"
       xlink:href="#linearGradient3924" />
    <linearGradient
       id="linearGradient3924">
      <stop
         offset="0"
         style="stop-color:#ffffff;stop-opacity:1"
         id="stop3926" />
      <stop
         offset="0.06316455"
         style="stop-color:#ffffff;stop-opacity:0.23529412"
         id="stop3928" />
      <stop
         offset="0.95056331"
         style="stop-color:#ffffff;stop-opacity:0.15686275"
         id="stop3930" />
      <stop
         offset="1"
         style="stop-color:#ffffff;stop-opacity:0.39215687"
         id="stop3932" />
    </linearGradient>
    <linearGradient
       y2="124.11175"
       x2="200.66388"
       y1="6.0270019"
       x1="201.47743"
       gradientTransform="matrix(0.24999999,0,0,0.24999999,-34.369356,95.299705)"
       gradientUnits="userSpaceOnUse"
       id="linearGradient910"
       xlink:href="#linearGradient899-4" />
    <linearGradient
       id="linearGradient899-4">
      <stop
         id="stop895"
         style="stop-color:#f37329;stop-opacity:1"
         offset="0" />
      <stop
         id="stop897"
         style="stop-color:#cc3b02;stop-opacity:1"
         offset="1" />
    </linearGradient>
    <linearGradient
       gradientUnits="userSpaceOnUse"
       y2="119"
       x2="32"
       y1="1"
       x1="32"
       id="linearGradient904"
       xlink:href="#linearGradient902"
       gradientTransform="translate(-7)" />
    <linearGradient
       id="linearGradient902">
      <stop
         id="stop898"
         offset="0"
         style="stop-color:#770087;stop-opacity:1;" />
      <stop
         id="stop900"
         offset="1"
         style="stop-color:#452981;stop-opacity:1" />
    </linearGradient>
    <linearGradient
       gradientTransform="matrix(1.832495,0,0,1.8439152,-232.1758,-3.442198)"
       gradientUnits="userSpaceOnUse"
       xlink:href="#linearGradient5803"
       id="linearGradient5228-5"
       y2="55.014568"
       x2="167.98311"
       y1="10.001652"
       x1="167.98311" />
    <linearGradient
       id="linearGradient5803">
      <stop
         offset="0"
         style="stop-color:#ffffff;stop-opacity:1"
         id="stop5805" />
      <stop
         offset="1"
         style="stop-color:#fafafa;stop-opacity:1"
         id="stop5807" />
    </linearGradient>
    <linearGradient
       inkscape:collect="always"
       xlink:href="#linearGradient1174"
       id="linearGradient1154"
       x1="32.066757"
       y1="63.410389"
       x2="31.75"
       y2="122.7458"
       gradientUnits="userSpaceOnUse" />
    <linearGradient
       inkscape:collect="always"
       xlink:href="#linearGradient899-4"
       id="linearGradient1164"
       gradientUnits="userSpaceOnUse"
       gradientTransform="matrix(0.5,0,0,0.5,-68.738715,61.736499)"
       x1="201.47743"
       y1="6.0270019"
       x2="200.66388"
       y2="124.11175" />
    <mask
       maskUnits="userSpaceOnUse"
       id="mask1160">
      <rect
         style="opacity:1;vector-effect:none;fill:url(#linearGradient1164);fill-opacity:1;stroke:none;stroke-width:1;stroke-linecap:butt;stroke-linejoin:miter;stroke-miterlimit:4;stroke-dasharray:none;stroke-dashoffset:0;stroke-opacity:1"
         id="rect1162"
         y="64.750031"
         x="8.75"
         ry="2.5"
         rx="2.5"
         height="58.5"
         width="46.5" />
    </mask>
    <radialGradient
       xlink:href="#linearGradient3688-166-749-654"
       id="radialGradient3946-8"
       gradientUnits="userSpaceOnUse"
       gradientTransform="matrix(2.8052977,0,0,0.49999998,-68.58441,119.39159)"
       cx="4.9929786"
       cy="43.5"
       fx="4.9929786"
       fy="43.5"
       r="2.5" />
    <radialGradient
       xlink:href="#linearGradient3688-166-749-654"
       id="radialGradient3948-3"
       gradientUnits="userSpaceOnUse"
       gradientTransform="matrix(2.8052977,0,0,0.49999998,75.551173,-162.89159)"
       cx="4.9929786"
       cy="43.5"
       fx="4.9929786"
       fy="43.5"
       r="2.5" />
    <radialGradient
       xlink:href="#linearGradient6420"
       id="radialGradient3976-8"
       gradientUnits="userSpaceOnUse"
       gradientTransform="matrix(0.7074511,0,0,0.08489414,-69.21764,132.95736)"
       cx="-4.0287771"
       cy="93.467628"
       fx="-4.0287771"
       fy="93.467628"
       r="35.338131" />
    <mask
       id="mask1160-9"
       maskUnits="userSpaceOnUse">
      <rect
         width="46.5"
         height="58.5"
         rx="2.5"
         ry="2.5"
         x="8.75"
         y="64.750031"
         id="rect1162-9"
         style="opacity:1;vector-effect:none;fill:url(#linearGradient1164);fill-opacity:1;stroke:none;stroke-width:1;stroke-linecap:butt;stroke-linejoin:miter;stroke-miterlimit:4;stroke-dasharray:none;stroke-dashoffset:0;stroke-opacity:1" />
    </mask>
  </defs>
  <metadata
     id="metadata7">
    <rdf:RDF>
      <cc:Work
         rdf:about="">
        <dc:format>image/svg+xml</dc:format>
        <dc:type
           rdf:resource="http://purl.org/dc/dcmitype/StillImage" />
        <dc:title></dc:title>
      </cc:Work>
    </rdf:RDF>
  </metadata>
  <flowRoot
     style="font-style:normal;font-weight:normal;font-size:40px;line-height:1.25;font-family:sans-serif;letter-spacing:0px;word-spacing:0px;fill:#000000;fill-opacity:1;stroke:none"
     id="flowRoot81"
     xml:space="preserve"
     transform="translate(0,-96)"><flowRegion
       id="flowRegion83"><rect
         y="-10.609092"
         x="-189.29451"
         height="581.07208"
         width="281.61438"
         id="rect85" /></flowRegion><flowPara
       id="flowPara87" /></flowRoot>  <g
     id="Layer_3"
     transform="translate(152.73099,-111.4)" />
  <g
     inkscape:groupmode="layer"
     id="layer1"
     inkscape:label="Layer 1"
     style="display:none"
     transform="translate(0,-96)">
    <rect
       style="opacity:0.35400008;fill:#cc3b02;fill-opacity:0.35294118;fill-rule:evenodd;stroke:none;stroke-width:1.99900007;stroke-linecap:round;stroke-linejoin:round;stroke-miterlimit:4;stroke-dasharray:none;stroke-dashoffset:0;stroke-opacity:1;paint-order:markers fill stroke"
       id="rect996"
       width="32"
       height="32"
       x="0"
       y="96"
       rx="0.058975998"
       ry="0.06480775" />
  </g>
  <g
     inkscape:groupmode="layer"
     id="layer2"
     inkscape:label="Layer 2"
     transform="translate(0,-96)">
    <path
       d="m 28.499998,125.93173 a 12.5,1.5 0 0 1 -24.9999981,0 12.5,1.5 0 1 1 24.9999981,0 z"
       id="path3041"
       style="color:#000000;display:inline;overflow:visible;visibility:visible;opacity:0.2;fill:url(#radialGradient3976);fill-opacity:1;fill-rule:nonzero;stroke:none;stroke-width:0.99999994;marker:none;enable-background:accumulate"
       inkscape:connector-curvature="0" />
    <g
       transform="matrix(0.6749997,0,0,0.13888902,-0.20000225,120.15409)"
       id="g2036"
       style="display:inline;stroke-width:4">
      <g
         transform="matrix(1.052632,0,0,1.285713,-1.263158,-13.42854)"
         id="g3712"
         style="opacity:0.4;stroke-width:4">
        <rect
           width="4.9259257"
           height="7"
           x="36.314819"
           y="39.997467"
           id="rect2801-3"
           style="fill:url(#radialGradient3946);fill-opacity:1;stroke:none;stroke-width:4" />
        <rect
           width="4.9259257"
           height="7"
           x="-11.685188"
           y="-46.997467"
           transform="scale(-1)"
           id="rect3696-6"
           style="fill:url(#radialGradient3948);fill-opacity:1;stroke:none;stroke-width:4" />
        <rect
           width="24.629629"
           height="7.0000005"
           x="11.685188"
           y="39.997467"
           id="rect3700-7"
           style="fill:url(#linearGradient3950);fill-opacity:1;stroke:none;stroke-width:4" />
      </g>
    </g>
    <rect
       width="23.25"
       height="29.249998"
       rx="1.25"
       ry="1.25"
       x="4.375"
       y="96.806473"
       id="rect4897"
       style="opacity:1;vector-effect:none;fill:url(#linearGradient910);fill-opacity:1;stroke:none;stroke-width:1;stroke-linecap:butt;stroke-linejoin:miter;stroke-miterlimit:4;stroke-dasharray:none;stroke-dashoffset:0;stroke-opacity:1" />
    <rect
       style="opacity:0.5;vector-effect:none;fill:none;fill-opacity:1;stroke:#ee6c24;stroke-width:0.7;stroke-linecap:butt;stroke-linejoin:miter;stroke-miterlimit:4;stroke-dasharray:none;stroke-dashoffset:0;stroke-opacity:1"
       id="rect3993"
       y="96.806458"
       x="4.375"
       ry="1.25"
       rx="1.25"
       height="29.249998"
       width="23.25" />
    <rect
       style="opacity:1;vector-effect:none;fill:none;fill-opacity:1;stroke:url(#linearGradient1154);stroke-width:1.4;stroke-linecap:butt;stroke-linejoin:miter;stroke-miterlimit:4;stroke-dasharray:none;stroke-dashoffset:0;stroke-opacity:1"
       id="rect1146"
       y="64.750031"
       x="8.75"
       ry="2.5"
       rx="2.5"
       height="58.5"
       width="46.5"
       mask="url(#mask1160)"
       transform="matrix(0.5,0,0,0.5,0,64.431457)" />
  </g>
  <g
     inkscape:groupmode="layer"
     id="layer3"
     inkscape:label="Layer 3"
     transform="translate(0,-96)">
    <path
       d="m 7.5,102.05645 h 1.556918 z m 1.785266,0 h 1.453123 z m 1.681471,0 h 1.287053 z m 1.494643,0 h 0.56049 z m 0.788838,0 h 1.245535 z m 1.494641,0 h 3.279908 z m 3.487497,0 h 2.511828 z m 2.719418,0 h 0.768079 z M 7.5,103.55645 h 2.4287925 z m 2.698658,0 h 1.162499 z m 1.370087,0 h 0.58125 z m 0.809598,0 h 1.058704 z m 1.287052,0 h 1.079463 z m 1.287053,0 h 1.722989 z m 1.951338,0 h 2.241962 z m 2.449552,0 h 1.494641 z m 1.70223,0 h 0.373661 z M 7.5,105.04611 h 2.0551315 z m 2.2627205,0 h 3.3629435 z m 3.5705335,0 h 1.639953 z m 1.847543,0 h 1.536159 z m 1.743748,0 h 1.307811 z m 1.5154,0 2.055132,0.0207 z m 2.241962,0.0207 h 3.342185 z M 7.5,106.55645 h 2.84397 z m 3.072319,0 h 3.072318 z m 3.279907,0 h 1.224776 z m 1.432365,0 h 2.885488 z m 3.072319,0 h 1.972096 z m 2.200444,0 h 0.788839 z m 0.996427,0 h 0.435938 z m 0.664286,0 h 1.224776 z M 7.5,108.05645 h 1.058704 z m 1.3908465,0 H 12.81428 Z M 7.5,110.55645 h 1.556918 z m 1.785266,0 h 1.432364 z m 1.681471,0 h 1.287053 z m 1.494642,0 h 0.560491 z m 0.788839,0 h 1.245534 z m 1.494641,0 h 3.259148 z m 3.487497,0 h 2.491069 z m 2.698659,0 h 0.788838 z m 0.996427,0 h 1.868302 z M 7.5,112.05645 h 2.615621 z m 2.823211,0 h 2.802453 z m 3.010042,0 h 1.079463 z m 1.287053,0 h 2.636382 z m 2.84397,0 h 3.321426 z m 3.549774,0 h 1.224776 z m -13.51405,1.5 h 2.84397 z m 3.072319,0 h 3.072318 z m 3.279907,0 h 1.224776 z m 1.432365,0 h 2.885488 z m 3.072319,0 h 1.972096 z m 2.200444,0 h 0.788839 z m 0.996427,0 h 0.435938 z m 0.664286,0 h 1.224776 z M 7.5,115.05645 h 2.4287925 z m 2.698658,0 h 1.162499 z m 1.370087,0 h 0.58125 z m 0.809598,0 h 1.058704 z m 1.287052,0 h 1.079463 z m 1.287053,0 h 1.722989 z m 1.951338,0 h 2.241962 z m 2.449552,0 h 1.494641 z m 1.70223,0 h 0.373661 z M 7.5,117.54611 h 2.0551315 z m 2.2627205,0 h 3.3629435 z m 3.5705335,0 h 1.639953 z m 1.847543,0 h 1.536159 z m 1.743748,0 h 1.307811 z m 1.5154,0 2.055132,0.0207 z m 2.241962,0.0207 h 3.342185 z M 7.5,119.05644 h 2.4287925 z m 2.698658,0 h 1.162499 z m 1.370087,0 h 0.58125 z m 0.809598,0 h 1.058704 z m 1.287052,0 h 1.079463 z m 1.287053,0 h 1.722989 z m 1.951338,0 h 2.241962 z m 2.449552,0 h 1.494641 z m 1.70223,0 h 0.373661 z M 7.5,120.55644 h 2.574104 z m 2.802452,0 h 0.809598 z m 1.017187,0 h 1.847543 z m 2.055132,0 h 2.719418 z m 2.947765,0 h 1.847544 z m 2.034374,0 h 0.394419 z m 0.602008,0 h 2.345757 z m 2.594864,0 h 1.224776 z M 7.5,122.05644 h 2.574104 z m 2.802452,0 h 1.1625 z m 1.370088,0 h 1.826785 z m 2.034374,0 h 1.972096 z m 2.200444,0 h 0.788839 z m 0.996428,0 h 0.435937 z m 0.664286,0 h 1.224775 z"
       id="path3475"
       style="opacity:0.7;fill:none;stroke:#fafafa;stroke-width:1px;stroke-linecap:butt;stroke-linejoin:miter;stroke-opacity:0.49710987"
       inkscape:connector-curvature="0" />
    <flowRoot
       style="font-style:normal;font-weight:normal;font-size:40px;line-height:1.25;font-family:sans-serif;letter-spacing:0px;word-spacing:0px;fill:#000000;fill-opacity:1;stroke:none"
       id="flowRoot81-6"
       xml:space="preserve"
       transform="translate(-104.0678,17.891649)"><flowRegion
         id="flowRegion83-0"><rect
           y="-10.609092"
           x="-189.29451"
           height="581.07208"
           width="281.61438"
           id="rect85-5" /></flowRegion><flowPara
         id="flowPara87-0" /></flowRoot>    <g
       id="g1064"
       transform="matrix(0.49999997,0,0,0.49999997,52.033772,55.23554)">
      <path
         inkscape:connector-curvature="0"
         style="opacity:0.07000002;fill:none;fill-opacity:1;stroke:#000000;stroke-width:1;stroke-miterlimit:4;stroke-dasharray:none;stroke-opacity:1"
         d="m -72.067209,94.426541 c -0.157779,0 -0.314874,-0.0027 -0.473639,0.002 -8.670416,0.255891 -15.56705,7.357229 -15.5695,16.031419 v 3.34184 4.54008 h -0.777351 c -0.554007,0 -1.000011,0.44601 -1.000011,1.00002 v 8.83408 c 0,0.554 0.446004,1 1.000011,1 h 0.777351 0.494147 1.451187 v 1.18166 c 0,0.554 0.446003,1.00001 1.00001,1.00001 h 3.524452 c 0.554005,0 1.00001,-0.44601 1.00001,-1.00001 v -13.19742 c 0,-0.55399 -0.446005,-1 -1.00001,-1 h -2.428737 v -1.02149 -1.33693 h -0.03027 v -3.34184 c -0.0036,-2.38101 0.704145,-4.70941 2.03225,-6.68561 0.435054,-0.65635 0.93389,-1.26699 1.490251,-1.82424 2.476616,-2.472763 5.525756,-3.558088 8.509855,-3.535198 2.984098,-0.0229 6.033239,1.062435 8.509855,3.535198 0.55636,0.55725 1.055197,1.16789 1.49025,1.82424 1.328105,1.9762 2.035836,4.3046 2.032249,6.68561 v 3.34184 h -0.03028 v 1.33693 1.02149 h -2.428737 c -0.554005,0 -1.00001,0.44601 -1.00001,1 v 13.19742 c 0,0.554 0.446005,1.00001 1.00001,1.00001 h 3.524452 c 0.554007,0 1.00001,-0.44601 1.00001,-1.00001 v -1.18165 h 1.451187 0.494147 0.777351 c 0.554007,0 1.000011,-0.44601 1.000011,-1.00001 v -8.83408 c 0,-0.55401 -0.446004,-1.00002 -1.000011,-1.00002 h -0.77735 v -4.54008 -3.34184 c -0.0025,-8.67419 -6.899084,-15.775525 -15.5695,-16.031415 -0.158765,-0.0047 -0.315859,-0.0019 -0.473638,-0.0019 z"
         id="path902" />
      <path
         id="path900"
         d="m -72.067209,94.426541 c -0.157779,0 -0.314874,-0.0027 -0.473639,0.002 -8.670416,0.255891 -15.56705,7.357229 -15.5695,16.031419 v 3.34184 4.54008 h -0.777351 c -0.554007,0 -1.000011,0.44601 -1.000011,1.00002 v 8.83408 c 0,0.554 0.446004,1 1.000011,1 h 0.777351 0.494147 1.451187 v 1.18166 c 0,0.554 0.446003,1.00001 1.00001,1.00001 h 3.524452 c 0.554005,0 1.00001,-0.44601 1.00001,-1.00001 v -13.19742 c 0,-0.55399 -0.446005,-1 -1.00001,-1 h -2.428737 v -1.02149 -1.33693 h -0.03027 v -3.34184 c -0.0036,-2.38101 0.704145,-4.70941 2.03225,-6.68561 0.435054,-0.65635 0.93389,-1.26699 1.490251,-1.82424 2.476616,-2.472763 5.525756,-3.558088 8.509855,-3.535198 2.984098,-0.0229 6.033239,1.062435 8.509855,3.535198 0.55636,0.55725 1.055197,1.16789 1.49025,1.82424 1.328105,1.9762 2.035836,4.3046 2.032249,6.68561 v 3.34184 h -0.03028 v 1.33693 1.02149 h -2.428737 c -0.554005,0 -1.00001,0.44601 -1.00001,1 v 13.19742 c 0,0.554 0.446005,1.00001 1.00001,1.00001 h 3.524452 c 0.554007,0 1.00001,-0.44601 1.00001,-1.00001 v -1.18165 h 1.451187 0.494147 0.777351 c 0.554007,0 1.000011,-0.44601 1.000011,-1.00001 v -8.83408 c 0,-0.55401 -0.446004,-1.00002 -1.000011,-1.00002 h -0.77735 v -4.54008 -3.34184 c -0.0025,-8.67419 -6.899084,-15.775525 -15.5695,-16.031415 -0.158765,-0.0047 -0.315859,-0.0019 -0.473638,-0.0019 z"
         style="opacity:0.15;fill:#1b1b1b;fill-opacity:1;stroke-width:4.00004196"
         inkscape:connector-curvature="0" />
      <path
         inkscape:connector-curvature="0"
         style="fill:#fafafa;stroke-width:3.99998593"
         d="m -72.067459,93.426699 c -0.157777,0 -0.31487,-0.0027 -0.473632,0.002 -8.670295,0.255887 -15.566832,7.357121 -15.569282,16.031191 v 3.34179 4.54002 h -0.77734 c -0.553999,0 -0.999997,0.446 -0.999997,1.00001 v 8.83395 c 0,0.554 0.445998,0.99999 0.999997,0.99999 h 0.77734 0.49414 1.451167 v 1.18164 c 0,0.554 0.445997,1 0.999996,1 h 3.524402 c 0.553998,0 0.999996,-0.446 0.999996,-1 v -13.19723 c 0,-0.55399 -0.445998,-0.99999 -0.999996,-0.99999 h -2.428703 v -1.02148 -1.33691 h -0.03027 v -3.34179 c -0.0036,-2.38098 0.704135,-4.70934 2.032221,-6.68552 0.435048,-0.65634 0.933877,-1.26697 1.49023,-1.82421 2.476582,-2.472726 5.525679,-3.558036 8.509736,-3.535146 2.984056,-0.0229 6.033154,1.06242 8.509736,3.535146 0.556352,0.55724 1.055182,1.16787 1.490229,1.82421 1.328086,1.97618 2.035807,4.30454 2.03222,6.68552 v 3.34179 h -0.03028 v 1.33691 1.02148 h -2.428703 c -0.553998,0 -0.999996,0.446 -0.999996,0.99999 v 13.19723 c 0,0.554 0.445998,1 0.999996,1 h 3.524402 c 0.553999,0 0.999996,-0.446 0.999996,-1 v -1.18163 h 1.451167 0.49414 0.77734 c 0.553999,0 0.999997,-0.446 0.999997,-1 v -8.83395 c 0,-0.55401 -0.445998,-1.00001 -0.999997,-1.00001 h -0.777339 v -4.54002 -3.34179 c -0.0025,-8.67407 -6.898987,-15.775301 -15.569282,-16.031187 -0.158762,-0.0047 -0.315854,-0.0019 -0.473631,-0.0019 z"
         id="path1462-8" />
    </g>
  </g>
</svg>
